<svg xmlns="http://www.w3.org/2000/svg" width="23" height="27" viewBox="0 0 23 27">
    <g fill="none" fill-rule="evenodd" opacity=".15">
        <path fill="#FFF" d="M22.323 11.724c.106.29.15.64.133 1.045-.017.406-.091.75-.223 1.034l-5.705 12.235a1.085 1.085 0 0 1-.635.583c-.29.106-.577.093-.86-.039L.758 19.926a1.085 1.085 0 0 1-.583-.634 1.085 1.085 0 0 1 .039-.861L8.138 1.437c.132-.283.344-.477.634-.583.291-.106.578-.093.861.04L19.15 5.33c.284.132.562.348.836.648.274.3.464.596.57.886l1.768 4.86z"/>
        <path fill="#FD1E1E" fill-opacity=".81" d="M22.323 11.724c.106.29.15.64.133 1.045-.017.406-.091.75-.223 1.034l-5.705 12.235a1.085 1.085 0 0 1-.635.583c-.29.106-.577.093-.86-.039L.758 19.926a1.085 1.085 0 0 1-.583-.634 1.085 1.085 0 0 1 .039-.861L8.138 1.437c.132-.283.344-.477.634-.583.291-.106.578-.093.861.04L19.15 5.33c.284.132.562.348.836.648.274.3.464.596.57.886l1.768 4.86zm-3.507-4.79l-1.862 3.993 3.993 1.862c.025-.238.015-.42-.03-.544L19.141 7.37c-.045-.124-.154-.27-.326-.436zm-3.49 18.13l5.072-10.876-4.418-2.06a1.085 1.085 0 0 1-.584-.634 1.085 1.085 0 0 1 .04-.861l2.06-4.418L9.339 2.41 1.732 18.725l13.595 6.339zm-2.522-8.844c.148.293.353.63.615 1.011.441.145.867.314 1.277.505 1.041.486 1.587.951 1.638 1.397.04.209-.038.396-.237.562-.003.007-.01.013-.02.017l-.031.011-.005.01c-.168.25-.482.267-.942.053-.34-.159-.714-.42-1.123-.782a8.544 8.544 0 0 1-1.118-1.207c-1.644-.56-3.169-.913-4.574-1.06-1.949 1.35-3.238 1.878-3.868 1.584a.681.681 0 0 1-.263-.213l-.195-.246a1.254 1.254 0 0 0-.04-.083c-.037-.104.001-.241.115-.412.196-.254.545-.485 1.048-.695.503-.209 1.13-.333 1.88-.37.129-.018.2.041.215.177.007.02.008.038 0 .052.65-.43 1.354-.95 2.113-1.562a17.884 17.884 0 0 0 2.402-2.268c.101-.66.256-1.274.466-1.845.21-.57.444-1.01.7-1.322.21-.247.425-.319.645-.216l.233.108c.163.076.262.187.298.333.058.208-.022.464-.241.767a.254.254 0 0 1-.082.065.305.305 0 0 1-.03.09l-.148.319c-.42.864-.787 1.52-1.1 1.97-.152 1.342-.028 2.426.372 3.25zm-8.153 1.513c.448.002 1.194-.332 2.238-1a6.68 6.68 0 0 0-1.345.459c-.404.191-.702.371-.893.54zm8.784-7.8c-.245.248-.47.712-.675 1.392l.292-.433c.01-.021.106-.162.287-.422a.264.264 0 0 1 .082-.065c-.003-.01-.004-.02 0-.026.003-.007.004-.013.002-.019-.002-.005-.001-.011.002-.018a.675.675 0 0 0 .04-.447c-.003.007-.01.013-.02.017l-.01.02zm-4.59 6.406c1.133.063 2.272.245 3.417.546a1.77 1.77 0 0 1-.091-.165 2.095 2.095 0 0 1-.104-.223c-.316-.725-.475-1.558-.477-2.498-.475.52-1.094 1.08-1.857 1.681-.397.298-.694.517-.889.659zm6.94 3.03c-.091-.25-.547-.566-1.369-.949.446.45.839.753 1.179.912.099.046.164.072.196.078.003-.007 0-.02-.007-.042z"/>
    </g>
</svg>
