<svg xmlns="http://www.w3.org/2000/svg" xmlns:xlink="http://www.w3.org/1999/xlink" width="1440" height="338" viewBox="0 0 1440 338">
    <defs>
        <path id="a" d="M660.647 223.964V.926H.702v223.038z"/>
        <path id="c" d="M.581.72v403.4h437.446V.72z"/>
    </defs>
    <g fill="none" fill-rule="evenodd">
        <path fill="#FFF" fill-opacity=".65" d="M1455 327.533c-8.025-7.885-16.265-15.366-24.602-22.69a794.904 794.904 0 0 0-25.345-21.344c-17.083-13.876-34.598-26.914-52.435-39.213-35.685-24.543-72.82-45.963-111.38-62.443-19.277-8.223-38.909-15.186-58.834-20.49-19.92-5.298-40.141-8.935-60.482-10.374-20.337-1.453-40.783-.639-60.996 2.542-20.217 3.162-40.18 8.681-59.657 16.119-19.487 7.425-38.487 16.745-57.048 27.212-18.569 10.468-36.675 22.151-54.68 34.027-18.008 11.882-35.89 24.06-54.129 35.362-9.091 5.725-18.343 11.032-27.655 16.163l-7.05 3.652c-2.349 1.223-4.697 2.444-7.09 3.524l-7.145 3.353c-2.39 1.09-4.82 2.035-7.227 3.057-19.276 8.135-39.413 13.178-59.743 14.332-5.082.245-10.174.231-15.26.36l-7.632.141c-2.543-.004-5.086-.12-7.63-.175-5.086-.166-10.176-.21-15.258-.48l-15.24-1.123c-20.288-1.92-40.514-5.271-60.388-10.787-1.243-.34-2.49-.653-3.73-1.014l-3.698-1.177-7.397-2.356-7.322-2.697c-1.215-.466-2.448-.872-3.652-1.386l-3.616-1.526c-2.412-1.014-4.83-2.008-7.195-3.184-2.377-1.134-4.768-2.224-7.096-3.512l-3.514-1.867-3.457-2.022c-2.295-1.37-4.562-2.824-6.754-4.443 2.19 1.62 4.457 3.077 6.75 4.453l3.457 2.025 3.51 1.873c2.329 1.29 4.72 2.382 7.095 3.52 2.366 1.18 4.782 2.177 7.194 3.194l3.615 1.531c1.205.516 2.436.923 3.652 1.39l7.321 2.708 7.396 2.363 3.698 1.184c1.239.364 2.486.678 3.73 1.018 19.872 5.544 40.1 8.921 60.393 10.868l15.242 1.143c5.084.276 10.174.327 15.262.5 2.544.059 5.088.178 7.632.184l7.634-.131c5.088-.123 10.18-.101 15.265-.341 20.35-1.129 40.515-6.152 59.814-14.268 2.41-1.022 4.843-1.965 7.236-3.052l7.152-3.346c2.397-1.078 4.748-2.298 7.1-3.518l7.058-3.646c9.32-5.121 18.583-10.42 27.681-16.135 18.257-11.284 36.15-23.44 54.165-35.297 18.013-11.852 36.122-23.508 54.686-33.945 18.557-10.436 37.545-19.72 57.013-27.112 19.46-7.403 39.395-12.889 59.58-16.02 20.183-3.149 40.593-3.935 60.893-2.46 40.641 2.96 80.646 14.533 119.108 30.972 38.498 16.508 75.575 37.95 111.202 62.513 17.808 12.31 35.294 25.356 52.348 39.24a794.133 794.133 0 0 1 25.298 21.351c8.316 7.321 16.553 14.814 24.532 22.672l.625-.972z"/>
        <path fill="#FFF" fill-opacity=".05" d="M1536.942 225.337l14.909-27.553c3.713-7.218 6.805-13.475 8.666-17.777l1.613-3.577c.614-1.317.91-2.124 1.26-3.02l1.037-2.664.666-2.073c.208-.668.492-1.459.573-1.926.134-.549.26-1.09.296-1.482.172-.948.128-1.55-.004-2.008a65.792 65.792 0 0 0-5.16-7.817c-3.72-4.78-7.805-8.975-12.418-12.262-4.607-3.301-9.644-5.824-15.022-7.68-2.724-.866-5.45-1.71-8.306-2.292l-4.238-.94c-1.437-.259-2.875-.511-4.331-.73-5.787-.934-11.593-1.71-17.227-2.703-5.728-.827-11.195-2.038-16.424-3.642-5.255-1.557-10.278-3.509-15.011-6.012l-3.558-1.857-3.599-1.762-7.147-3.586c-2.389-1.168-4.716-2.46-7.101-3.62-2.395-1.144-4.759-2.346-7.126-3.531-2.372-1.171-4.717-2.396-7.06-3.618-2.336-1.234-4.715-2.374-7.063-3.571-4.72-2.344-9.35-4.863-14.016-7.287a618.078 618.078 0 0 1-13.967-7.29c-18.609-9.675-37.203-19.217-56.21-27.35-2.348-1.102-4.76-1.996-7.144-2.975l-7.152-2.93-7.147-2.93-7.217-2.666c-4.812-1.772-9.602-3.597-14.426-5.311l-7.273-2.462c-2.426-.815-4.837-1.664-7.3-2.38-4.904-1.507-9.763-3.124-14.74-4.424l-7.42-2.08-7.504-1.844-3.749-.932-3.79-.815c-2.53-.533-5.05-1.098-7.588-1.598-5.113-.887-10.202-1.85-15.389-2.46-10.327-1.382-20.816-2.198-31.433-2.074-10.607.15-21.337 1.134-31.917 3.158a196.308 196.308 0 0 0-31.147 8.749c-2.561.944-5.103 1.991-7.642 3.033-2.51 1.134-5.054 2.178-7.53 3.402-4.997 2.33-9.875 4.932-14.663 7.653-9.574 5.442-18.624 11.52-27.33 17.63-4.327 3.06-8.613 6.136-12.804 9.188l-3.157 2.3-3.24 2.426-6.473 4.851c-17.213 13.042-34.066 27.695-49.78 43.914-7.927 8-15.432 16.454-22.764 24.811l-21.416 24.81c-7.026 8.09-14.008 15.974-21.147 23.59-1.767 1.942-3.598 3.747-5.394 5.63-1.811 1.854-3.597 3.757-5.43 5.575l-5.52 5.427c-1.839 1.81-3.664 3.618-5.621 5.464l-23.005 22.005c-7.644 7.299-15.27 14.542-22.93 21.583-7.653 7.052-15.347 13.926-23.135 20.364-7.803 6.408-15.678 12.502-23.787 17.687-4.051 2.594-8.15 5.028-12.316 7.113-4.164 2.102-8.38 4.015-12.669 5.486-4.286 1.49-8.63 2.713-13.033 3.5-4.403.766-8.858 1.199-13.345 1.218-4.488 0-8.995-.44-13.498-1.15-4.494-.8-8.965-1.996-13.41-3.468-4.437-1.521-8.8-3.472-13.125-5.63-4.309-2.214-8.543-4.742-12.696-7.526-4.133-2.833-8.211-5.855-12.184-9.13a233.002 233.002 0 0 1-11.627-10.47c-7.572-7.354-14.786-15.399-21.688-23.892-13.838-16.968-26.408-35.67-38.72-54.614-6.176-9.46-12.312-18.976-18.618-28.323-6.31-9.337-12.792-18.525-19.909-26.927-3.567-4.18-7.344-8.113-11.465-11.439-2.074-1.627-4.217-3.154-6.512-4.274-2.281-1.129-4.673-2.044-7.156-2.268-4.943-.548-10.073 1.328-13.958 5.414-1.95 2.019-3.557 4.529-4.863 7.22-1.312 2.696-2.348 5.567-3.262 8.471-1.83 5.817-3.179 11.785-4.742 17.62-1.549 5.836-3.264 11.583-5.522 16.949-2.224 5.382-5.036 10.328-8.373 14.583a49.864 49.864 0 0 1-11.413 10.504c-2.101 1.33-4.262 2.495-6.49 3.385-2.237.85-4.507 1.565-6.825 1.927-2.314.379-4.648.595-6.993.534-4.687-.303-5.859-.376-7.028-.581-4.681-.692-9.339-1.855-13.972-3.213-4.636-1.358-9.257-2.871-13.879-4.418-9.237-3.132-18.502-6.287-27.854-9.025a342.217 342.217 0 0 0-14.075-3.85c-4.707-1.219-9.452-2.147-14.176-3.263-9.485-1.884-19.002-3.625-28.573-4.713-4.778-.668-9.574-1.008-14.367-1.49-4.798-.3-9.597-.689-14.402-.827-19.218-.876-38.49.042-57.64 2.032-4.794.514-9.548 1.016-14.332 1.659-4.791.704-9.597 1.269-14.387 2.091-9.57 1.729-19.152 3.663-28.62 6.495-9.48 2.698-18.894 6.088-28.086 9.82-4.596 1.852-9.154 3.683-13.657 5.361-2.253.827-4.475 1.54-6.714 2.292-2.217.56-4.43 1.262-6.637 1.68l-4.944.846c-3.848.215-6.022.485-8.23.255l-4.932-.344c-3.857-.669-6.031-.872-8.244-1.543-2.205-.597-4.401-1.058-6.583-1.81l-6.52-2.32c-1.09-.343-2.15-.859-3.214-1.332l-3.18-1.451c-1.056-.49-2.119-.943-3.166-1.46l-3.103-1.7-3.093-1.688c-.342-.19-1.359-.796-3.05-1.815l-6.013-3.84-5.855-4.246c-.982-.675-1.93-1.456-2.88-2.23l-2.848-2.3a217.718 217.718 0 0 1-21.714-20.645c-6.905-7.574-13.424-15.897-19.564-24.917a220.408 220.408 0 0 1-4.55-6.893c-1.503-2.304-2.981-4.71-4.453-7.13-1.478-2.379-2.924-4.876-4.4-7.355-.725-1.227-1.485-2.509-2.152-3.727l-1.98-3.633c-1.307-2.444-2.607-4.828-3.863-7.346l-3.754-7.493c-1.23-2.507-2.4-5.143-3.596-7.694-1.183-2.571-2.388-5.106-3.504-7.777l-3.381-7.905a503.39 503.39 0 0 1-3.254-8.052 481.2 481.2 0 0 1-6.18-16.387A555.68 555.68 0 0 1-.117 18.042C-1.772 12.236-3.383 6.397-4.865.418L-7.127-8.68c-.388-1.597-.691-3.06-1.212-4.874l-.712-2.614c-.6-1.492-1.279-3.078-1.943-4.607l-81.249 88.196c2.653.793 3.785 1.81 4.837 2.688l3.181 2.837 3.216 2.892c4.32 3.877 8.543 7.86 12.803 11.797l25.273 23.689c8.448 7.81 16.74 15.676 25.276 23.267l3.164 2.868 3.203 2.84c2.145 1.882 4.23 3.787 6.41 5.625l6.445 5.579c2.127 1.863 4.391 3.612 6.549 5.438l3.252 2.721 3.146 2.537c2.062 1.69 4.157 3.353 6.242 5.105l12.542 10.517c8.392 7.08 16.78 14.316 25.458 21.107 8.682 6.78 17.674 13.074 27.047 18.358l3.526 1.947c1.172.649 2.34 1.308 3.554 1.857l7.203 3.415 7.332 2.934c2.443.943 3.07 1.126 3.69 1.33l3.722 1.183c9.949 3.04 19.956 5.095 30.146 5.66 2.51.313 5.125.162 7.685.177 2.555.073 5.155-.253 7.733-.505 5.157-.504 10.28-1.768 15.236-3.32 1.264-.324 2.437-.896 3.66-1.318l3.628-1.372c2.33-1.055 4.702-2.047 6.997-3.11l6.81-3.238c2.235-1.072 4.487-2.177 6.716-3.188 2.227-1.012 4.455-2.069 6.687-3.045l6.7-2.874c4.503-1.712 8.989-3.535 13.557-4.96 9.08-3.138 18.345-5.423 27.647-7.52 4.656-1.008 9.354-1.765 14.034-2.662 4.698-.84 9.453-1.552 14.164-2.264 18.875-2.79 37.823-4.52 56.816-4.484 4.748-.074 9.492.16 14.24.273 4.741.302 9.493.46 14.227.948 9.487.723 18.935 2.1 28.37 3.615l7.054 1.356c2.352.446 4.704.907 7.045 1.445a339.126 339.126 0 0 1 14.029 3.413c9.332 2.449 18.605 5.318 27.904 8.184 9.299 2.836 18.627 5.894 28.274 7.16 4.84.399 6.05.51 7.269.46 2.434.016 4.875-.253 7.29-.697 2.425-.427 4.804-1.221 7.137-2.159 2.33-.975 4.573-2.245 6.753-3.662 4.319-2.914 8.338-6.599 11.822-11.036 3.458-4.461 6.357-9.641 8.62-15.205 2.299-5.55 4.016-11.432 5.55-17.328 1.544-5.895 2.864-11.861 4.625-17.55 1.77-5.636 4.06-11.136 7.668-14.854 3.568-3.742 8.29-5.461 12.842-4.947 2.294.208 4.542 1.072 6.708 2.148 2.18 1.065 4.243 2.541 6.25 4.12 3.992 3.233 7.698 7.096 11.213 11.23 7.02 8.307 13.377 17.562 19.614 26.922 6.224 9.385 12.294 18.96 18.412 28.493 12.252 19.046 24.62 38.03 37.975 55.951 13.37 17.866 27.746 34.786 44.211 48.545 4.139 3.379 8.373 6.608 12.74 9.592a141.864 141.864 0 0 0 13.533 7.975c4.65 2.319 9.411 4.367 14.286 6.003 4.88 1.593 9.845 2.912 14.892 3.739 5.047.79 10.158 1.23 15.29 1.217 5.132-.024 10.262-.547 15.354-1.401 5.098-.838 10.121-2.162 15.078-3.733 4.967-1.553 9.823-3.48 14.61-5.583 9.575-4.226 18.798-9.288 27.738-14.822 8.967-5.489 17.616-11.488 26.156-17.6 17.04-12.303 33.474-25.321 49.77-38.34 2.017-1.592 4.112-3.329 6.2-5.051l6.261-5.164c2.082-1.734 4.117-3.555 6.179-5.332 2.045-1.802 4.137-3.541 6.146-5.4 4.036-3.687 8.12-7.336 12.062-11.13 4.002-3.748 7.9-7.55 11.782-11.386l22.735-22.653c7.472-7.323 14.864-14.424 22.364-21.063 3.717-3.416 7.548-6.542 11.33-9.77 1.884-1.625 3.842-3.106 5.758-4.667 1.933-1.527 3.83-3.114 5.789-4.595 7.824-5.938 15.747-11.693 23.866-17.14l6.112-4.046 3.053-2.023 3.18-2.041c4.257-2.734 8.448-5.38 12.622-7.979 8.325-5.125 16.478-9.882 24.547-13.97 8.085-4.03 16.095-7.546 24.286-10.258 8.16-2.719 16.6-4.88 24.937-6.341 16.63-2.965 33.606-2.812 50.973-.307 17.326 2.44 34.9 7.352 52.302 13.746 2.177.758 4.35 1.66 6.521 2.524l6.516 2.598c4.326 1.842 8.621 3.86 12.93 5.773 2.151.97 4.305 1.928 6.443 2.949l6.367 3.255c4.239 2.192 8.502 4.262 12.683 6.64l12.518 7.164c2.093 1.161 4.145 2.466 6.2 3.757l6.16 3.868 6.145 3.888 6.062 4.135c4.014 2.83 8.066 5.523 11.995 8.558 15.843 11.784 30.718 25.907 44.565 41.635 6.855 7.993 13.92 15.51 19.428 25.93 2.742 5.234 5.245 10.86 7.489 16.87 1.147 2.963 2.176 6.126 3.24 9.192l3.119 9.243c4.03 12.481 8.28 24.032 14.369 32.288 3.017 4.177 6.41 7.703 10.253 10.503 1.928 1.387 3.886 2.745 6.035 3.797 1.66-.7 2.02-.996 2.386-1.303.315-.225.83-.773 1.27-1.198l1.364-1.345 1.736-1.935c.582-.653 1.111-1.217 1.958-2.29l2.31-2.849c2.792-3.33 6.815-8.616 11.458-14.861l17.701-24.638 17.644-28.042z"/>
        <path fill="#FFF" fill-opacity=".4" d="M373.974 247.104l-13.967 6.212c-4.665 2.033-9.28 4.261-14.017 6l-14.131 5.534-3.533 1.383-3.569 1.21-7.142 2.4-7.143 2.397-3.572 1.186-3.607 1.002-14.424 4c-1.197.362-2.41.621-3.623.875l-3.637.787-7.271 1.572-3.636.785-1.817.394-1.83.283-7.32 1.113c-19.497 2.977-39.228 3.906-58.754 1.49l-7.312-.984c-1.224-.123-2.426-.436-3.635-.685l-3.625-.78-3.624-.78c-1.205-.284-2.425-.458-3.612-.861l-7.154-2.14c-1.19-.37-2.391-.681-3.571-1.1l-3.517-1.36c-2.341-.922-4.698-1.775-7.025-2.75-4.576-2.234-9.232-4.207-13.657-6.92-4.525-2.413-8.815-5.464-13.155-8.373-4.272-3.089-8.493-6.38-12.749-9.604-8.509-6.457-17.13-12.796-26.22-18.038-4.544-2.614-9.212-4.938-14.046-6.688-4.822-1.771-9.85-2.932-14.986-2.848-2.565.12-5.144.527-7.661 1.417-2.504.951-4.912 2.37-7.11 4.234-4.392 3.828-7.537 9.567-9.601 15.597-4.046 12.245-4.746 25.321-6.69 37.661-.493 3.083-1.068 6.132-1.896 9.001-.838 2.836-1.903 5.601-3.54 7.505-1.597 1.935-3.726 3.025-5.964 2.986-.56-.059-1.12-.014-1.682-.141l-1.689-.42c-1.105-.48-2.23-.884-3.295-1.59-4.324-2.567-8.221-6.489-11.872-10.654-1.871-2.033-3.567-4.333-5.346-6.512-1.677-2.318-3.423-4.553-5.047-6.942-6.628-9.403-12.716-19.455-18.684-29.619l-.233.219c5.615 10.51 11.524 20.771 17.933 30.535 1.581 2.465 3.309 4.767 4.959 7.16 1.761 2.262 3.433 4.637 5.302 6.769 3.651 4.353 7.546 8.505 12.143 11.412 1.122.786 2.365 1.29 3.587 1.85l1.928.54c.646.165 1.328.152 1.993.23.669.047 1.35-.118 2.025-.182a13.946 13.946 0 0 0 1.985-.676c.623-.373 1.287-.649 1.85-1.175.29-.242.588-.47.868-.728l.78-.865c2.07-2.374 3.28-5.522 4.228-8.588.931-3.103 1.558-6.276 2.101-9.438 1.067-6.331 1.78-12.657 2.76-18.866.966-6.2 2.18-12.315 4.129-17.94 1.942-5.597 4.765-10.63 8.606-13.957a21.686 21.686 0 0 1 6.269-3.693c2.242-.776 4.575-1.136 6.926-1.237 4.722-.061 9.494.944 14.141 2.631 4.658 1.65 9.218 3.879 13.683 6.41 8.952 5.031 17.545 11.206 26.073 17.541 4.27 3.168 8.514 6.407 12.866 9.488 4.426 2.9 8.805 5.943 13.413 8.337 4.504 2.707 9.235 4.665 13.885 6.882 2.361.966 4.752 1.81 7.127 2.718l3.567 1.341c1.197.414 2.413.717 3.618 1.08l7.246 2.094c1.201.395 2.436.561 3.653.836l3.665.753 3.664.752c1.223.24 2.438.544 3.674.656l7.38.922c19.703 2.25 39.538 1.122 59.098-2.054l7.34-1.21 1.833-.308 1.822-.417 3.641-.835 7.283-1.67 3.64-.835c1.215-.27 2.43-.547 3.628-.922l14.427-4.195 3.606-1.049 3.57-1.234 7.137-2.492 7.135-2.493 3.565-1.257 3.527-1.429 14.103-5.718c4.727-1.803 9.33-4.09 13.982-6.184l13.926-6.392-.1-.352z"/>
        <g transform="matrix(-1 0 0 1 507.51 31.335)">
            <mask id="b" fill="#fff">
                <use xlink:href="#a"/>
            </mask>
            <path fill="#FFF" fill-opacity=".15" d="M660.476 7.314c-7.251-.301-14.51-.337-21.755.085-7.24.47-14.466 1.318-21.642 2.633a162.126 162.126 0 0 0-42.045 13.785c-6.791 3.275-13.411 7.112-19.842 11.422-6.434 4.311-12.627 9.244-18.929 14.147-6.29 4.914-12.83 9.59-19.687 13.344-1.713.94-3.458 1.778-5.184 2.671l-5.267 2.351-5.326 2.073a94.168 94.168 0 0 1-5.412 1.781c-7.298 2.154-14.739 2.983-22.103 3.352-7.375.363-14.73.26-22.073-.003-14.682-.55-29.309-1.8-43.929-3.253-14.615-1.513-29.22-3.385-43.762-5.93-7.268-1.275-14.523-2.72-21.75-4.238-7.229-1.488-14.432-3.004-21.668-3.765-7.236-.79-14.511-.73-21.781-.176-3.638.222-7.267.693-10.898 1.11-1.815.227-3.622.543-5.433.81l-2.714.42-2.706.515c-7.223 1.307-14.395 3.076-21.508 5.177a246.268 246.268 0 0 0-21.15 7.315c-13.975 5.518-27.604 12.445-41.233 19.373-13.606 6.954-26.96 14.722-39.844 23.695a331.784 331.784 0 0 0-18.948 14.31c-6.196 5.04-12.216 10.43-18.148 15.979-5.909 5.592-11.636 11.5-17.25 17.59-5.622 6.079-11.143 12.344-16.975 18.124-11.658 11.616-24.806 20.457-38.404 27.485-13.65 6.933-27.919 11.74-42.408 14.468 14.475-2.857 28.707-7.787 42.297-14.831 13.542-7.138 26.605-16.074 38.149-27.741 5.78-5.81 11.26-12.113 16.858-18.25 5.589-6.15 11.302-12.128 17.199-17.788 5.919-5.617 11.93-11.078 18.118-16.188a334.23 334.23 0 0 1 18.94-14.532c12.881-9.12 26.255-17.041 39.86-24.132 13.596-7.053 27.228-14.122 41.255-19.799a248.5 248.5 0 0 1 21.246-7.55c7.15-2.179 14.367-4.026 21.64-5.407l2.724-.544 2.735-.447c1.825-.286 3.645-.621 5.472-.866 3.66-.453 7.315-.96 10.99-1.219 7.338-.623 14.74-.753 22.102-.015 7.368.711 14.641 2.178 21.876 3.602 7.237 1.455 14.463 2.827 21.712 4.032 14.492 2.406 29.05 4.142 43.632 5.52 14.585 1.32 29.194 2.437 43.787 2.855 7.295.197 14.59.233 21.844-.19 7.252-.426 14.464-1.306 21.445-3.432 6.985-2.18 13.921-5.1 20.522-8.799 6.621-3.699 12.92-8.268 19.146-13.204 6.23-4.924 12.503-9.999 19.062-14.468 6.555-4.47 13.312-8.456 20.23-11.862A166.233 166.233 0 0 1 616.428 4.24c7.316-1.409 14.681-2.34 22.06-2.884 7.384-.495 14.774-.525 22.158-.283l-.17 6.24z" mask="url(#b)"/>
        </g>
        <path fill="#FFF" fill-opacity=".25" d="M1500.496 86.34c-13.253 7.763-26.909 14.389-40.937 19.225-14.02 4.8-28.449 7.789-42.921 7.809-7.228-.02-14.463-.68-21.571-2.33a92.652 92.652 0 0 1-20.831-7.47 94.471 94.471 0 0 1-19.15-12.915c-6.01-5.16-11.438-11.394-16.388-18.207a171.534 171.534 0 0 1-7.015-10.732 299.037 299.037 0 0 1-6.447-11.396c-4.187-7.731-8.172-15.718-12.791-23.217-2.31-3.741-4.785-7.353-7.526-10.642-2.73-3.3-5.782-6.201-9.063-8.565-6.579-4.694-14.026-7.317-21.552-7.287-7.541-.002-14.92 2.815-21.56 7.087-6.666 4.295-12.704 9.914-18.406 15.937-5.682 6.07-11.03 12.603-16.224 19.31-5.187 6.715-10.226 13.602-15.22 20.534-9.975 13.875-19.798 27.9-29.882 41.595-10.075 13.703-20.393 27.099-31.127 39.911-10.732 12.812-21.863 25.061-33.468 36.509-11.612 11.432-23.657 22.131-36.157 31.856-24.98 19.498-51.7 35.178-79.324 47.265-13.814 6.039-27.866 11.176-42.085 15.347-14.219 4.171-28.61 7.375-43.102 9.4-14.487 2.029-29.084 2.897-43.637 2.06-7.27-.458-14.533-1.289-21.712-2.803a110.138 110.138 0 0 1-10.695-2.746 88.14 88.14 0 0 1-10.46-3.92c-6.84-3.081-13.498-7.09-19.259-12.76-2.87-2.832-5.494-6.09-7.681-9.788-2.194-3.689-3.894-7.85-5.05-12.253-1.147-4.41-1.72-9.073-1.764-13.752-.06-4.68.327-9.368.976-13.995 1.298-9.27 3.647-18.258 6.015-27.214 2.341-8.965 4.934-17.915 6.14-27.4.567-4.72.69-9.67-.33-14.391l-.182-.884-.267-.85-.536-1.7c-.22-.54-.473-1.06-.707-1.591-.24-.528-.463-1.071-.78-1.527a18.203 18.203 0 0 0-4.1-5.004c-3.228-2.647-7.111-3.408-10.794-3.222-3.71.224-7.339 1.228-10.868 2.534-7.062 2.668-13.798 6.457-20.447 10.397-13.266 7.998-26.184 16.86-39.25 25.324-13.05 8.506-26.204 16.737-39.598 24.274-26.758 15.089-54.536 27.44-83.195 34.74a260.411 260.411 0 0 1-21.6 4.582 239.702 239.702 0 0 1-21.796 2.565c-3.642.291-7.29.411-10.937.532l-5.471.061c-1.825-.015-3.648-.12-5.472-.174-3.646-.163-7.297-.204-10.94-.465l-10.912-1.113c-14.52-1.888-28.96-4.916-43.154-9.365-14.175-4.538-28.123-10.249-41.746-17.068-13.629-6.805-26.92-14.75-39.799-23.69-12.887-8.92-25.387-18.78-37.46-29.452 12.056 10.705 24.543 20.6 37.418 29.556 12.868 8.976 26.15 16.961 39.775 23.804 13.62 6.86 27.567 12.611 41.747 17.192 14.2 4.49 28.65 7.561 43.184 9.49l10.926 1.143c3.647.271 7.301.322 10.952.494 1.827.06 3.653.17 5.48.19l5.48-.047c3.653-.11 7.306-.221 10.953-.502a239.99 239.99 0 0 0 21.834-2.513 260.063 260.063 0 0 0 21.642-4.53c28.717-7.235 56.56-19.533 83.378-34.57 13.421-7.512 26.605-15.716 39.674-24.192 13.085-8.432 26.02-17.26 39.263-25.203 6.635-3.91 13.352-7.663 20.33-10.278 3.487-1.282 7.054-2.251 10.645-2.458 3.57-.171 7.231.583 10.227 3.052a17.084 17.084 0 0 1 3.823 4.69c.3.426.504.937.728 1.43.218.497.454.983.66 1.488l.499 1.594.25.795.168.836c.954 4.443.845 9.204.282 13.818-1.191 9.272-3.78 18.188-6.14 27.148-2.384 8.96-4.766 17.999-6.101 27.41-.666 4.697-1.071 9.48-1.016 14.288.038 4.802.62 9.627 1.8 14.204 1.19 4.57 2.952 8.896 5.216 12.717 2.256 3.83 4.954 7.19 7.892 10.1 5.896 5.826 12.658 9.91 19.583 13.051a89.284 89.284 0 0 0 10.572 3.994 111.62 111.62 0 0 0 10.786 2.8c7.236 1.545 14.546 2.4 21.859 2.882 14.636.879 29.301.046 43.852-1.952 14.555-1.993 29.006-5.173 43.284-9.32 14.279-4.15 28.39-9.267 42.267-15.292a370.643 370.643 0 0 0 79.734-47.254c12.574-9.737 24.692-20.455 36.373-31.906 11.676-11.469 22.874-23.739 33.666-36.57 10.794-12.832 21.166-26.242 31.283-39.947 10.128-13.696 19.983-27.71 29.964-41.537 4.995-6.905 10.03-13.757 15.198-20.42 5.172-6.651 10.485-13.112 16.093-19.079 5.626-5.918 11.55-11.395 17.994-15.523 6.424-4.109 13.435-6.742 20.549-6.722 7.095-.017 14.192 2.506 20.385 6.953 6.246 4.445 11.374 11.16 15.853 18.471 4.5 7.332 8.46 15.296 12.66 23.087a302.657 302.657 0 0 0 6.505 11.548 174.002 174.002 0 0 0 7.141 10.97c5.055 6.99 10.63 13.419 16.801 18.741a97.103 97.103 0 0 0 19.634 13.31 94.947 94.947 0 0 0 21.321 7.71c7.271 1.706 14.661 2.4 22.031 2.44 14.759.017 29.422-2.989 43.633-7.812 14.218-4.861 28.027-11.524 41.407-19.318l-1.182-3.416z"/>
        <path fill="#FFF" fill-opacity=".15" d="M1592.485 118.528c-18.906-21.146-40.855-38.313-64.878-48.136-2.977-1.31-6.035-2.28-9.06-3.383l-4.596-1.377-2.299-.679-2.32-.558c-6.169-1.592-12.448-2.547-18.744-3.028-1.577-.08-3.149-.275-4.729-.257l-4.733-.049c-3.154.136-6.31.236-9.45.632-6.28.707-12.53 1.88-18.659 3.651-6.132 1.752-12.166 3.944-18.1 6.45-5.922 2.548-11.735 5.418-17.476 8.458-11.46 6.145-22.598 13.034-33.622 20.082-22.033 14.136-43.776 28.673-66.016 41.831-22.3 13.064-44.696 26.084-67.225 38.435-22.542 12.333-45.314 23.937-68.542 33.673-23.214 9.732-46.908 17.618-71.008 22.136-24.077 4.535-48.573 5.586-72.74 2.018-24.145-3.567-47.983-11.421-70.116-24.518-11.094-6.49-21.736-14.258-32.563-21.822-10.812-7.55-22.049-14.623-34.01-19.09-11.935-4.548-24.36-6.498-36.709-6.788-1.545-.034-3.089.006-4.634.005l-2.316.019-2.314.157-9.252.633-9.208 1.402c-.766.132-1.538.21-2.298.383l-2.28.553-4.557 1.106c-12.13 3.134-23.913 8.264-35.204 14.643-11.31 6.356-22.184 13.79-33.113 20.965-10.93 7.17-21.912 14.183-33.247 20.13-1.398.802-2.833 1.488-4.26 2.193l-4.282 2.118-4.287 2.11-4.346 1.886c-2.905 1.23-5.78 2.581-8.71 3.713-2.933 1.104-5.86 2.251-8.803 3.32-11.794 4.192-23.806 7.309-35.902 9.62-12.094 2.41-24.32 3.556-36.545 4.125-24.466.864-49.003-1.423-73.178-6.595-24.178-5.172-48.014-12.934-71.38-22.566 23.31 9.855 47.112 17.849 71.291 23.26 24.175 5.41 48.748 7.94 73.297 7.306 12.267-.453 24.545-1.487 36.705-3.79 12.162-2.205 24.252-5.224 36.133-9.324 2.965-1.047 5.913-2.173 8.872-3.255 2.951-1.11 5.851-2.44 8.78-3.65l4.384-1.858 4.322-2.08 4.321-2.088c1.44-.697 2.888-1.373 4.298-2.167 11.438-5.874 22.519-12.82 33.507-19.896 10.987-7.083 21.87-14.387 33.1-20.571 11.216-6.208 22.832-11.135 34.769-14.102l4.485-1.046 2.242-.523c.748-.162 1.509-.232 2.262-.353l9.06-1.293 9.113-.535 2.278-.135 2.28.005c1.52.015 3.04-.01 4.56.037 12.14.404 24.254 2.43 35.847 6.967 11.619 4.462 22.55 11.456 33.26 19.067 10.717 7.618 21.425 15.574 32.658 22.276a194.365 194.365 0 0 0 17.144 9.172c2.896 1.413 5.843 2.632 8.776 3.903 2.964 1.143 5.909 2.377 8.903 3.376 11.925 4.237 24.097 7.239 36.366 9.176 24.554 3.863 49.47 3.03 73.918-1.338 24.473-4.35 48.493-12.108 71.974-21.704 23.498-9.603 46.483-21.066 69.188-33.235 22.714-12.198 45.149-24.985 67.616-37.888 22.462-13.034 44.411-27.443 66.415-41.3 11.008-6.907 22.058-13.608 33.296-19.507 5.626-2.916 11.292-5.652 17.021-8.056 5.738-2.361 11.531-4.403 17.381-6.018 5.848-1.633 11.765-2.68 17.696-3.29 2.965-.35 5.939-.409 8.91-.513l4.46.088c1.487-.005 2.97.199 4.454.286 5.932.512 11.853 1.464 17.699 3.033l2.198.549 2.179.668 4.355 1.347c2.868 1.08 5.766 2.02 8.588 3.297 22.763 9.55 43.606 26.076 61.691 46.602 1.799 2.042 4.532 1.803 6.105-.533 1.573-2.338 1.389-5.887-.411-7.93l-.023-.026-.012-.012z"/>
    </g>
</svg>
