<svg xmlns="http://www.w3.org/2000/svg" width="62" height="44" viewBox="0 0 62 44">
    <path fill="#FFF" fill-rule="evenodd" d="M53.42 26.002c-.524.328-1.036.663-1.535 1.007-.5.344-1.003.687-1.51 1.031.13.131.237.278.32.442.08.164.212.311.392.442.098.082.184.164.258.246.073.081.151.163.233.245.475.622.59 1.285.344 1.989-.066.164-.127.327-.184.491-.058.164-.12.32-.185.467-.065.114-.122.229-.171.343-.05.115-.115.221-.197.32-.393.638-.99 1.03-1.792 1.178a4.147 4.147 0 0 1-.442.074 3.16 3.16 0 0 0-.418.073c-.736.197-1.317.63-1.743 1.302-.573.933-1.432 1.424-2.578 1.473a2.838 2.838 0 0 1-.59-.012 14.598 14.598 0 0 1-.589-.086.171.171 0 0 1-.073-.012.171.171 0 0 0-.074-.013 1.19 1.19 0 0 0-.147.172 4.544 4.544 0 0 1-.504.761c-.188.23-.397.45-.626.663a3.179 3.179 0 0 1-1.645.712c-.164.033-.294.05-.393.05-.13-.017-.253.032-.368.147a8.295 8.295 0 0 0-.295.258c-.098.09-.188.184-.27.282-.18.229-.364.45-.552.663a3.722 3.722 0 0 1-.626.565c-.279.196-.56.351-.847.466a2.16 2.16 0 0 1-.921.147 4.87 4.87 0 0 1-.59-.086 1.688 1.688 0 0 1-.564-.233 5.174 5.174 0 0 1-1.093-.675 3.71 3.71 0 0 1-.847-.97 4.608 4.608 0 0 0-.712-.835l-.172.172c-.213.262-.43.512-.65.749-.221.237-.438.487-.651.749-.18.213-.368.421-.565.626a13.44 13.44 0 0 0-.565.626 5.078 5.078 0 0 1-.81.7 3.747 3.747 0 0 1-.957.479c-.819.278-1.596.204-2.333-.221a3.71 3.71 0 0 1-.933-.786 5.642 5.642 0 0 1-.663-1.007.73.73 0 0 0-.11-.196.73.73 0 0 1-.111-.197c-.033-.098-.078-.16-.135-.184a1.047 1.047 0 0 0-.233-.061c-.377 0-.737-.05-1.08-.147-.786-.197-1.392-.622-1.818-1.277a5.355 5.355 0 0 1-.54-.884 1.002 1.002 0 0 0-.307-.405 2.565 2.565 0 0 0-.454-.258.342.342 0 0 0-.147-.025c-.491 0-.933-.147-1.326-.442a5.12 5.12 0 0 1-.332-.257l-.331-.283a47.948 47.948 0 0 1-.32-.368 47.948 47.948 0 0 0-.319-.368 3.163 3.163 0 0 0-1.497-.982l-.442-.148c-.148-.049-.303-.098-.467-.147a4.11 4.11 0 0 0-.43-.209 2.712 2.712 0 0 1-.405-.209 2.244 2.244 0 0 1-.884-.908 2.2 2.2 0 0 1-.196-.393 7.62 7.62 0 0 0-.172-.417 2.002 2.002 0 0 1-.123-.798c.017-.254.074-.52.172-.798.082-.23.18-.434.295-.614.114-.18.237-.36.368-.54l.233-.283.234-.282-2.063-2.21a277.597 277.597 0 0 1-2.062-2.234c-.082.13-.168.25-.258.356-.09.106-.176.225-.258.356-.458.851-1.088 1.506-1.89 1.964a4.194 4.194 0 0 1-3.02.368 4.233 4.233 0 0 1-1.45-.7c-.458-.335-.842-.79-1.153-1.362a4.312 4.312 0 0 1-.504-1.436 4.926 4.926 0 0 1 .013-1.51c.081-.475.155-.946.22-1.412.066-.467.14-.93.222-1.388.098-.573.2-1.141.306-1.706.107-.565.201-1.134.283-1.707l.442-2.406c.147-.802.294-1.596.442-2.382.098-.572.2-1.145.307-1.718.106-.573.208-1.146.307-1.719.098-.606.2-1.207.307-1.805.106-.597.208-1.182.306-1.755.099-.54.221-1.089.369-1.645a3.36 3.36 0 0 1 .405-.884A4.88 4.88 0 0 1 5.823.516c.45-.23.937-.385 1.46-.467C7.513.016 7.738 0 7.96 0c.22 0 .437.04.65.123.819.278 1.498.687 2.038 1.227.54.54.933 1.228 1.179 2.063.082.311.118.618.11.92-.008.304-.028.619-.061.946-.016.115-.029.23-.037.344a2.16 2.16 0 0 1-.061.368h.294c.819 0 1.633-.004 2.443-.012s1.633-.004 2.468.012c.426.016.851.029 1.277.037.425.008.851.02 1.277.037.556.032 1.113.053 1.67.061.556.008 1.112-.02 1.669-.086.344-.033.687-.073 1.031-.123.344-.049.688-.09 1.031-.122a28.75 28.75 0 0 0 1.179-.123c.393-.05.786-.09 1.179-.123a73.62 73.62 0 0 1 5.193-.209c1.727-.008 3.466.004 5.217.037 1.44.033 2.865.053 4.273.062 1.407.008 2.831.02 4.272.036.425.017.839.017 1.24 0l1.19-.049a.745.745 0 0 0 .222-.024c.13-.017.204-.098.22-.246a3.04 3.04 0 0 1 .123-.54c.033-.049.05-.13.05-.245.032-.328.077-.655.135-.983.057-.327.16-.638.306-.933a4.509 4.509 0 0 1 1.13-1.46c.458-.385 1.015-.651 1.67-.799a4.843 4.843 0 0 1 1.632-.061c.5.074.95.221 1.35.442a4.1 4.1 0 0 1 1.069.847c.31.344.565.72.761 1.13.131.261.233.532.307.81.074.278.143.556.209.835.13.818.274 1.637.43 2.455.155.818.306 1.637.454 2.455.13.704.253 1.412.368 2.124l.344 2.124c.082.475.16.954.233 1.437.074.482.151.961.233 1.436.05.278.103.548.16.81.057.262.118.532.184.81.082.475.168.95.258 1.425.09.474.176.949.258 1.424.049.262.102.52.16.773.056.254.11.512.159.774a6.306 6.306 0 0 1-.025 1.841 5.236 5.236 0 0 1-.638 1.768c-.54.95-1.359 1.588-2.456 1.915a2.93 2.93 0 0 1-.871.11 3.638 3.638 0 0 1-.872-.134 3.885 3.885 0 0 1-.749-.27c-.237-.115-.47-.238-.7-.369a6.3 6.3 0 0 1-.662-.49l-.639-.541-.073-.074zM13.913 27.77a15.41 15.41 0 0 0 .736-.491c.082-.082.148-.14.197-.172.18-.147.356-.303.528-.466.172-.164.356-.328.552-.491.246-.213.532-.393.86-.54.474-.18.916-.205 1.325-.074.23.049.434.135.614.258.18.122.36.257.54.405.262.229.504.466.725.712.22.245.438.507.65.785a.52.52 0 0 0 .369.221c.098.033.188.066.27.099a.58.58 0 0 0 .27.122 4.48 4.48 0 0 1 .528.123c.057.017.127.041.209.074.425.147.818.344 1.178.59.36.245.655.556.884.932.05.131.106.237.172.32.23.409.548.662.958.76.54.164 1.064.385 1.571.663.475.311.863.68 1.166 1.105.303.426.528.9.676 1.424.294.917.057 1.678-.713 2.284h-.024a.528.528 0 0 1-.135.135c-.057.04-.11.086-.16.135-.425.426-.85.839-1.277 1.24-.425.401-.85.814-1.276 1.24a1.716 1.716 0 0 0-.197.22c-.245.377-.245.754 0 1.13.017.033.041.066.074.099a.805.805 0 0 1 .098.122c.147.148.29.287.43.418.139.13.29.254.454.368.393.262.761.246 1.105-.049a1193.867 1193.867 0 0 1 1.645-1.547c.278-.262.557-.52.835-.773.278-.254.548-.504.81-.75a.438.438 0 0 1 .123-.122 1.309 1.309 0 0 0-.172-.184 4.315 4.315 0 0 0-.172-.135 1.553 1.553 0 0 1-.417-.663c-.148-.54.008-.933.466-1.179a.703.703 0 0 1 .737.025 4.636 4.636 0 0 1 .442.393c.033.049.074.106.123.172l.147.196c.049.082.106.131.172.147.524.377 1.015.79 1.473 1.24.458.45.892.921 1.301 1.412l.148.147c.049.05.098.107.147.172.311.262.663.287 1.056.074.147-.082.286-.176.417-.282.131-.107.246-.225.344-.356.13-.148.254-.295.368-.442.115-.148.23-.287.344-.418 0-.033.004-.049.012-.049s.013-.008.013-.024a.877.877 0 0 0-.246-.246c-.802-.802-1.6-1.604-2.394-2.406a95.192 95.192 0 0 1-2.345-2.456 1.497 1.497 0 0 1-.344-1.055c0-.23.082-.401.246-.516.23-.164.462-.217.7-.16.237.058.421.152.552.283l.246.245c.851.835 1.698 1.65 2.541 2.443.843.794 1.65 1.633 2.419 2.517a.971.971 0 0 0 .184.184l.184.135c.213.164.425.18.638.05a1.39 1.39 0 0 0 .221-.111c.066-.041.131-.078.197-.11a13.91 13.91 0 0 1 .736-.688.57.57 0 0 0 .086-.11.57.57 0 0 1 .086-.111c.18-.311.188-.59.025-.835a2.528 2.528 0 0 0-.418-.49 39.047 39.047 0 0 1-1.866-1.793 62.167 62.167 0 0 0-1.989-2.087l-.171-.172a.77.77 0 0 1-.148-.197 2.039 2.039 0 0 0-.11-.233 2.039 2.039 0 0 1-.11-.233.691.691 0 0 1 .196-.602c.163-.172.335-.25.515-.233.23.033.45.086.663.16.213.073.41.2.59.38.818.786 1.628 1.576 2.43 2.37a52.73 52.73 0 0 1 2.357 2.492c.066.082.131.147.197.196.065.05.139.098.22.147.328.23.656.238.983.025l.196-.147c.066-.05.123-.098.172-.148.131-.147.25-.294.356-.442.107-.147.217-.294.332-.442a.308.308 0 0 0 .073-.122c.017-.05.041-.09.074-.123.098-.278.082-.524-.049-.737a2.234 2.234 0 0 0-.172-.245 2.99 2.99 0 0 0-.22-.246 1.258 1.258 0 0 0-.21-.208 21.75 21.75 0 0 1-.233-.185c-.49-.474-.982-.94-1.473-1.4a58.436 58.436 0 0 1-1.449-1.399 2.207 2.207 0 0 0-.147-.135.944.944 0 0 1-.147-.16c-.328-.392-.303-.777.073-1.153a.535.535 0 0 1 .418-.197c.196 0 .372.033.528.098.155.066.298.164.43.295.163.131.314.262.454.393a267.01 267.01 0 0 1 2.05 1.878c.54.5 1.064 1.027 1.571 1.584.082.082.156.164.221.245.066.082.14.164.221.246.41.36.835.401 1.277.123.196-.131.389-.278.577-.442.188-.164.364-.336.528-.516.295-.393.303-.785.024-1.178a1.533 1.533 0 0 0-.392-.467 82.302 82.302 0 0 0-1.461-1.473c-.5-.491-.995-.982-1.486-1.473a992.814 992.814 0 0 1-4.113-4.04l-4.088-4.038-.614-.614a1.524 1.524 0 0 0-.54-.393 2.672 2.672 0 0 0-.589-.172 11.218 11.218 0 0 0-1.449-.098c-.458-.033-.908-.05-1.35-.05-.442 0-.884-.008-1.326-.024h-1.571c-.606.033-1.056.278-1.35.737a.527.527 0 0 1-.1.122c-.212.23-.404.467-.576.713-.172.245-.348.499-.528.76-.164.279-.344.553-.54.823-.197.27-.393.536-.59.798-.032.017-.081.074-.147.172a3.816 3.816 0 0 1-1.35 1.252c-.328.213-.68.38-1.056.504a6.19 6.19 0 0 1-1.154.258 6.747 6.747 0 0 1-1.29-.025 4.322 4.322 0 0 1-1.24-.344c-1.063-.49-1.742-1.26-2.037-2.308a3.03 3.03 0 0 1-.123-.86c0-.294.017-.58.05-.859.098-.425.224-.826.38-1.203.155-.376.34-.753.552-1.13.131-.212.25-.42.356-.625.107-.205.225-.405.356-.602.475-.835.942-1.661 1.4-2.48.458-.818.9-1.653 1.326-2.504a.803.803 0 0 1 .049-.086.151.151 0 0 0 .024-.086c.312-.41.565-.86.762-1.35.098-.23.192-.463.282-.7.09-.238.184-.48.282-.725a.198.198 0 0 0 .025-.086c0-.024.008-.053.024-.086H11.457a.109.109 0 0 1-.012.05.109.109 0 0 0-.012.049c-.082.425-.156.839-.221 1.24-.066.4-.14.806-.221 1.215-.131.704-.25 1.408-.356 2.112-.106.704-.225 1.4-.356 2.087-.131.687-.254 1.37-.368 2.05-.115.68-.23 1.363-.344 2.05-.098.524-.2 1.036-.307 1.535-.106.499-.2 1.01-.282 1.534-.033.131-.041.221-.025.27.016.148.05.291.098.43.05.14.131.266.246.38.262.328.54.63.835.91l1.804 2a41.21 41.21 0 0 0 1.854 1.928c.05.016.09.065.123.147zM49.589 7.145H28.252c-.196 0-.41.057-.638.172-.262.213-.45.434-.565.663a82.056 82.056 0 0 0-.835 1.522 1367.23 1367.23 0 0 0-2.48 4.494 563.751 563.751 0 0 0-2.455 4.517 3.756 3.756 0 0 0-.467 1.45c-.049.36-.004.699.135 1.018.14.32.406.569.798.749.557.295 1.17.417 1.842.368a3.41 3.41 0 0 0 1.19-.307 3.836 3.836 0 0 0 1.02-.7c.065-.081.13-.15.196-.208a.54.54 0 0 0 .148-.209c.441-.687.88-1.363 1.313-2.026.434-.663.872-1.33 1.314-2a.803.803 0 0 1 .049-.087.803.803 0 0 0 .049-.086 11.74 11.74 0 0 1 .786-.54 1.21 1.21 0 0 1 .663-.172c.13.017.25.029.356.037.106.008.217.012.331.012.54.033 1.089.058 1.645.074.557.017 1.105.041 1.645.074a36.247 36.247 0 0 1 1.94.147c.18.033.368.057.565.074.196.016.384.033.564.049.328.016.639.09.934.22.261.1.474.246.638.443.033.033.07.074.11.123.041.049.086.098.135.147.622.556 1.236 1.117 1.842 1.682a39.72 39.72 0 0 1 1.768 1.755c.41.393.802.794 1.178 1.204.377.409.762.818 1.154 1.227a413.18 413.18 0 0 0 1.866 1.903c.623.63 1.245 1.265 1.867 1.903.032.033.057.05.073.05.017 0 .041-.017.074-.05.31-.213.614-.417.908-.614.295-.196.598-.4.909-.614.245-.18.487-.352.724-.515.238-.164.479-.336.725-.516.098-.098.155-.18.171-.245.115-.18.148-.401.099-.663l-.369-2.284a167.815 167.815 0 0 1-.601-3.327 194.903 194.903 0 0 0-.602-3.351 412.92 412.92 0 0 0-.601-3.377 599.563 599.563 0 0 0-.627-3.376c-.049-.245-.098-.515-.147-.81zm9.92 16.402v-.197c0-.049-.008-.114-.025-.196-.13-.72-.262-1.436-.393-2.148-.13-.712-.262-1.429-.392-2.149-.131-.786-.266-1.55-.406-2.296-.139-.744-.274-1.501-.405-2.27a98.633 98.633 0 0 1-.368-2.051c-.115-.68-.23-1.363-.344-2.05a164.2 164.2 0 0 0-.405-2.284 217.93 217.93 0 0 1-.405-2.259 31.746 31.746 0 0 1-.184-1.006 15.338 15.338 0 0 0-.209-1.032c-.18-.867-.671-1.456-1.473-1.767a2.095 2.095 0 0 0-.995-.148 3.612 3.612 0 0 0-.994.246c-.54.229-.945.577-1.215 1.043-.27.467-.365.995-.283 1.584.033.278.07.548.11.81.042.262.087.532.136.81.098.688.2 1.388.307 2.1.106.712.225 1.412.356 2.1.147.818.298 1.624.454 2.418.156.794.307 1.6.454 2.418l.344 1.768c.115.59.221 1.179.32 1.768.147.818.286 1.625.417 2.418.13.794.262 1.6.392 2.419.033.18.066.372.099.577.032.205.09.397.172.577.245.573.634.974 1.166 1.203.532.23 1.043.303 1.534.221.54-.098 1.032-.352 1.474-.761.376-.327.605-.728.687-1.203.033-.115.05-.225.05-.332 0-.106.007-.217.024-.331zM10.254 4.1c0-.654-.262-1.194-.785-1.62a35.207 35.207 0 0 1-.356-.258 2.523 2.523 0 0 0-2.075-.43c-.328.05-.606.164-.835.344-.23.18-.434.401-.614.663a3.897 3.897 0 0 0-.565 1.473c-.13.72-.257 1.433-.38 2.136-.123.704-.25 1.416-.38 2.137-.115.654-.226 1.31-.332 1.964-.107.655-.217 1.31-.332 1.964-.18.982-.352 1.956-.515 2.922-.164.966-.336 1.94-.516 2.922-.23 1.424-.475 2.848-.737 4.272-.032.279-.057.545-.073.798-.017.254.008.512.073.774.082.343.221.646.418.908a2.933 2.933 0 0 0 1.436 1.044c.27.09.528.118.774.086.916-.05 1.58-.483 1.989-1.302l.196-.589c.033-.196.07-.385.11-.565.041-.18.078-.368.111-.564.18-.884.344-1.752.491-2.603.147-.851.311-1.71.491-2.578.131-.737.266-1.47.405-2.198.14-.728.274-1.469.405-2.222.131-.72.258-1.436.38-2.148.124-.712.25-1.437.382-2.173.114-.671.225-1.343.331-2.014.106-.67.217-1.35.331-2.038.033-.18.062-.364.086-.552.025-.188.054-.372.086-.553zm8.496 31.846a.605.605 0 0 0 .344-.098c.098-.065.196-.147.294-.245l.835-.786c.278-.262.557-.532.835-.81.327-.311.65-.626.97-.946.319-.319.626-.65.92-.994.082-.098.152-.192.21-.282.057-.09.126-.185.208-.283.147-.196.147-.4 0-.614a3.205 3.205 0 0 0-.295-.343 4.138 4.138 0 0 0-1.178-.688.776.776 0 0 0-.565.074.803.803 0 0 0-.086.049.803.803 0 0 1-.086.049 9.49 9.49 0 0 0-1.105.86c-.344.31-.67.646-.982 1.006-.23.278-.475.553-.737.823-.261.27-.54.52-.834.749l-.16.16c-.057.056-.11.118-.16.183a.784.784 0 0 0-.073.737.99.99 0 0 1 .086.16.99.99 0 0 0 .086.16c.114.18.25.343.405.49.155.147.323.278.503.393.098.065.188.115.27.147.082.033.18.05.295.05zm6.605-3.265h-.05a.786.786 0 0 0-.343.123c-.098.065-.188.139-.27.22a297.275 297.275 0 0 1-3.168 3.315 1.56 1.56 0 0 0-.417.835c-.033.098-.025.18.025.246.18.393.417.712.712.957.163.164.343.32.54.467.13.114.217.176.258.184.04.008.126-.029.257-.11.099-.05.189-.115.27-.197a.737.737 0 0 0 .16-.16.971.971 0 0 1 .184-.184c.54-.524 1.08-1.051 1.62-1.583.541-.532 1.09-1.06 1.646-1.584a.922.922 0 0 0 .086-.098.922.922 0 0 1 .086-.099c.327-.392.344-.785.049-1.178l-.172-.172a156.807 156.807 0 0 0-.86-.761.943.943 0 0 0-.613-.221zm-5.893-3.88c-.246-.229-.483-.462-.712-.7a59 59 0 0 1-.688-.724.775.775 0 0 0-.27-.123 2.034 2.034 0 0 0-.368-.024.444.444 0 0 0-.282.037 1.7 1.7 0 0 0-.234.16 32.313 32.313 0 0 0-1.878 1.78 48.798 48.798 0 0 0-1.756 1.902.805.805 0 0 0-.098.123l-.098.147c-.13.246-.115.475.05.688a.71.71 0 0 0 .134.184l.184.184c.115.082.221.172.32.27.098.099.196.189.294.27.066.066.14.123.221.172.082.05.164.09.246.123.31.115.573.057.785-.172a.35.35 0 0 0 .062-.073c.008-.017.028-.033.061-.05.262-.278.52-.56.774-.847.253-.286.52-.568.798-.847a66.288 66.288 0 0 1 1.522-1.571l.098-.098c.18-.099.323-.225.43-.381.106-.155.241-.299.405-.43z"/>
</svg>
