<svg xmlns="http://www.w3.org/2000/svg" width="48" height="43" viewBox="0 0 48 43">
    <path fill="#FFF" fill-rule="evenodd" d="M48 11.978v25.343a.201.201 0 0 1-.014.086.128.128 0 0 0-.015.058 4.23 4.23 0 0 1-.173.996 7.13 7.13 0 0 1-.375.967c-.193.384-.414.74-.664 1.067-.25.328-.549.626-.895.895-.366.27-.74.5-1.126.693a5.262 5.262 0 0 1-1.24.433 1.97 1.97 0 0 1-.39.072c-.125.01-.265.024-.419.043H5.311a2 2 0 0 1-.577-.086 4.391 4.391 0 0 1-1.674-.549 5.777 5.777 0 0 1-1.848-1.5 5.543 5.543 0 0 1-1.039-2.108 3.894 3.894 0 0 1-.086-.461A3.894 3.894 0 0 0 0 37.465V0h27.305l.029.029c.288.02.567.077.837.173.27.096.529.212.78.346 1.385.866 2.087 2.107 2.106 3.724v2.367h5.888c1.848 0 3.714.01 5.6.028.211 0 .438.02.678.058.24.039.476.087.707.145 1.193.307 2.175.98 2.944 2.02.558.77.895 1.607 1.01 2.511.039.154.078.346.116.577zM1.905 8.544v28.632a3.352 3.352 0 0 0 .058.606c.115.424.279.813.49 1.17.212.355.481.668.809.937.327.27.683.477 1.068.62.384.145.788.217 1.212.217 6.177.02 12.32.03 18.43.03H42.4c.193 0 .395-.03.607-.087.827-.154 1.51-.53 2.049-1.126.693-.712 1.039-1.549 1.039-2.511.02-8.236.02-16.49 0-24.765 0-.289-.029-.577-.087-.866a4.651 4.651 0 0 0-.808-1.559 3.339 3.339 0 0 0-.635-.591 4.062 4.062 0 0 0-.75-.419 2.602 2.602 0 0 0-.938-.288 8.765 8.765 0 0 0-.996-.058h-5.686a964.516 964.516 0 0 1-10.42.058h-.23v1.674c0 .288-.087.563-.26.822-.174.26-.405.438-.693.534-.308.096-.611.087-.91-.029a1.492 1.492 0 0 1-.707-.548 1.3 1.3 0 0 1-.23-.462 2.017 2.017 0 0 1-.058-.49 10.76 10.76 0 0 1-.03-.765v-.736H1.906zm27.276-1.905v-2.28a2.1 2.1 0 0 0-.49-1.53 2.713 2.713 0 0 0-.78-.679 2.014 2.014 0 0 0-1.01-.245H1.905v4.734h27.276zm-1.934 22.975c.212.481.423.99.635 1.53.481 1.097.481 2.193 0 3.29-.365.847-.981 1.53-1.847 2.05-.5.269-1.058.423-1.674.461-1.193.116-2.242-.221-3.146-1.01a3.972 3.972 0 0 1-1.386-2.396 3.231 3.231 0 0 1 0-1.486c.116-.472.27-.948.462-1.429.058-.154.13-.313.217-.476.086-.164.168-.332.245-.505-.404-.27-.674-.587-.808-.953-.366-.808-.289-1.54.23-2.193.424-.597 1.02-.895 1.79-.895h4.012c.539 0 1.02.15 1.443.447.424.299.683.727.78 1.285.057.385.038.779-.058 1.183s-.395.77-.895 1.097zm-3.261 4.503c.192 0 .384-.048.577-.145.192-.096.36-.23.505-.404.144-.173.24-.365.289-.577a.976.976 0 0 0-.073-.635 19.284 19.284 0 0 0-.418-.895 43.216 43.216 0 0 1-.447-.923 6.412 6.412 0 0 0-.13-.246 6.412 6.412 0 0 1-.13-.245c-.039-.096-.092-.144-.159-.144s-.12.038-.159.115c-.192.385-.385.775-.577 1.169-.192.394-.375.784-.548 1.169a1.05 1.05 0 0 0-.087.635c.038.212.12.4.245.563.125.163.289.298.491.404.202.106.409.159.62.159zm1.587-18.993c-.02.193-.024.38-.014.563.01.183-.005.351-.044.505-.115.558-.442.895-.981 1.01-.558.155-1.049.02-1.472-.403a1.313 1.313 0 0 1-.303-.534 2.319 2.319 0 0 1-.072-.592 9.596 9.596 0 0 1-.03-.736c0-.24.02-.496.059-.765a1.298 1.298 0 0 1 1.183-1.155c.404-.057.75.01 1.04.202.288.193.48.482.576.866.039.154.053.323.044.505-.01.183-.015.361-.015.534h.03zm0 5.6c-.02.192-.024.38-.014.563.01.183-.005.36-.044.534-.057.27-.178.486-.36.65a1.45 1.45 0 0 1-.607.331 1.849 1.849 0 0 1-.692.043 1.11 1.11 0 0 1-.62-.274 1.348 1.348 0 0 1-.434-.577 2.103 2.103 0 0 1-.115-.722 9.596 9.596 0 0 1-.03-.736c0-.24.02-.476.059-.707.038-.327.178-.596.418-.808.24-.212.515-.337.823-.375.596-.077 1.068.144 1.414.664.039.096.072.202.101.317.029.116.053.221.072.318.02.134.024.264.015.39-.01.124-.015.254-.015.389h.03z"/>
</svg>
