<svg xmlns="http://www.w3.org/2000/svg" width="64" height="58" viewBox="0 0 64 58">
    <path fill="#5999E5" fill-rule="nonzero" d="M3 0C1.348 0 0 1.348 0 3v42c0 1.652 1.348 3 3 3h31.414l-3.293 3.293a3.834 3.834 0 0 0 0 5.414 3.818 3.818 0 0 0 2.707 1.121c.98 0 1.961-.375 2.707-1.121l4.586-4.586c.078-.078.23-.242.242-.234A14.903 14.903 0 0 0 49 54c8.27 0 15-6.73 15-15 0-5.742-3.246-10.738-8-13.258V3c0-1.652-1.348-3-3-3H3zm0 2h50c.55 0 1 .45 1 1v3H2V3c0-.55.45-1 1-1zM2 8h52v16.875A14.947 14.947 0 0 0 49 24c-8.27 0-15 6.73-15 15 0 2.527.633 4.906 1.742 7H3c-.55 0-1-.45-1-1V8zm13 4a1 1 0 0 0-.707.293L11 15.586l-1.293-1.293a1 1 0 1 0-1.414 1.414l2 2c.195.195.45.293.707.293a.993.993 0 0 0 .707-.293l4-4A1 1 0 0 0 15 12zm4 2c-.555 0-1 .445-1 1 0 .555.445 1 1 1h4c.555 0 1-.445 1-1 0-.555-.445-1-1-1h-4zm8 0c-.555 0-1 .445-1 1 0 .555.445 1 1 1h17c.555 0 1-.445 1-1 0-.555-.445-1-1-1H27zm-12 6a1 1 0 0 0-.707.293L11 23.586l-1.293-1.293a1 1 0 1 0-1.414 1.414l2 2c.195.195.45.293.707.293a.993.993 0 0 0 .707-.293l4-4A1 1 0 0 0 15 20zm4 2c-.555 0-1 .445-1 1 0 .555.445 1 1 1h21c.555 0 1-.445 1-1 0-.555-.445-1-1-1H19zm30 4c7.168 0 13 5.832 13 13s-5.832 13-13 13-13-5.832-13-13 5.832-13 13-13zm-34 2a1 1 0 0 0-.707.293L11 31.586l-1.293-1.293a1 1 0 1 0-1.414 1.414l2 2c.195.195.45.293.707.293a.993.993 0 0 0 .707-.293l4-4A1 1 0 0 0 15 28zm33.914 0C42.894 28 38 32.895 38 38.914c0 6.02 4.895 10.914 10.914 10.914 6.02 0 10.914-4.894 10.914-10.914S54.934 28 48.914 28zM19 30c-.555 0-1 .445-1 1 0 .555.445 1 1 1h12c.555 0 1-.445 1-1 0-.555-.445-1-1-1H19zm29.914 0c4.914 0 8.914 4 8.914 8.914s-4 8.914-8.914 8.914-8.914-4-8.914-8.914S44 30 48.914 30zm0 1.828a1 1 0 1 0 0 2 5.079 5.079 0 0 1 4.684 3.094c.16.379.53.605.918.605.132 0 .265-.023.394-.078.508-.219.742-.804.528-1.312a7.086 7.086 0 0 0-6.524-4.309zM6 40c-.555 0-1 .445-1 1v2c0 .555.445 1 1 1 .555 0 1-.445 1-1v-2c0-.555-.445-1-1-1zm5 0c-.555 0-1 .445-1 1v2c0 .555.445 1 1 1 .555 0 1-.445 1-1v-2c0-.555-.445-1-1-1zm5 0c-.555 0-1 .445-1 1v2c0 .555.445 1 1 1 .555 0 1-.445 1-1v-2c0-.555-.445-1-1-1zm5 0c-.555 0-1 .445-1 1v2c0 .555.445 1 1 1 .555 0 1-.445 1-1v-2c0-.555-.445-1-1-1zm5 0c-.555 0-1 .445-1 1v2c0 .555.445 1 1 1 .555 0 1-.445 1-1v-2c0-.555-.445-1-1-1zm5 0c-.555 0-1 .445-1 1v2c0 .555.445 1 1 1 .555 0 1-.445 1-1v-2c0-.555-.445-1-1-1zm6.121 8.121a15.304 15.304 0 0 0 2.563 2.613l-4.563 4.559a1.827 1.827 0 0 1-2.586 0 1.827 1.827 0 0 1 0-2.586l4.586-4.586z"/>
</svg>
