<svg xmlns="http://www.w3.org/2000/svg" width="60" height="64" viewBox="0 0 60 64">
    <path fill="#5999E5" fill-rule="nonzero" d="M29.996 0a4.073 4.073 0 0 0-4.09 3.96l-.047 1.571A4.545 4.545 0 0 0 22.453 4a4.512 4.512 0 0 0-4.535 4.43L17.781 14H3c-1.652 0-3 1.348-3 3v28c0 1.652 1.348 3 3 3h6.3a20.888 20.888 0 0 0 2.653 4.297l4.2 5.246 2.398 4.8A2.992 2.992 0 0 0 21.234 64H45.52c1.328 0 2.48-.852 2.87-2.117l2.52-8.196A20.72 20.72 0 0 0 51.8 48H57c1.652 0 3-1.348 3-3V17c0-1.652-1.348-3-3-3h-7.137c-.644-1.754-2.304-3-4.273-3-1.336 0-2.54.574-3.38 1.484l-.112-4.062A4.529 4.529 0 0 0 37.547 4c-1.352 0-2.57.598-3.406 1.54l-.047-1.58A4.077 4.077 0 0 0 29.996 0zm.008 2c1.137 0 2.055.89 2.09 2.023L32.402 14h-4.804l.308-9.977A2.083 2.083 0 0 1 30.004 2zM22.46 6C23.859 6 25 7.14 25 8.54V14h-5.219l.137-5.523C19.949 7.113 21.09 6 22.461 6zm15.086 0c1.39 0 2.512 1.09 2.55 2.477L40.25 14H35V8.547A2.552 2.552 0 0 1 37.547 6zm8.047 7c.824 0 1.558.395 2.031 1h-4.063c.477-.605 1.204-1 2.032-1zM3 16h54c.55 0 1 .45 1 1v28c0 .55-.45 1-1 1H27.645a8.96 8.96 0 0 1-5.633-2A1 1 0 0 0 23 43v-2c0-.555-.445-1-1-1-.555 0-1 .445-1 1v2c0 .02.012.04.012.059a8.971 8.971 0 0 1-1.703-2.668l-2.762-6.782a9.775 9.775 0 0 0-6.41-5.754 3 3 0 0 0-3.809 3.211l1.14 10.387A20.845 20.845 0 0 0 8.489 46H3c-.55 0-1-.45-1-1V17c0-.55.45-1 1-1zm14 2c-.555 0-1 .445-1 1v2c0 .555.445 1 1 1 .555 0 1-.445 1-1v-2c0-.555-.445-1-1-1zm5 0c-.555 0-1 .445-1 1v2c0 .555.445 1 1 1 .555 0 1-.445 1-1v-2c0-.555-.445-1-1-1zm5 0c-.555 0-1 .445-1 1v2c0 .05.023.094.031.145C23.055 22.94 21 26.68 21 31s2.055 8.059 5.031 9.855c-.008.051-.031.094-.031.145v2c0 .555.445 1 1 1 .555 0 1-.445 1-1v-1.281A7.585 7.585 0 0 0 30 42c.688 0 1.355-.105 2-.281V43c0 .555.445 1 1 1 .555 0 1-.445 1-1v-2c0-.05-.023-.094-.031-.145C36.945 39.06 39 35.32 39 31s-2.055-8.059-5.031-9.855c.008-.051.031-.094.031-.145v-2c0-.555-.445-1-1-1-.555 0-1 .445-1 1v1.281A7.585 7.585 0 0 0 30 20c-.688 0-1.355.105-2 .281V19c0-.555-.445-1-1-1zm11 0c-.555 0-1 .445-1 1v2c0 .555.445 1 1 1 .555 0 1-.445 1-1v-2c0-.555-.445-1-1-1zm5 0c-.555 0-1 .445-1 1v2c0 .555.445 1 1 1 .555 0 1-.445 1-1v-2c0-.555-.445-1-1-1zM5 19c-.555 0-1 .445-1 1 0 .555.445 1 1 1h5c.555 0 1-.445 1-1 0-.555-.445-1-1-1H5zm45 0c-.555 0-1 .445-1 1 0 .555.445 1 1 1h5c.555 0 1-.445 1-1 0-.555-.445-1-1-1h-5zm-20 3c3.86 0 7 4.035 7 9s-3.14 9-7 9-7-4.035-7-9 3.14-9 7-9zm18 5c-2.207 0-4 1.793-4 4s1.793 4 4 4 4-1.793 4-4-1.793-4-4-4zm0 1.668A2.336 2.336 0 0 1 50.332 31 2.336 2.336 0 0 1 48 33.332 2.336 2.336 0 0 1 45.668 31 2.336 2.336 0 0 1 48 28.668zm-38.656 1.07a.932.932 0 0 1 .246.043 7.79 7.79 0 0 1 5.105 4.582l2.758 6.782A10.962 10.962 0 0 0 27.645 48h22.164A18.848 18.848 0 0 1 49 53.098l-2.52 8.195a1.002 1.002 0 0 1-.96.707H21.234a.989.989 0 0 1-.89-.55l-2.45-4.9c-.015-.03-.046-.05-.066-.081-.02-.032-.027-.067-.047-.094l-4.27-5.328c-1.034-1.297-1.84-2.781-2.75-4.672a18.983 18.983 0 0 1-1.308-5.14L8.316 30.847a.991.991 0 0 1 .352-.871.99.99 0 0 1 .676-.239zM38 40c-.555 0-1 .445-1 1v2c0 .555.445 1 1 1 .555 0 1-.445 1-1v-2c0-.555-.445-1-1-1zm5 0c-.555 0-1 .445-1 1v2c0 .555.445 1 1 1 .555 0 1-.445 1-1v-2c0-.555-.445-1-1-1zm7 1c-.555 0-1 .445-1 1 0 .555.445 1 1 1h5c.555 0 1-.445 1-1 0-.555-.445-1-1-1h-5z"/>
</svg>
