<svg xmlns="http://www.w3.org/2000/svg" xmlns:xlink="http://www.w3.org/1999/xlink" width="1440" height="257" viewBox="0 0 1440 257">
    <defs>
        <path id="a" d="M687.103 179.35V.742H.73V179.35z"/>
        <path id="c" d="M.605.576v323.043h454.963V.576z"/>
    </defs>
    <g fill="none" fill-rule="evenodd" opacity=".5">
        <path fill="#5999E5" d="M-9.795 248.618c8.042-6.314 16.3-12.305 24.655-18.17a781.27 781.27 0 0 1 25.4-17.092c17.12-11.112 34.673-21.553 52.548-31.402 35.762-19.654 72.977-36.807 111.622-50.004 19.318-6.585 38.992-12.161 58.96-16.408 19.963-4.243 40.228-7.155 60.613-8.308 20.381-1.163 40.871-.511 61.128 2.036 20.261 2.532 40.266 6.952 59.786 12.908 19.53 5.946 38.57 13.409 57.171 21.79 18.61 8.384 36.754 17.74 54.8 27.25 18.045 9.515 35.965 19.267 54.244 28.318 9.111 4.584 18.383 8.834 27.715 12.943l7.065 2.925c2.354.979 4.708 1.957 7.106 2.822l7.16 2.685c2.395.872 4.83 1.629 7.243 2.448 19.317 6.514 39.498 10.553 59.872 11.477 5.093.196 10.196.185 15.292.288l7.65.113c2.548-.003 5.096-.096 7.645-.14 5.098-.133 10.2-.168 15.292-.384l15.272-.9c20.333-1.538 40.602-4.221 60.52-8.638 1.245-.272 2.495-.523 3.737-.812l3.706-.943 7.413-1.886 7.338-2.16c1.218-.373 2.453-.698 3.66-1.11l3.624-1.222c2.417-.812 4.84-1.608 7.21-2.55 2.383-.908 4.78-1.781 7.112-2.812l3.521-1.495 3.465-1.62c2.3-1.097 4.572-2.261 6.768-3.557-2.194 1.297-4.466 2.464-6.765 3.566l-3.464 1.62-3.518 1.5c-2.333 1.034-4.729 1.909-7.11 2.82-2.37.945-4.792 1.743-7.209 2.558l-3.623 1.226c-1.207.413-2.44.739-3.66 1.113l-7.337 2.168-7.412 1.893-3.706.948c-1.24.29-2.49.543-3.737.815-19.916 4.44-40.188 7.144-60.524 8.703l-15.275.915c-5.095.22-10.196.262-15.295.4-2.55.048-5.099.143-7.649.148l-7.65-.105c-5.099-.098-10.202-.081-15.298-.273-20.395-.904-40.603-4.926-59.943-11.426-2.416-.818-4.854-1.573-7.252-2.444l-7.168-2.68c-2.402-.862-4.758-1.84-7.114-2.816l-7.074-2.92c-9.34-4.101-18.623-8.345-27.74-12.921-18.297-9.036-36.23-18.771-54.283-28.266-18.052-9.491-36.2-18.825-54.804-27.183-18.597-8.357-37.626-15.792-57.137-21.711-19.5-5.928-39.48-10.321-59.709-12.828-20.226-2.522-40.68-3.152-61.024-1.97-40.729 2.37-80.82 11.637-119.365 24.802-38.582 13.219-75.739 30.39-111.443 50.06-17.846 9.857-35.37 20.305-52.46 31.423a779.98 779.98 0 0 0-25.354 17.098c-8.334 5.863-16.588 11.863-24.585 18.156l-.626-.78z"/>
        <path fill="#5999E5" fill-opacity=".05" d="M-129.657 166.78l-15.506-22.064c-3.862-5.78-7.078-10.791-9.014-14.237l-1.677-2.864c-.639-1.055-.946-1.7-1.31-2.418l-1.079-2.134-.693-1.66c-.216-.535-.51-1.168-.596-1.542-.139-.44-.27-.873-.308-1.186-.178-.76-.133-1.242.005-1.608a53.908 53.908 0 0 1 5.366-6.26c3.87-3.829 8.118-7.188 12.916-9.82 4.791-2.643 10.03-4.663 15.623-6.15 2.833-.694 5.668-1.37 8.64-1.836l4.406-.751a195.59 195.59 0 0 1 4.505-.585c6.02-.748 12.057-1.37 17.917-2.165 5.957-.662 11.643-1.632 17.081-2.917 5.466-1.246 10.69-2.81 15.613-4.815l3.7-1.487 3.743-1.41L-42.892 76c2.485-.936 4.905-1.97 7.386-2.9 2.491-.915 4.95-1.879 7.411-2.827 2.467-.939 4.906-1.92 7.343-2.898 2.43-.988 4.904-1.9 7.346-2.86 4.91-1.877 9.725-3.894 14.577-5.835a728.116 728.116 0 0 0 14.526-5.837c19.354-7.748 38.693-15.39 58.461-21.903 2.442-.881 4.951-1.598 7.43-2.381l7.44-2.346 7.432-2.348 7.506-2.134c5.005-1.42 9.986-2.88 15.004-4.254l7.564-1.97c2.523-.654 5.031-1.334 7.593-1.907 5.1-1.207 10.153-2.501 15.33-3.542l7.717-1.665 7.804-1.477 3.9-.748 3.942-.651c2.631-.428 5.251-.88 7.891-1.28 5.318-.71 10.61-1.482 16.005-1.97 10.741-1.107 21.65-1.76 32.692-1.661 11.032.12 22.191.907 33.195 2.529a253.259 253.259 0 0 1 32.394 7.006c2.664.756 5.308 1.595 7.948 2.429 2.61.907 5.257 1.744 7.831 2.723 5.198 1.868 10.271 3.95 15.251 6.13 9.958 4.357 19.37 9.225 28.425 14.118 4.5 2.45 8.957 4.913 13.316 7.358l3.284 1.841 3.37 1.943 6.732 3.884c17.902 10.445 35.43 22.178 51.773 35.166 8.245 6.407 16.05 13.177 23.676 19.87l22.273 19.868c7.308 6.478 14.57 12.79 21.994 18.89 1.838 1.555 3.742 3 5.61 4.507 1.884 1.486 3.741 3.01 5.648 4.466l5.741 4.346c1.912 1.45 3.81 2.897 5.846 4.375l23.926 17.621c7.95 5.846 15.881 11.646 23.85 17.285 7.958 5.647 15.96 11.151 24.06 16.306 8.115 5.132 16.306 10.012 24.74 14.165 4.213 2.077 8.475 4.025 12.81 5.696 4.33 1.683 8.714 3.214 13.175 4.393 4.458 1.193 8.976 2.172 13.555 2.803 4.58.613 9.213.96 13.88.974 4.667.002 9.354-.351 14.038-.92 4.674-.642 9.324-1.599 13.947-2.777 4.614-1.219 9.152-2.78 13.65-4.509a145.645 145.645 0 0 0 13.205-6.027c4.298-2.269 8.54-4.688 12.672-7.31a232.711 232.711 0 0 0 12.092-8.385c7.876-5.89 15.38-12.332 22.557-19.132 14.392-13.589 27.465-28.565 40.271-43.736 6.423-7.575 12.805-15.195 19.363-22.68 6.562-7.478 13.304-14.835 20.706-21.564 3.71-3.347 7.638-6.496 11.924-9.16 2.157-1.302 4.386-2.526 6.773-3.422 2.373-.904 4.86-1.638 7.443-1.817 5.141-.438 10.476 1.064 14.517 4.336 2.028 1.617 3.7 3.626 5.058 5.781 1.364 2.16 2.442 4.459 3.392 6.785 1.903 4.657 3.306 9.436 4.932 14.109 1.611 4.673 3.395 9.276 5.743 13.572 2.313 4.31 5.238 8.272 8.708 11.678 3.496 3.382 7.535 6.197 11.87 8.413 2.186 1.065 4.433 1.998 6.751 2.71 2.326.682 4.687 1.254 7.098 1.543 2.406.303 4.834.476 7.273.428 4.874-.243 6.093-.301 7.31-.466 4.868-.553 9.712-1.484 14.531-2.572 4.821-1.087 9.627-2.3 14.434-3.538 9.607-2.508 19.243-5.035 28.97-7.227a442.727 442.727 0 0 1 14.64-3.084c4.894-.976 9.83-1.719 14.742-2.613 9.865-1.509 19.763-2.902 29.717-3.774 4.97-.534 9.958-.806 14.943-1.193 4.99-.24 9.981-.552 14.98-.663 19.986-.7 40.03.034 59.947 1.628 4.986.411 9.93.814 14.906 1.329 4.983.563 9.981 1.016 14.963 1.675 9.953 1.383 19.92 2.933 29.766 5.2 9.86 2.16 19.651 4.875 29.211 7.863 4.78 1.485 9.52 2.95 14.204 4.295 2.343.661 4.654 1.233 6.982 1.834 2.306.448 4.608 1.012 6.903 1.347l5.142.677c4.002.172 6.263.388 8.56.203l5.13-.274c4.011-.536 6.272-.7 8.574-1.236 2.293-.478 4.577-.848 6.846-1.45l6.782-1.858c1.133-.274 2.236-.688 3.342-1.067l3.308-1.161c1.098-.394 2.203-.755 3.292-1.17l3.227-1.36 3.217-1.352c.356-.153 1.414-.638 3.172-1.454l6.254-3.075 6.09-3.4c1.021-.54 2.007-1.167 2.995-1.787l2.962-1.842a213.084 213.084 0 0 0 22.584-16.531c7.181-6.065 13.961-12.73 20.347-19.953a180.517 180.517 0 0 0 4.732-5.52c1.563-1.846 3.101-3.772 4.632-5.71 1.537-1.905 3.041-3.905 4.576-5.89.754-.983 1.544-2.01 2.238-2.985l2.06-2.91c1.36-1.957 2.711-3.865 4.017-5.882l3.904-6c1.28-2.007 2.496-4.119 3.74-6.161 1.231-2.06 2.484-4.09 3.645-6.228l3.516-6.33a356.347 356.347 0 0 0 3.384-6.448 335.58 335.58 0 0 0 6.428-13.124A376.592 376.592 0 0 0 1468.954.78c1.721-4.65 3.397-9.326 4.938-14.113l2.353-7.287c.403-1.279.72-2.45 1.26-3.902l.741-2.094c.625-1.194 1.33-2.465 2.021-3.688l84.502 70.626c-2.759.636-3.936 1.45-5.03 2.153l-3.309 2.271-3.344 2.316c-4.493 3.106-8.886 6.295-13.316 9.447l-26.285 18.97c-8.786 6.254-17.41 12.553-26.288 18.633l-3.29 2.296-3.332 2.275c-2.23 1.507-4.4 3.032-6.668 4.504l-6.702 4.468c-2.212 1.492-4.567 2.893-6.81 4.355l-3.384 2.178-3.272 2.032c-2.144 1.353-4.323 2.685-6.492 4.089l-13.044 8.421c-8.728 5.67-17.452 11.464-26.477 16.903-9.03 5.43-18.382 10.47-28.13 14.7l-3.668 1.56c-1.219.52-2.433 1.048-3.696 1.486l-7.49 2.736-7.627 2.35c-2.54.755-3.193.9-3.837 1.065l-3.872.947c-10.347 2.433-20.755 4.08-31.353 4.533-2.61.25-5.33.129-7.993.14-2.657.06-5.36-.202-8.042-.404-5.364-.404-10.692-1.416-15.847-2.659-1.314-.259-2.534-.716-3.807-1.055l-3.772-1.099c-2.424-.845-4.89-1.638-7.278-2.49l-7.083-2.593c-2.324-.858-4.666-1.743-6.984-2.553-2.317-.81-4.634-1.656-6.955-2.438l-6.968-2.301c-4.684-1.371-9.349-2.831-14.1-3.972-9.443-2.513-19.08-4.344-28.754-6.023-4.843-.807-9.729-1.413-14.596-2.132-4.887-.673-9.832-1.243-14.732-1.813-19.63-2.233-39.337-3.62-59.09-3.59-4.939-.06-9.873.127-14.812.219-4.93.242-9.872.369-14.796.758-9.867.58-19.693 1.681-29.506 2.895l-7.336 1.087a244.74 244.74 0 0 0-7.328 1.156 442.52 442.52 0 0 0-14.59 2.733c-9.706 1.962-19.35 4.26-29.022 6.555-9.67 2.27-19.373 4.72-29.406 5.733-5.034.32-6.293.409-7.56.368-2.532.014-5.07-.202-7.583-.558-2.52-.341-4.996-.978-7.422-1.728-2.423-.781-4.756-1.798-7.023-2.933-4.492-2.334-8.672-5.285-12.296-8.838-3.596-3.572-6.61-7.72-8.965-12.175-2.39-4.446-4.177-9.155-5.772-13.878-1.606-4.72-2.979-9.498-4.81-14.052-1.842-4.514-4.223-8.918-7.976-11.897-3.71-2.996-8.62-4.372-13.356-3.96-2.386.166-4.724.857-6.976 1.72-2.267.852-4.413 2.035-6.5 3.298-4.153 2.59-8.007 5.684-11.663 8.994-7.3 6.651-13.912 14.063-20.399 21.558-6.473 7.517-12.786 15.183-19.149 22.817-12.743 15.252-25.607 30.455-39.496 44.806-13.905 14.307-28.857 27.857-45.982 38.874-4.304 2.707-8.708 5.293-13.249 7.683a162.239 162.239 0 0 1-14.076 6.385c-4.836 1.858-9.788 3.498-14.858 4.808-5.076 1.275-10.239 2.331-15.488 2.994-5.249.632-10.565.986-15.903.974-5.337-.019-10.673-.438-15.968-1.122-5.303-.67-10.527-1.73-15.682-2.988-5.166-1.245-10.217-2.787-15.196-4.471-9.958-3.385-19.55-7.439-28.848-11.87-9.326-4.395-18.322-9.2-27.204-14.095-17.72-9.851-34.814-20.276-51.762-30.702-2.098-1.274-4.277-2.666-6.449-4.045l-6.512-4.135c-2.165-1.389-4.282-2.846-6.426-4.27-2.127-1.442-4.303-2.835-6.392-4.323-4.198-2.953-8.446-5.875-12.545-8.914-4.163-3.002-8.217-6.046-12.254-9.118l-23.646-18.14c-7.77-5.864-15.459-11.55-23.259-16.867-3.866-2.736-7.85-5.24-11.783-7.825-1.96-1.3-3.997-2.487-5.989-3.736-2.01-1.224-3.983-2.495-6.02-3.68-8.138-4.755-16.379-9.364-24.823-13.727l-6.357-3.239-3.175-1.62-3.307-1.635a1203.474 1203.474 0 0 0-13.128-6.389c-8.658-4.103-17.138-7.913-25.53-11.188-8.409-3.227-16.739-6.041-25.258-8.213a227.69 227.69 0 0 0-25.936-5.078c-17.296-2.374-34.952-2.253-53.014-.247-18.02 1.954-36.297 5.888-54.397 11.008-2.264.608-4.523 1.33-6.782 2.021l-6.777 2.082c-4.499 1.474-8.966 3.09-13.447 4.622-2.238.776-4.478 1.544-6.702 2.362l-6.622 2.607c-4.408 1.755-8.842 3.412-13.19 5.316l-13.02 5.738c-2.177.93-4.31 1.975-6.448 3.008L68.5 96.648l-6.39 3.114-6.305 3.31c-4.175 2.267-8.389 4.423-12.476 6.853-16.477 9.438-31.948 20.746-46.35 33.342-7.129 6.4-14.477 12.42-20.205 20.764a106.743 106.743 0 0 0-7.789 13.51c-1.193 2.373-2.264 4.906-3.37 7.36l-3.244 7.402c-4.19 9.995-8.61 19.245-14.944 25.856-3.138 3.346-6.667 6.17-10.664 8.411-2.005 1.112-4.042 2.199-6.277 3.041-1.726-.56-2.1-.798-2.48-1.043-.329-.18-.865-.62-1.323-.96l-1.418-1.077-1.805-1.55c-.606-.522-1.156-.974-2.037-1.834l-2.402-2.28c-2.904-2.667-7.088-6.9-11.917-11.901l-18.41-19.73-18.35-22.457z"/>
        <path fill="#5999E5" fill-opacity=".4" d="M1079.883 184.21l14.526 4.976c4.852 1.628 9.652 3.412 14.578 4.805l14.697 4.43 3.674 1.109 3.712.969 7.428 1.92 7.43 1.92 3.715.95 3.751.803 15.002 3.203c1.245.29 2.507.498 3.768.7l3.782.63 7.563 1.26 3.781.629 1.89.315 1.903.227 7.613.89c20.278 2.385 40.8 3.129 61.107 1.194l7.605-.788c1.273-.098 2.523-.35 3.781-.548l3.77-.625 3.77-.624c1.252-.228 2.521-.367 3.755-.69l7.441-1.714c1.237-.296 2.487-.545 3.714-.881l3.658-1.088c2.435-.74 4.886-1.422 7.306-2.203 4.76-1.79 9.602-3.37 14.204-5.541 4.706-1.933 9.168-4.376 13.682-6.705 4.443-2.474 8.833-5.11 13.26-7.691 8.85-5.171 17.816-10.247 27.27-14.445 4.725-2.093 9.58-3.954 14.608-5.356 5.015-1.418 10.245-2.348 15.586-2.28 2.668.096 5.35.422 7.968 1.134a27.844 27.844 0 0 1 7.395 3.39c4.567 3.066 7.838 7.662 9.985 12.49 4.208 9.807 4.936 20.278 6.957 30.16.514 2.469 1.112 4.91 1.973 7.208.871 2.27 1.98 4.485 3.682 6.01a8.913 8.913 0 0 0 6.202 2.39c.582-.046 1.166-.01 1.75-.112l1.756-.336c1.15-.385 2.32-.708 3.427-1.274 4.497-2.055 8.551-5.196 12.348-8.531 1.946-1.628 3.71-3.47 5.56-5.215 1.744-1.856 3.56-3.646 5.25-5.56 6.892-7.53 13.224-15.58 19.431-23.718l.242.175c-5.839 8.416-11.985 16.634-18.65 24.453-1.645 1.974-3.442 3.817-5.158 5.734-1.832 1.81-3.57 3.713-5.515 5.42-3.797 3.486-7.848 6.81-12.629 9.139-1.167.629-2.46 1.032-3.73 1.48l-2.006.434c-.672.132-1.38.12-2.073.183-.695.038-1.404-.094-2.106-.145-.693-.14-1.39-.317-2.064-.541-.648-.3-1.339-.52-1.925-.941-.3-.194-.61-.376-.902-.583l-.812-.693c-2.153-1.901-3.41-4.422-4.397-6.877-.968-2.485-1.62-5.026-2.185-7.558-1.109-5.07-1.85-10.136-2.87-15.108-1.005-4.965-2.268-9.862-4.294-14.366-2.02-4.482-4.956-8.513-8.95-11.177a24.768 24.768 0 0 0-6.52-2.957c-2.333-.622-4.759-.91-7.205-.991-4.91-.05-9.874.756-14.707 2.107-4.844 1.32-9.587 3.106-14.23 5.133-9.31 4.029-18.248 8.974-27.118 14.047-4.44 2.537-8.855 5.13-13.38 7.598-4.604 2.322-9.159 4.759-13.95 6.676-4.686 2.168-9.606 3.736-14.442 5.51-2.456.775-4.943 1.45-7.413 2.178l-3.71 1.074c-1.244.33-2.509.574-3.762.865l-7.537 1.676c-1.249.317-2.533.45-3.799.67l-3.812.603-3.81.602c-1.272.192-2.536.436-3.82.525l-7.677.739c-20.492 1.802-41.12.898-61.465-1.645l-7.633-.97-1.907-.246-1.895-.334-3.787-.668-7.574-1.337-3.786-.67c-1.264-.215-2.527-.437-3.773-.738l-15.005-3.36-3.75-.84-3.714-.987-7.422-1.996-7.42-1.996-3.709-1.007-3.668-1.144-14.668-4.58c-4.916-1.443-9.703-3.275-14.542-4.951l-14.484-5.12.104-.281z"/>
        <g transform="translate(941 11.424)">
            <mask id="b" fill="#fff">
                <use xlink:href="#a"/>
            </mask>
            <path fill="#5999E5" fill-opacity=".15" d="M686.925 5.857c-7.542-.241-15.09-.27-22.626.068-7.53.376-15.046 1.056-22.509 2.109-14.925 2.09-29.628 5.748-43.729 11.039-7.063 2.622-13.948 5.695-20.636 9.146-6.692 3.453-13.133 7.403-19.687 11.329-6.543 3.935-13.345 7.68-20.476 10.686-1.78.753-3.596 1.424-5.39 2.139l-5.479 1.883-5.54 1.66c-1.859.515-3.734.999-5.628 1.426-7.59 1.725-15.329 2.389-22.988 2.684-7.67.29-15.32.208-22.957-.002-15.27-.441-30.483-1.441-45.688-2.605-15.2-1.212-30.39-2.711-45.515-4.75-7.559-1.02-15.105-2.177-22.62-3.393-7.519-1.191-15.01-2.405-22.537-3.015-7.525-.633-15.092-.584-22.653-.141-3.784.178-7.558.555-11.334.89-1.888.18-3.767.434-5.65.648l-2.824.336-2.814.413c-7.512 1.046-14.97 2.463-22.369 4.145a311.132 311.132 0 0 0-21.998 5.858c-14.534 4.419-28.709 9.966-42.883 15.514-14.15 5.569-28.04 11.789-41.44 18.975a352.504 352.504 0 0 0-19.707 11.46c-6.444 4.035-12.705 8.352-18.875 12.795-6.145 4.478-12.1 9.209-17.94 14.087-5.847 4.867-11.59 9.884-17.655 14.513-12.125 9.302-25.799 16.382-39.942 22.01C30.64 173.316 15.8 177.164.73 179.35c15.054-2.288 29.856-6.236 43.991-11.877 14.084-5.716 27.67-12.872 39.676-22.215 6.011-4.653 11.711-9.7 17.533-14.615 5.813-4.924 11.755-9.711 17.888-14.244 6.156-4.498 12.407-8.871 18.844-12.963a353.245 353.245 0 0 1 19.7-11.637c13.395-7.304 27.305-13.647 41.454-19.325 14.141-5.648 28.32-11.31 42.907-15.855a312.893 312.893 0 0 1 22.097-6.046c7.437-1.745 14.943-3.224 22.506-4.33l2.834-.436 2.844-.358c1.898-.23 3.791-.497 5.692-.693 3.806-.363 7.607-.77 11.43-.976 7.631-.5 15.33-.603 22.987-.012 7.663.569 15.227 1.744 22.752 2.884 7.527 1.165 15.042 2.264 22.581 3.229 15.073 1.927 30.214 3.317 45.38 4.42 15.17 1.058 30.363 1.952 45.54 2.287 7.587.157 15.174.186 22.72-.152 7.541-.342 15.042-1.046 22.303-2.75 7.264-1.745 14.478-4.083 21.343-7.045 6.887-2.962 13.438-6.621 19.913-10.574 6.48-3.943 13.004-8.007 19.825-11.586 6.818-3.58 13.846-6.771 21.04-9.5 14.38-5.507 29.386-9.347 44.604-11.585 7.61-1.128 15.27-1.873 22.944-2.31 7.68-.396 15.365-.42 23.045-.226l-.178 4.997z" mask="url(#b)"/>
        </g>
        <path fill="#5999E5" fill-opacity=".15" d="M-187.425 81.247c19.663-16.933 42.491-30.68 67.476-38.547 3.097-1.049 6.277-1.826 9.424-2.709l4.78-1.103 2.39-.543 2.413-.447c6.416-1.275 12.947-2.04 19.495-2.425 1.64-.064 3.275-.22 4.918-.206l4.923-.039c3.28.11 6.563.19 9.828.506 6.532.566 13.032 1.505 19.406 2.924 6.378 1.403 12.654 3.158 18.825 5.165 6.16 2.04 12.205 4.34 18.176 6.773C6.55 55.517 18.132 61.034 29.6 66.678c22.914 11.32 45.528 22.961 68.658 33.498 23.194 10.461 46.486 20.888 69.917 30.778 23.445 9.877 47.13 19.17 71.287 26.966 24.144 7.793 48.787 14.108 73.852 17.726 25.041 3.632 50.518 4.473 75.652 1.616 25.112-2.856 49.905-9.146 72.924-19.634 11.54-5.197 22.607-11.418 33.867-17.475 11.245-6.046 22.932-11.71 35.372-15.287 12.413-3.642 25.336-5.204 38.18-5.436 1.606-.027 3.212.005 4.82.004l2.408.015 2.406.126 9.623.507 9.577 1.123c.796.105 1.6.168 2.39.306l2.371.443 4.74.886c12.615 2.51 24.87 6.618 36.613 11.726 11.763 5.09 23.073 11.043 34.44 16.79 11.367 5.74 22.79 11.356 34.578 16.12 1.454.641 2.946 1.19 4.43 1.755l4.454 1.696 4.458 1.69 4.52 1.51c3.022.985 6.012 2.067 9.06 2.973 3.05.884 6.093 1.803 9.155 2.66 12.266 3.356 24.76 5.852 37.34 7.703 12.578 1.93 25.293 2.847 38.008 3.303 25.446.692 50.965-1.14 76.108-5.28 25.147-4.143 49.937-10.359 74.238-18.072-24.243 7.892-48.998 14.293-74.145 18.626-25.143 4.332-50.7 6.358-76.232 5.851-12.758-.363-25.528-1.19-38.175-3.035-12.649-1.766-25.223-4.183-37.58-7.467-3.084-.838-6.15-1.74-9.227-2.606-3.07-.889-6.086-1.954-9.132-2.923l-4.559-1.488-4.496-1.665-4.494-1.673c-1.498-.558-3.003-1.099-4.47-1.735-11.896-4.704-23.42-10.267-34.849-15.933-11.426-5.672-22.745-11.52-34.426-16.473-11.664-4.97-23.745-8.917-36.16-11.293l-4.665-.837-2.332-.419c-.778-.13-1.569-.186-2.352-.283l-9.424-1.035-9.477-.429-2.369-.108-2.37.004c-1.582.012-3.164-.008-4.744.03-12.627.323-25.226 1.946-37.283 5.58-12.084 3.572-23.453 9.173-34.592 15.268-11.146 6.1-22.283 12.471-33.966 17.838-5.828 2.705-11.788 5.141-17.83 7.345-3.012 1.132-6.077 2.108-9.128 3.126-3.082.915-6.145 1.903-9.259 2.703-12.403 3.393-25.062 5.797-37.822 7.348-25.538 3.094-51.452 2.426-76.878-1.07-25.453-3.485-50.435-9.697-74.857-17.382-24.439-7.69-48.344-16.869-71.958-26.614-23.624-9.768-46.957-20.008-70.324-30.34C72.108 95.886 49.28 84.347 26.395 73.25c-11.449-5.53-22.94-10.897-34.629-15.62-5.85-2.336-11.744-4.527-17.703-6.452-5.967-1.89-11.993-3.526-18.077-4.819-6.082-1.308-12.236-2.146-18.404-2.635-3.084-.28-6.177-.327-9.268-.41l-4.637.07c-1.547-.004-3.089.16-4.633.23-6.17.41-12.328 1.171-18.408 2.428l-2.286.44-2.266.534-4.53 1.08c-2.982.864-5.997 1.617-8.932 2.64-23.674 7.647-45.352 20.881-64.16 37.318a4.5 4.5 0 0 1-5.922-6.777l.023-.02.012-.01z"/>
    </g>
</svg>
