<svg xmlns="http://www.w3.org/2000/svg" width="130" height="29" viewBox="0 0 130 29">
    <g fill="#A0A7AF" fill-rule="evenodd">
        <path d="M43.336 7.84v11.549c0 1.09.129 1.91.387 2.46.457.973 1.353 1.46 2.69 1.46 1.71 0 2.882-.692 3.515-2.075.328-.75.492-1.74.492-2.97V7.84h5.08V27h-4.87v-2.707a9.227 9.227 0 0 0-.35.527c-.188.293-.41.551-.669.774-.785.703-1.544 1.183-2.276 1.441-.732.258-1.59.387-2.575.387-2.836 0-4.746-1.02-5.73-3.059-.551-1.125-.827-2.783-.827-4.974V7.839h5.133zm20.9 13.043c.106.89.334 1.523.686 1.898.621.668 1.77 1.002 3.445 1.002.985 0 1.767-.146 2.347-.44.58-.292.87-.732.87-1.318 0-.562-.234-.99-.703-1.283-.469-.293-2.21-.797-5.22-1.512-2.169-.539-3.698-1.212-4.589-2.021-.89-.797-1.336-1.945-1.336-3.445 0-1.77.695-3.29 2.083-4.562 1.389-1.271 3.343-1.907 5.863-1.907 2.39 0 4.339.477 5.844 1.433 1.506.955 2.37 2.604 2.593 4.948h-5.01c-.07-.645-.252-1.155-.545-1.53-.55-.68-1.488-1.019-2.812-1.019-1.09 0-1.866.17-2.33.51-.462.34-.693.738-.693 1.195 0 .574.246.99.738 1.248.492.27 2.232.732 5.22 1.389 1.993.469 3.487 1.177 4.483 2.127.984.96 1.476 2.162 1.476 3.603 0 1.899-.706 3.448-2.118 4.65-1.412 1.2-3.594 1.801-6.548 1.801-3.011 0-5.235-.635-6.67-1.907-1.436-1.271-2.154-2.891-2.154-4.86h5.08zm21.27-15.328h-5.08V.932h5.08v4.623zm-5.08 2.285h5.08V27h-5.08V7.84zm21.902 14.062c.785-1.043 1.178-2.525 1.178-4.447 0-1.922-.393-3.401-1.178-4.438-.785-1.038-1.91-1.556-3.375-1.556s-2.593.518-3.384 1.556c-.79 1.037-1.186 2.516-1.186 4.438 0 1.922.395 3.404 1.186 4.447.791 1.043 1.92 1.565 3.384 1.565 1.465 0 2.59-.522 3.375-1.565zm4.008 2.769c-1.617 1.998-4.072 2.997-7.365 2.997s-5.748-.999-7.366-2.997c-1.617-1.998-2.425-4.403-2.425-7.216 0-2.766.808-5.162 2.425-7.19 1.618-2.027 4.073-3.04 7.366-3.04 3.293 0 5.748 1.013 7.365 3.04 1.617 2.028 2.426 4.424 2.426 7.19 0 2.813-.809 5.218-2.426 7.216zm21.49-15.733c1.259 1.038 1.889 2.757 1.889 5.16V27h-5.133V15.346c0-1.008-.135-1.782-.404-2.32-.492-.985-1.43-1.477-2.813-1.477-1.699 0-2.865.72-3.498 2.162-.328.762-.492 1.734-.492 2.918V27h-4.992V7.875h4.834v2.795c.644-.984 1.254-1.693 1.828-2.127 1.031-.773 2.338-1.16 3.92-1.16 1.98 0 3.6.518 4.86 1.555zM6.197 27H.818V1.09h5.38V27zm18.246-4.096c.317-.082.721-.228 1.213-.44l-2.619-2.495 2.795-2.918 2.62 2.496c.41-.844.696-1.582.86-2.215.258-.95.387-2.057.387-3.322 0-2.906-.595-5.154-1.784-6.741-1.19-1.588-2.927-2.382-5.212-2.382-2.144 0-3.855.761-5.133 2.285-1.277 1.523-1.916 3.803-1.916 6.838 0 3.55.914 6.094 2.742 7.629 1.184.996 2.602 1.494 4.254 1.494.621 0 1.22-.076 1.793-.229zm9.827-3.48c-.458 1.488-1.131 2.724-2.022 3.709l2.988 2.795-2.83 2.953-3.129-2.953c-.949.574-1.77.978-2.46 1.213-1.16.386-2.55.58-4.167.58-3.375 0-6.164-1.008-8.367-3.024-2.672-2.426-4.008-5.988-4.008-10.687 0-4.735 1.371-8.315 4.114-10.74C16.627 1.29 19.41.299 22.739.299c3.35 0 6.163 1.049 8.437 3.146 2.625 2.426 3.937 5.819 3.937 10.178 0 2.309-.281 4.242-.843 5.8z"/>
    </g>
</svg>
