<svg xmlns="http://www.w3.org/2000/svg" xmlns:xlink="http://www.w3.org/1999/xlink" width="129" height="65" viewBox="0 0 129 65">
    <defs>
        <path id="a" d="M128.914.692V65H0V.692z"/>
    </defs>
    <g fill="none" fill-rule="evenodd">
        <g transform="translate(0 -.692)">
            <mask id="b" fill="#fff">
                <use xlink:href="#a"/>
            </mask>
            <path fill="#A0A7AF" d="M61.089 3.155c-25.261 0-45.495 5.417-54.131 14.49-3.17 3.334-4.677 7.085-4.475 11.15.695 14.01 16.55 33.74 49.614 33.74 4.599 0 9.426-.397 14.347-1.182 34.585-5.51 60.204-23.522 60.005-35.944-.123-7.656-5.74-13.15-17.17-16.8-9.807-3.132-24.085-4.895-43.648-5.393a168.88 168.88 0 0 0-4.542-.06M52.097 65C17.416 65 .767 43.9.022 28.916c-.237-4.765 1.498-9.127 5.155-12.969C14.266 6.394 35.166.692 61.089.692c1.516 0 3.065.02 4.605.06 29.262.747 62.89 4.22 63.219 24.618.114 7.047-6.463 15.287-18.042 22.608-11.988 7.578-27.627 13.192-44.04 15.807C61.784 64.592 56.826 65 52.098 65" mask="url(#b)"/>
        </g>
        <path fill="#A0A7AF" d="M47.17 26.866h-2.923v6.076h-2.314v-6.076h-2.922v-1.915H47.17v1.915zm-9.239-1.915v7.991h-2.313l-3.627-4.526v4.526h-2.31v-7.99h2.31v.015l.053-.016 3.574 4.475v-4.475h2.313zm-11.633 7.991h2.314v-7.99h-2.314v7.99zm22.027 3.751l.68-1.515h7.09l-.676 1.515h-7.094zm29.498-5.555h2.873v-1.463h-2.938c-.828 0-.904.478-.904.73 0 .24.041.733.97.733zm-2.672-6.157l5.207.016c.723 0 1.33.278 1.826.837.496.558.746 1.214.746 2.075v5.033h-5.215c-2.744 0-3.109-1.782-3.109-2.31 0-1.185.502-2.668 3.271-2.668h2.82v-.52c0-.456-.216-.72-.75-.72H75.15v-1.743zm-10.175-.03v1.924h-5.479v4.211h5.48v1.856h-5.253c-1.25 0-2.602-1.278-2.602-2.787v-2.424c0-1.612 1.281-2.78 2.621-2.78h5.233zm26.907 0v1.924h-5.478v4.211h5.478v1.856h-5.252c-1.25 0-2.6-1.278-2.6-2.787v-2.424c0-1.612 1.28-2.78 2.618-2.78h5.234zm-35.819 0v1.915H50.61v1.331h3.565l-.678 1.516H50.61v1.425h5.454v1.804H50.84c-1.242 0-2.592-1.26-2.592-2.759V27.72c0-1.606 1.276-2.768 2.608-2.768h5.21zm43.063 7.991h-2.453V29.73l-3.713-4.76h2.672l2.24 3.118 2.282-3.118h2.722l-3.75 4.762v3.237-.027zm-27.947 0l-1.53-2.585h-1.353l-.002 2.585h-2.218l.006-7.972h4.914c2.533 0 3.047 1.606 3.047 2.596 0 1.995-1.319 2.446-1.932 2.666l1.666 2.71H71.18zm-.344-6.076h-2.584v1.806h2.584a.916.916 0 0 0 .952-.909c0-.398-.25-.897-.952-.897zM81.74 36.672c0-.887.683-1.449 1.524-1.449.592 0 .965.295 1.176.627l-.498.269a.83.83 0 0 0-.678-.367c-.523 0-.9.391-.9.92 0 .531.377.922.9.922.252 0 .487-.11.604-.217v-.334h-.756v-.521h1.363v1.076c-.293.32-.695.525-1.21.525-.842 0-1.526-.568-1.526-1.451M87.276 36.168c0-.23-.184-.373-.426-.373h-.642v.756h.642c.242 0 .426-.143.426-.383zm-.06 1.904l-.56-.996h-.448v.996H85.6V35.27h1.338c.596 0 .965.382.965.904 0 .49-.322.76-.63.83l.646 1.068h-.704zM91.405 36.672c0-.523-.34-.92-.867-.92-.53 0-.869.397-.869.92 0 .521.338.922.87.922.526 0 .866-.401.866-.922m-2.363 0c0-.844.631-1.449 1.496-1.449.861 0 1.49.605 1.49 1.449 0 .846-.629 1.451-1.49 1.451-.865 0-1.496-.605-1.496-1.451M93.153 36.95v-1.68h.617v1.663c0 .391.233.661.674.661.441 0 .668-.27.668-.66v-1.665h.623v1.68c0 .693-.418 1.174-1.29 1.174-.87 0-1.292-.48-1.292-1.174M98.536 36.174c0-.236-.184-.379-.422-.379h-.646v.75h.646c.238 0 .422-.141.422-.371zm-1.676 1.898V35.27h1.34c.621 0 .957.412.957.904 0 .486-.342.898-.957.898h-.732v1h-.608z"/>
    </g>
</svg>
