<svg xmlns="http://www.w3.org/2000/svg" xmlns:xlink="http://www.w3.org/1999/xlink" width="525" height="290" viewBox="0 0 525 290">
    <defs>
        <path id="a" d="M71.696 29.326h378.155v219.579H71.696z"/>
    </defs>
    <g fill="none" fill-rule="evenodd" transform="translate(1 1)">
        <path fill="#FEFEFE" fill-rule="nonzero" stroke="#5999E5" stroke-width="2" d="M448.286 0H73.96C63.774 0 55.092 8.327 55.092 18.641v245.317h412.061V18.641C467.153 8.326 458.503 0 448.286 0z"/>
        <ellipse cx="261.877" cy="14.287" stroke="#5999E5" stroke-width="2" rx="3.019" ry="3.008"/>
        <g stroke="#5999E5">
            <path fill="#FDFDFD" fill-rule="nonzero" stroke-width="2" d="M483.614 287.256H38.707c-23.13 0-38.707-7.908-38.707-11.27v-10.223c0-1.01 1.008-1.826 2.26-1.826h517.8c1.254 0 2.263.815 2.263 1.826v10.625c-.005 2.658-12.068 10.868-38.709 10.868z"/>
            <path stroke-linecap="square" d="M.377 274.84H520.92"/>
        </g>
        <path fill="#FFF" fill-rule="nonzero" stroke="#5999E5" d="M71.696 29.326h378.155v219.579H71.696zM317.724 264.69v2.32c0 1.656-3.27 2.155-5.745 2.155h-101.56c-2.604 0-5.898-.499-5.898-2.154v-2.322"/>
        <mask id="b" fill="#fff">
            <use xlink:href="#a"/>
        </mask>
        <g fill-rule="nonzero">
            <use fill="#FFF" fill-rule="evenodd" xlink:href="#a"/>
            <path stroke="#5999E5" d="M71.196 28.826h379.155v220.579H71.196z"/>
        </g>
        <path fill="#5999E5" fill-opacity=".4" d="M71.473 28.346h20.421v221.102H71.473z" mask="url(#b)"/>
        <path fill="#FFF" d="M78.554 34.016h2.995c.779 0 1.447.072 2.004.216a3.685 3.685 0 0 1 1.517.812c1.181 1.011 1.772 2.548 1.772 4.61 0 .68-.06 1.302-.178 1.864a5.501 5.501 0 0 1-.55 1.52 4.723 4.723 0 0 1-.951 1.21 3.938 3.938 0 0 1-.999.658c-.36.165-.749.28-1.164.348-.416.067-.884.1-1.405.1H78.6c-.418 0-.732-.063-.944-.19a.881.881 0 0 1-.414-.533 3.39 3.39 0 0 1-.097-.893v-8.315c0-.495.111-.853.333-1.075.222-.221.58-.332 1.076-.332zm.89 1.817v7.696h1.74c.383 0 .682-.01.899-.03.216-.022.44-.073.673-.156.232-.082.433-.198.603-.348.77-.65 1.154-1.768 1.154-3.356 0-1.12-.17-1.957-.507-2.514-.338-.557-.755-.911-1.25-1.064-.495-.152-1.094-.228-1.795-.228h-1.517z" mask="url(#b)"/>
        <rect width="10.21" height="7.937" x="76.011" y="58.961" fill="#98BCE7" mask="url(#b)" rx="3.969"/>
        <rect width="13.614" height="5.669" x="139.542" y="36.283" fill="#CAE0FB" mask="url(#b)" rx="2.835"/>
        <rect width="27.228" height="11.339" x="409.551" y="65.764" fill="#CAE0FB" mask="url(#b)" rx="5.669"/>
        <rect width="27.228" height="11.339" x="409.551" y="113.386" fill="#CAE0FB" mask="url(#b)" rx="5.669"/>
        <text fill="#BDD6F5" font-family="GothamRounded-Bold, Gotham Rounded" font-size="8" font-weight="bold" mask="url(#b)">
            <tspan x="98.701" y="41.685">DEALS</tspan>
        </text>
        <rect width="10.21" height="7.937" x="76.011" y="82.772" fill="#98BCE7" mask="url(#b)" rx="3.969"/>
        <rect width="10.21" height="7.937" x="76.011" y="106.583" fill="#98BCE7" mask="url(#b)" rx="3.969"/>
        <rect width="10.21" height="7.937" x="76.011" y="129.26" fill="#98BCE7" mask="url(#b)" rx="3.969"/>
        <rect width="10.21" height="7.937" x="76.011" y="153.071" fill="#98BCE7" mask="url(#b)" rx="3.969"/>
        <path fill="#BDD6F5" d="M159.963 47.622h289.295v1.134H159.963z" mask="url(#b)"/>
        <path fill="#EFF5FD" d="M159.963 95.244h289.295v1.134H159.963z" mask="url(#b)"/>
        <path fill="#98BCE7" d="M178.757 79.595h.1c.724 0 1.348-.424 1.622-1.298l2.596-7.832 2.57 7.832c.275.874.9 1.298 1.648 1.298h.1c.724 0 1.348-.424 1.672-1.347l3.594-10.128c.05-.15.125-.45.125-.674a1.4 1.4 0 0 0-1.423-1.396c-.798 0-1.273.523-1.472 1.172l-2.571 8.007-2.596-7.982c-.224-.699-.773-1.197-1.547-1.197H183c-.774 0-1.323.498-1.547 1.197l-2.571 7.982-2.546-7.982c-.225-.699-.724-1.197-1.472-1.197-.899 0-1.473.673-1.473 1.396 0 .25.075.574.15.774l3.544 10.028c.3.923.923 1.347 1.672 1.347z" mask="url(#b)"/>
        <text fill="#E5E5E5" font-family="GothamRounded-Bold, Gotham Rounded" font-size="8" font-weight="bold" mask="url(#b)">
            <tspan x="205.343" y="75.701">Name_Document.doc</tspan>
        </text>
        <text fill="#E5E5E5" font-family="GothamRounded-Bold, Gotham Rounded" font-size="8" font-weight="bold" mask="url(#b)">
            <tspan x="205.343" y="122.189">Name_Certificate.pdf</tspan>
        </text>
        <path fill="#F9B5B5" d="M175.823 124.461v-14.518c0-.873.674-1.546 1.548-1.546h5.34c4.094 0 6.64 2.32 6.64 5.837v.05c0 3.916-3.145 5.962-6.989 5.962h-3.469v4.215c0 .848-.674 1.522-1.522 1.522-.874 0-1.548-.674-1.548-1.522zm3.07-6.984h3.57c2.32 0 3.768-1.297 3.768-3.118v-.05c0-2.046-1.472-3.118-3.769-3.118h-3.569v6.286z" mask="url(#b)"/>
        <path fill="#EFF5FD" d="M159.963 142.866h289.295V144H159.963zM159.963 190.488h289.295v1.134H159.963zM91.894 47.622h68.069v1.134H91.894zM91.894 71.433h68.069v1.134H91.894zM91.894 95.244h68.069v1.134H91.894zM91.894 119.055h68.069v1.134H91.894z" mask="url(#b)"/>
        <path fill="#EFF5FD" d="M91.894 142.866h68.069V144H91.894zM91.894 166.677h68.069v1.134H91.894zM91.894 190.488h68.069v1.134H91.894z" mask="url(#b)"/>
        <path fill="#BDD6F5" d="M158.829 29.48h1.134v219.969h-1.134z" mask="url(#b)"/>
    </g>
</svg>
