<svg xmlns="http://www.w3.org/2000/svg" xmlns:xlink="http://www.w3.org/1999/xlink" width="359" height="352" viewBox="0 0 359 352">
    <defs>
        <path id="a" d="M150.812 0L336 3.335v267.884L0 279z"/>
        <path id="c" d="M0 352.363h365.524V.366H0z"/>
        <path id="e" d="M30.48.015V3.19H.472V.015h30.006z"/>
    </defs>
    <g fill="none" fill-rule="evenodd">
        <path fill="#D3D3D3" d="M110.522 81.736c35.498 0 65.81 22.278 77.841 53.668L127.07 247.553a83.416 83.416 0 0 1-16.548 1.658 82.919 82.919 0 0 1-26.828-4.436v20.94c0 3.204-2.61 5.826-5.8 5.826h-5.801c-3.19 0-5.8-2.622-5.8-5.825v-29.257a83.917 83.917 0 0 1-19.397-16.87 138.023 138.023 0 0 1-12.004-4.026c-9.768-3.782-15.082-5.84-20.322-10.041-1.09-.874-15.685-12.907-14.502-28.155.161-2.072.521-6.04 3.384-9.71 4.099-5.254 10.391-6.129 12.085-6.31l11.831-2.079a83.671 83.671 0 0 1 4.876-22.703 767.119 767.119 0 0 0-8.006-13.082c-2.713-4.332-4.069-6.498-4.84-7.628-3.892-5.708-5.05-6.453-4.828-7.42.317-1.381 3.265-2.41 11.62-2.41 5.47 0 13.257.441 24.138 1.512C65.505 91.64 86.86 81.736 110.522 81.736zm0 3.883c-11.03 0-21.707 2.226-31.733 6.615-9.685 4.24-18.321 10.294-25.669 17.99a3.859 3.859 0 0 1-3.169 1.178c-10.067-.99-18.061-1.493-23.761-1.493-2.796 0-4.733.122-6.061.272.663.903 1.481 2.045 2.46 3.48.807 1.183 2.16 3.343 4.855 7.647l.067.108a772.97 772.97 0 0 1 8.048 13.148 3.9 3.9 0 0 1 .315 3.342 79.824 79.824 0 0 0-4.649 21.646 3.878 3.878 0 0 1-3.19 3.541l-5.916 1.04-5.916 1.04a3.81 3.81 0 0 1-.257.036c-1.86.199-6.505 1.069-9.45 4.844-2.2 2.82-2.442 5.94-2.572 7.616-1.036 13.352 12.483 24.356 13.059 24.818 4.774 3.828 9.629 5.708 19.3 9.453a134.54 134.54 0 0 0 11.669 3.914 3.87 3.87 0 0 1 1.894 1.224 79.928 79.928 0 0 0 18.501 16.092 3.888 3.888 0 0 1 1.812 3.29v29.256c0 1.052.886 1.941 1.934 1.941h5.8c1.049 0 1.934-.889 1.934-1.941v-20.941c0-1.252.601-2.428 1.615-3.157a3.855 3.855 0 0 1 3.496-.52 79.054 79.054 0 0 0 25.584 4.23c4.693 0 9.406-.42 14.035-1.25l59.54-108.939c-5.8-14.185-15.476-26.314-28.07-35.158-13.38-9.396-29.116-14.362-45.505-14.362z"/>
        <path fill="#D3D3D3" d="M64.842 158.92c0 4.29-3.463 7.767-7.734 7.767s-7.734-3.478-7.734-7.767c0-4.29 3.463-7.767 7.734-7.767s7.734 3.478 7.734 7.767M81.435 119.422a1.945 1.945 0 0 1-.947-2.577c5.513-12.012 17.424-19.502 30.338-19.089 11.758.378 22.398 7.3 27.77 18.061a1.946 1.946 0 0 1-.863 2.606 1.931 1.931 0 0 1-2.595-.865c-4.735-9.488-14.098-15.588-24.436-15.92-11.362-.37-21.842 6.241-26.702 16.833a1.933 1.933 0 0 1-2.565.95z"/>
        <path fill="#FDFEFF" d="M91.962 105.732a29.271 29.271 0 0 1 17.835-6.035 29.27 29.27 0 0 1 17.835 6.035c5.943-5.076 9.718-12.635 9.718-21.084 0-15.281-12.336-27.67-27.553-27.67s-27.553 12.389-27.553 27.67c0 8.45 3.775 16.008 9.718 21.084"/>
        <path fill="#D3D3D3" d="M109.797 97.755c6.388 0 12.474 1.892 17.7 5.485a25.743 25.743 0 0 0 7.92-18.591c0-14.187-11.493-25.728-25.62-25.728-14.126 0-25.62 11.541-25.62 25.728a25.743 25.743 0 0 0 7.92 18.59c5.226-3.592 11.313-5.484 17.7-5.484zm17.902 10.468l-1.238-.946a27.23 27.23 0 0 0-16.664-5.638 27.23 27.23 0 0 0-16.664 5.638l-1.238.946-1.185-1.012a29.63 29.63 0 0 1-10.4-22.562c0-16.328 13.228-29.612 29.487-29.612 16.26 0 29.487 13.284 29.487 29.612a29.63 29.63 0 0 1-10.4 22.562l-1.185 1.012z"/>
        <path fill="#D3D3D3" d="M114.961 86.134c0-.986-.372-1.785-1.116-2.397-.744-.612-2.072-1.168-3.983-1.666-2.273-.56-4.038-1.395-5.294-2.506-1.255-1.11-1.883-2.51-1.883-4.203 0-1.784.672-3.266 2.015-4.444 1.343-1.177 3.11-1.766 5.301-1.766 2.377 0 4.27.677 5.681 2.031 1.41 1.354 2.095 2.934 2.053 4.74l-.045.093h-1.781c-.594 0-1.111-.415-1.233-1a4.099 4.099 0 0 0-1.241-2.19c-.895-.841-2.039-1.262-3.434-1.262-1.416 0-2.48.346-3.193 1.036-.713.69-1.07 1.595-1.07 2.716 0 .996.401 1.824 1.202 2.482.8.66 2.126 1.233 3.976 1.72 2.325.613 4.09 1.448 5.293 2.507 1.204 1.058 1.806 2.418 1.806 4.078 0 1.847-.72 3.37-2.162 4.568-1.442 1.199-3.305 1.798-5.588 1.798-2.18 0-4.105-.612-5.774-1.837-1.669-1.224-2.478-2.864-2.426-4.919l.031-.093h1.812c.59 0 1.08.426 1.203 1.006.201.944.705 1.706 1.511 2.286 1.075.773 2.289 1.16 3.643 1.16 1.426 0 2.565-.37 3.417-1.113.853-.742 1.28-1.683 1.28-2.825M8.962 176.609a.507.507 0 0 0-.168.028c-.757.264-.732 2.325.055 4.604.732 2.118 1.864 3.68 2.627 3.68.059 0 .115-.01.169-.029.757-.263.731-2.325-.056-4.604-.73-2.118-1.863-3.679-2.627-3.679m3.149 1.464h.002-.002M70.525 351.94c-.312 0-.627-.076-.92-.235a1.947 1.947 0 0 1-.779-2.633L256.614 1.382a1.93 1.93 0 0 1 2.622-.78 1.946 1.946 0 0 1 .777 2.632L72.226 350.924a1.932 1.932 0 0 1-1.701 1.016"/>
        <g>
            <g transform="translate(80 58)">
                <mask id="b" fill="#fff">
                    <use xlink:href="#a"/>
                </mask>
                <use fill="#FAFAFA" fill-opacity="0" xlink:href="#a"/>
                <g mask="url(#b)">
                    <g transform="translate(-79.842 -58.912)">
                        <path fill="#FCFEFF" d="M352.922 105.649H221.087v153.095h131.835l2.909-8.262-3.393-9.72 3.393-9.235-2.424-8.748-4.362-9.234 2.423-8.748.97-9.235-2.908-8.748.969-8.748.97-9.235-5.332-8.748 6.3-9.72-2.423-8.263 2.424-9.234-6.786-8.748 6.786-8.749.484-9.72"/>
                        <path fill="#D3D3D3" d="M223.026 256.8H351.55l2.224-6.32-3.397-9.735 3.417-9.302-2.211-7.983-4.6-9.738 2.573-9.29.909-8.655-2.91-8.753 1.016-9.173.9-8.568-5.627-9.232 6.481-9.998-2.324-7.924 2.317-8.828-7.123-9.183 7.336-9.458.352-7.067H223.026V256.8zm131.268 3.889H219.148V103.705H354.96l-.617 12.374-6.235 8.039 6.449 8.313-2.53 9.64 2.522 8.601-6.12 9.443 5.036 8.265-1.962 18.224 2.906 8.743-1.03 9.814-2.273 8.206 4.124 8.731 2.636 9.513-3.368 9.167 3.388 9.707-3.592 10.204z"/>
                        <path fill="#D3D3D3" d="M352.428 117.313l-100.33-.486.018-3.888 100.331.486zM352.436 134.81l-100.331-.097.004-3.888 100.33.097z"/>
                        <mask id="d" fill="#fff">
                            <use xlink:href="#c"/>
                        </mask>
                        <path fill="#D3D3D3" d="M252.107 152.598h100.33v-3.888h-100.33zM246.29 170.484h105.178v-3.888H246.291zM246.29 188.37h102.755v-3.889H246.29zM252.107 206.255h99.361v-3.889h-99.361zM252.107 224.14h101.3v-3.888h-101.3zM246.29 242.025h106.148v-3.888H246.29z" mask="url(#d)"/>
                        <path fill="#5999E5" d="M109.124 93.959V66.28c0-1.073.65-1.944 1.454-1.944.803 0 1.454.87 1.454 1.944V93.96c0 1.073-.651 1.944-1.454 1.944-.804 0-1.454-.87-1.454-1.944z" mask="url(#d)"/>
                    </g>
                </g>
                <g mask="url(#b)">
                    <path fill="#FCFEFF" d="M52.108 223.587h159.779V11.215H52.108z"/>
                    <path fill="#D3D3D3" d="M54.05 221.65h155.895V13.151H54.05v208.497zm-3.884 3.874H213.83V9.277H50.166v216.247z"/>
                    <path fill="#D3D3D3" d="M70.17 41.214h119.834V37.34H70.17zM70.17 64.772h119.834v-3.874H70.17zM70.17 88.33h119.834v-3.874H70.17zM70.17 111.889h119.834v-3.874H70.17zM70.17 135.448h119.834v-3.875H70.17zM70.17 159.006h59.948v-3.874H70.17z"/>
                    <path fill="#FAFAFA" d="M176.373 208.168c1.185 2.071 2.635 5.352 2.321 9.225-.464 5.736-4.488 8.946-6.6 12.176-2.977 4.546-4.628 12.891 2.707 29.565l4.78-14.65 14.55 13.102c-9.115-15.263-8.633-22.974-6.048-27.207 2.304-3.772 6.652-5.388 8.21-10.914 1.238-4.382-.018-8.606-1.29-11.513l-18.63.216"/>
                    <path fill="#D3D3D3" d="M179.442 210.07c.989 2.51 1.388 5.015 1.188 7.479-.394 4.862-3.013 8.108-5.117 10.715-.672.832-1.306 1.617-1.794 2.363-3.215 4.913-2.916 12.589.882 22.859l3.133-9.601a1.942 1.942 0 0 1 3.148-.838l6.614 5.955c-3.606-8.45-3.948-14.921-1.072-19.63 1.02-1.669 2.335-2.922 3.608-4.135 1.84-1.751 3.577-3.406 4.392-6.297.761-2.695.518-5.73-.722-9.036l-14.26.166zm-4.642 51.002a1.942 1.942 0 0 1-1.778-1.16c-6.25-14.21-7.086-24.481-2.555-31.403.594-.907 1.286-1.765 2.02-2.674 1.954-2.421 3.974-4.924 4.272-8.598.21-2.609-.486-5.337-2.073-8.108a1.932 1.932 0 0 1 .002-1.924 1.944 1.944 0 0 1 1.662-.974l18.63-.216c.771-.024 1.49.45 1.803 1.162 2.016 4.606 2.48 8.917 1.38 12.813-1.103 3.91-3.412 6.11-5.448 8.05-1.142 1.087-2.22 2.114-2.974 3.348-3.017 4.94-.98 13.421 6.059 25.206a1.935 1.935 0 0 1-.437 2.49 1.946 1.946 0 0 1-2.533-.06l-12.329-11.1-3.854 11.81a1.941 1.941 0 0 1-1.847 1.338z"/>
                    <path fill="#FAFAFA" d="M199.466 188.683c5.792 6.169 5.474 15.853-.711 21.63-6.185 5.777-15.894 5.46-21.686-.71-5.792-6.168-5.474-15.852.711-21.63 6.185-5.777 15.894-5.459 21.686.71"/>
                    <path fill="#D3D3D3" d="M187.155 185.784a13.369 13.369 0 0 0-9.156 3.603 13.261 13.261 0 0 0-4.233 9.318 13.257 13.257 0 0 0 3.612 9.574 13.328 13.328 0 0 0 9.341 4.223 13.358 13.358 0 0 0 9.6-3.603c5.393-5.038 5.671-13.512.62-18.892h.001a13.385 13.385 0 0 0-9.785-4.223m.018 30.6c-.193 0-.387-.003-.58-.01a17.191 17.191 0 0 1-12.05-5.446 17.1 17.1 0 0 1-4.66-12.35 17.108 17.108 0 0 1 5.46-12.018c6.957-6.497 17.917-6.14 24.432.799 6.514 6.939 6.155 17.87-.802 24.368a17.187 17.187 0 0 1-11.8 4.657M112 182.295c1.477 0 1.48-2.223 0-2.223-1.477 0-1.48 2.223 0 2.223"/>
                    <path fill="#D3D3D3" d="M108.934 202.929c-2.151 3.266-4.336 6.63-6.81 9.664-.35.428-.786 1.138-1.25 1.445-1.195.79-.363-.445-.074-1.237.593-1.62 1.503-3.147 2.455-4.584 1.935-2.917 4.341-5.167 6.928-7.231-.411.65-.825 1.3-1.249 1.943m3.523-10.586c.606-.599 1.265-1.205 1.982-1.668.113-.073 3.697-1.92 3.6-.767-1.655.617-2.683 3.01-3.57 4.33-.214.32-.419.644-.63.965-1.527 1.247-3.056 1.972-3.643 1.003-.67-1.103 1.542-3.151 2.261-3.863m-14.2 1.976c.448 1.97-.15 4.19-1.042 5.972-1.04 2.078-2.658 3.811-4.87 4.659-1.669.639-3.73.703-4.906-.998-.755-1.093-.004-3.575.43-4.647 1.378-3.41 5.483-5.73 9.066-7.44.608.723 1.109 1.513 1.323 2.454m55.558-.423c1.205.041 1.203-1.825 0-1.866-3.696-.127-7.359.42-10.98 1.098-1.874.35-5.211 1.587-7.107 1.235-1.74-.323-1.087-1.46-1.975-2.457-1.442-1.619-4.034-.708-6.544.927.224-.62.333-1.214.268-1.745-.257-2.062-2.416-1.707-3.887-1.253-1.572.486-3 1.249-4.366 2.126.116-.308.212-.623.276-.947a.82.82 0 0 0 .34-.53c.674-3.137-2.272-3.295-4.532-2.391-2.904 1.16-6.639 4.587-7.483 7.726-.58 2.152.59 2.82 2.085 2.78-.84.658-1.659 1.342-2.452 2.053a45.903 45.903 0 0 1-4.094 2.683c-.629.367-1.257.754-1.91 1.076-.478.237-.777.268-.935.386.271-.688.917-1.524 1.189-1.97 2.572-4.205 5.894-7.88 8.597-11.985 1.17-1.777 3.836-6.526-.414-5.945-2.703.368-5.442 1.75-7.952 2.75a73.405 73.405 0 0 0-4.542 1.972c-.564-.552-1.15-1.086-1.692-1.643-3.192-3.285-5.414-7.358-2.97-11.851 3.239-5.95 11.301-9.267 17.752-9.653 1.197-.072 1.205-1.938 0-1.866-7.74.464-18.456 5.031-20.46 13.361-1.074 4.46 1.338 8.22 4.355 11.328.395.407.825.807 1.251 1.213-.119.064-.24.122-.36.186-3.706 2.02-8.104 4.415-9.44 8.698-.945 3.031-.632 7.51 3.289 7.974 6.92.82 12.664-7.902 10.792-14.11-.252-.835-.683-1.556-1.206-2.216l.456-.209c2.836-1.299 5.803-2.492 8.777-3.45 1.382-.447 2.808-1.245 1.74.833a19.16 19.16 0 0 1-1.457 2.357c-2.695 3.781-5.704 7.345-8.132 11.315-.717 1.173-2.969 4.66-.212 5.016.718.092 1.563-.19 2.412-.618-1.862 2.44-3.834 5.547-3.903 8.406-.054 2.211 1.484 2.64 3.15 1.31 3.467-2.766 5.935-7.556 8.368-11.17 1.407-2.091 2.7-4.25 4.044-6.382.131-.209.267-.415.4-.622.964-.715 1.932-1.437 2.89-2.19.853-.668 7.058-5.418 8.23-4.319.708.664-2.763 4.957-4.138 6.593-.198.222-.368.42-.497.584-.728.921.516 2.241 1.323 1.32.336-.385.792-.886 1.29-1.455 1.69-1.733 3.738-3.22 5.834-4.317 1.7-.89 1.761-1.143 3.292.643.089.103.013.35.128.471.738.773.811.814 1.807 1.05 2.222.527 5.484-.643 7.644-1.051 3.852-.729 7.725-1.394 11.661-1.259"/>
                    <g transform="translate(143.05 196.745)">
                        <mask id="f" fill="#fff">
                            <use xlink:href="#e"/>
                        </mask>
                        <path fill="#D3D3D3" d="M30.47 3.165a53.152 53.152 0 0 0-7.052-2.003A53.795 53.795 0 0 0 16.072.14 53.948 53.948 0 0 0 1.134 1.205c-.493.134-.77.6-.621 1.04.149.442.67.69 1.162.557a51.89 51.89 0 0 1 7.081-1.404A52.687 52.687 0 0 1 16.03.986c2.437.036 4.877.235 7.292.605 2.415.368 4.802.907 7.138 1.6.008.002.017-.001.02-.008.003-.007 0-.015-.009-.018" mask="url(#f)"/>
                    </g>
                </g>
            </g>
        </g>
    </g>
</svg>
