<svg xmlns="http://www.w3.org/2000/svg" xmlns:xlink="http://www.w3.org/1999/xlink" width="122" height="122" viewBox="0 0 122 122">
    <defs>
        <circle id="a" cx="61" cy="61" r="61"/>
        <path id="c" d="M42.425.727H.608v28.938h41.816V.727z"/>
    </defs>
    <g fill="none" fill-rule="evenodd">
        <mask id="b" fill="#fff">
            <use xlink:href="#a"/>
        </mask>
        <use fill="#ECF8FF" xlink:href="#a"/>
        <g mask="url(#b)">
            <path fill="#BBBDBF" d="M43.761 112.157c-.829 0-1.5.856-1.5 1.91v7.64h3v-7.64c0-1.054-.67-1.91-1.5-1.91zM76.766 112.168c-.822 0-1.49.927-1.49 2.068v8.333h2.98v-8.333c0-1.141-.668-2.068-1.49-2.068"/>
            <path fill="#D0D2D3" d="M52.54 89.394c-.102.025-.197.058-.298.084.098-.023.2-.04.297-.061v-.023zM68.657 92.862c0 4.65-3.809 8-8.46 7.99-4.652.01-8.46-3.34-8.46-7.99V89.62c-10.33 2.85-17.772 10.76-17.772 20.093v12.045c0 1.05.85 1.9 1.9 1.9h6.396v-10a1.5 1.5 0 0 1 3 0v10l11.765 11.23a4.613 4.613 0 0 0 6.355.014l11.895-11.245v-10a1.49 1.49 0 0 1 2.98 0v10h7.026c.608 0 1.101-.493 1.101-1.102v-12.842c0-9.32-7.419-17.22-17.726-20.08v3.23zM67.81 89.394v.013l.176.037c-.06-.015-.116-.035-.176-.05"/>
            <path fill="#BBBDBF" d="M60.197 100.851c4.65.011 8.46-3.34 8.46-7.989v-3.279c-.22-.055-.45-.089-.671-.139-.058-.014-.118-.024-.176-.037-.585-.129-1.166-.265-1.765-.365a30.385 30.385 0 0 1-5.826.577h-.044c-1.995 0-3.94-.209-5.826-.577-.614.102-1.21.241-1.81.374-.098.022-.198.04-.296.062-.167.038-.341.063-.507.104V92.862c0 4.65 3.81 8 8.46 7.99"/>
            <path fill="#D0D2D3" d="M56.108 117.106l-3.02-3.02a.738.738 0 0 1 .522-1.26h2.262c.826 0 1.496.67 1.496 1.496v2.262a.738.738 0 0 1-1.26.522"/>
            <path fill="#231F20" d="M60.174 72.425c-3.338 0-6.069 2.73-6.069 6.069v.483c0-3.338 2.731-6.07 6.07-6.07 3.337 0 6.068 2.732 6.068 6.07v-.483c0-3.338-2.73-6.07-6.069-6.07"/>
            <path fill="#FFE1AD" d="M54.105 87.9V92.23c0 3.338 2.731 6.07 6.07 6.07 3.337 0 6.07-2.732 6.07-6.07V87.9a21.948 21.948 0 0 1-12.14 0"/>
            <path fill="#D7B48A" d="M54.105 84.866V87.9a21.941 21.941 0 0 0 12.14 0v-3.27a21.96 21.96 0 0 1-6.487.975c-1.955 0-3.849-.259-5.653-.738"/>
            <path fill="#FCCA80" d="M81.724 49.2v9.539c.123 0 .24.018.365.009a4.792 4.792 0 0 0 4.413-5.143c-.193-2.515-2.297-4.404-4.778-4.404M37.426 49.192a4.79 4.79 0 0 0-4.412 5.143c.192 2.515 2.297 4.404 4.777 4.404V49.2c-.121 0-.24-.02-.364-.01"/>
            <path fill="#CD7C4F" d="M81.724 48.927c4.328-4.756 5.305-11.941 1.918-17.807a3.672 3.672 0 0 0-5.016-1.344l-2.722 1.572a21.886 21.886 0 0 1 5.82 14.889v2.69zM45.279 29.726l-.677-.391a3.672 3.672 0 0 0-5.016 1.343 15.127 15.127 0 0 0-1.453 11.72 21.931 21.931 0 0 1 7.146-12.673"/>
            <path fill="#FFE1AD" d="M81.724 48.927v-2.69a21.886 21.886 0 0 0-5.82-14.89c-4.014-4.35-9.761-7.076-16.146-7.076a21.88 21.88 0 0 0-14.48 5.455 21.931 21.931 0 0 0-7.145 12.673 22.064 22.064 0 0 0-.341 3.838V63.413h.006c-.001.076-.006.15-.006.225 0 10.177 6.922 18.734 16.314 21.229a21.99 21.99 0 0 0 5.652.737c2.258 0 4.436-.341 6.486-.974 8.965-2.767 15.48-11.118 15.48-20.992 0-.075-.005-.15-.006-.225h.006V48.927z"/>
            <path fill="#BC7455" d="M45.85 54.3a1.25 1.25 0 0 1-.346-2.451 12.874 12.874 0 0 1 7.037-.003 1.25 1.25 0 1 1-.69 2.403 10.342 10.342 0 0 0-5.654.002 1.264 1.264 0 0 1-.347.05"/>
            <path fill="#FCCA80" d="M62.552 63.935a8.582 8.582 0 0 1-2.381.335c-.824 0-1.62-.116-2.373-.332"/>
            <path fill="#FCCA80" d="M60.17 65.27a9.57 9.57 0 0 1-2.649-.372.999.999 0 1 1 .552-1.922 7.65 7.65 0 0 0 4.201-.002 1 1 0 0 1 .554 1.922 9.61 9.61 0 0 1-2.658.374"/>
            <path fill="#BC7455" d="M67.656 54.3a1.25 1.25 0 0 1-.346-2.451 12.846 12.846 0 0 1 7.037-.003 1.25 1.25 0 1 1-.69 2.403 10.345 10.345 0 0 0-5.654.002 1.264 1.264 0 0 1-.347.05"/>
            <path fill="#473A4F" d="M69.334 58.029a.592.592 0 0 1-.544-.815 2.197 2.197 0 0 1 4.079 0 .592.592 0 0 1-.544.815h-2.991zM47.669 58.029c-.485 0-.837-.506-.628-.943a2.195 2.195 0 0 1 3.966 0c.209.437-.143.943-.628.943h-2.71zM65.507 70.425c1.492 0 2.494 1.52 1.94 2.906a7.832 7.832 0 0 1-14.544 0c-.554-1.385.448-2.906 1.94-2.906h10.664z"/>
            <path fill="#FBC39C" d="M73.604 62.37c0 .73-1.184 1.322-2.644 1.322-1.46 0-2.643-.592-2.643-1.322 0-.73 1.183-1.322 2.643-1.322 1.46 0 2.644.592 2.644 1.322M51.2 62.37c0 .73-1.185 1.322-2.645 1.322s-2.643-.592-2.643-1.322c0-.73 1.183-1.322 2.643-1.322 1.46 0 2.644.592 2.644 1.322"/>
            <path fill="#FEFEFE" d="M63.7 73.104h-7.007a2.164 2.164 0 0 1-2.164-2.163v-.516h11.335v.516a2.163 2.163 0 0 1-2.163 2.163"/>
            <path fill="#F3795D" d="M60.176 75.354a4.376 4.376 0 0 0-3.652 1.982 7.779 7.779 0 0 0 3.652.918c1.322 0 2.56-.34 3.652-.918a4.376 4.376 0 0 0-3.652-1.982"/>
            <path fill="#BD7857" d="M82.85 34.645c-.521 5.018-6.95 11.207-21.121 11.207-14.17 0-21.12-7.674-21.12-16.204 0 0 4.849-.832 19.02-.832 14.17 0 24.1-2.655 23.22 5.829"/>
            <g transform="translate(40 14.273)">
                <mask id="d" fill="#fff">
                    <use xlink:href="#c"/>
                </mask>
                <path fill="#CD7C4F" d="M42.425 14.498c0 9.389-7.616 15.167-19.147 15.167-15.18 0-22.67-7.026-22.67-16.415 0-8.106 12.262-19.11 25.081-7.456 10.438 9.488 16.736-.685 16.736 8.704" mask="url(#d)"/>
            </g>
        </g>
    </g>
</svg>
