<svg xmlns="http://www.w3.org/2000/svg" width="32" height="37" viewBox="0 0 32 37">
    <g fill="none" fill-rule="evenodd" opacity=".103">
        <path fill="#FFF" d="M31.733 15.625c.156.406.227.895.214 1.466-.014.571-.11 1.058-.29 1.46l-7.723 17.346c-.178.402-.471.68-.877.837-.406.156-.81.144-1.212-.035L1.607 27.69a1.526 1.526 0 0 1-.837-.878 1.526 1.526 0 0 1 .035-1.212L11.532 1.506c.178-.402.471-.68.877-.836.406-.156.81-.145 1.212.034L27.113 6.71c.402.179.799.476 1.191.891.393.416.667.826.823 1.233l2.606 6.79z"/>
        <path fill="#2A5698" fill-opacity=".81" d="M31.733 15.625c.156.406.227.895.214 1.466-.014.571-.11 1.058-.29 1.46l-7.723 17.346c-.178.402-.471.68-.877.837-.406.156-.81.144-1.212-.035L1.607 27.69a1.526 1.526 0 0 1-.837-.878 1.526 1.526 0 0 1 .035-1.212L11.532 1.506c.178-.402.471-.68.877-.836.406-.156.81-.145 1.212.034L27.113 6.71c.402.179.799.476 1.191.891.393.416.667.826.823 1.233l2.606 6.79zm-5.05-6.651l-2.52 5.662 5.661 2.52c.03-.335.01-.59-.056-.765L27.153 9.58c-.067-.174-.223-.376-.47-.606zm-4.462 25.583l6.866-15.42-6.265-2.789a1.526 1.526 0 0 1-.836-.877 1.526 1.526 0 0 1 .034-1.212l2.79-6.264-11.565-5.15-10.298 23.13 19.274 8.582zM15.052 15.2l-.717 1.61-1.355-.603-1.446 7.26c-.04.223-.107.47-.203.74l-.11.329.06.027.2-.29c.037-.055.103-.155.197-.3.095-.144.172-.257.232-.339l5.823-7.241 1.716.764-1.485 9.173c-.02.099-.051.236-.092.41a37.51 37.51 0 0 0-.08.343l-.097.336.06.027.172-.303c.136-.252.274-.467.413-.646l4.428-5.932-1.355-.603.717-1.611 4.517 2.011-.717 1.611-1.054-.469-6.901 8.854-2.395-1.066 1.325-8.161c.01-.104.04-.247.091-.429s.078-.29.081-.324l.116-.382-.06-.027c-.036.08-.1.196-.191.348-.146.248-.3.456-.459.626l-5.18 6.445-2.393-1.066 1.962-11.053-1.054-.47.717-1.61 4.517 2.01z"/>
    </g>
</svg>
