<svg xmlns="http://www.w3.org/2000/svg" width="48" height="48" viewBox="0 0 48 48">
    <path fill="#FFF" fill-rule="evenodd" d="M9.139 0h23.553c.403 0 .735.125.994.375.26.25.524.5.793.75.365.326.726.653 1.081.98a20.3 20.3 0 0 1 1.024 1.009c.71.691 1.408 1.383 2.09 2.075.682.692 1.37 1.384 2.061 2.076.077.077.14.149.188.216.048.067.11.14.187.216.346.462.59.956.735 1.485.144.529.207 1.071.187 1.629 0 .327-.004.648-.014.966-.01.317-.014.639-.014.965 0 1.038.004 2.057.014 3.056.01 1 .014 2.018.014 3.056 0 .308.005.605.015.894.01.288.005.576-.015.865 0 .845.231 1.624.692 2.335.423.653.836 1.302 1.24 1.946.404.644.826 1.283 1.268 1.917.442.672.875 1.336 1.298 1.989.423.653.855 1.317 1.297 1.99.115.21.173.412.173.605v13.491c0 .116-.005.236-.014.36-.01.126-.024.236-.044.332-.134.73-.451 1.312-.951 1.745-.5.432-1.115.648-1.845.648-7.015.02-13.987.024-20.915.015-6.929-.01-13.9-.005-20.916.014-.442 0-.874-.062-1.297-.187a2.935 2.935 0 0 1-1.124-.62 3.997 3.997 0 0 1-.635-.822C.086 46.073 0 45.713 0 45.291V31.365c0-.154.014-.264.043-.332.03-.067.053-.12.072-.158.058-.116.12-.231.188-.346.067-.116.13-.23.187-.346.096-.154.183-.308.26-.461.076-.154.163-.308.259-.462.327-.5.649-.985.966-1.456.317-.47.639-.956.966-1.455.384-.558.768-1.12 1.153-1.687.384-.567.768-1.13 1.153-1.686.192-.27.355-.553.49-.85.134-.299.211-.611.23-.938 0-.672.005-1.34.015-2.003.01-.663.014-1.331.014-2.004 0-1.691-.004-3.368-.014-5.03-.01-1.663-.014-3.34-.014-5.031V4.959a5.512 5.512 0 0 1 .201-1.874 5.423 5.423 0 0 1 .606-1.514c.269-.451.653-.821 1.153-1.11a4.16 4.16 0 0 1 .62-.302c.26-.106.456-.159.59-.159zm21.938 29.982h8.505c.192 0 .303-.014.332-.043.028-.03.062-.13.1-.303v-9.6c0-3.133-.01-6.285-.028-9.456a1.72 1.72 0 0 0-.087-.548 2.843 2.843 0 0 0-.375-.893 4.497 4.497 0 0 0-.605-.75c-.903-.922-1.797-1.83-2.681-2.724a239.947 239.947 0 0 0-2.71-2.696c-.654-.672-1.47-1.009-2.45-1.009-.712-.019-1.418-.019-2.12 0-.7.02-1.417.03-2.147.03H10.537c-.24 0-.495.018-.764.057-.23.038-.456.1-.678.187a1.332 1.332 0 0 0-.562.418 1.79 1.79 0 0 0-.403.721c-.077.269-.116.548-.116.836-.038 8.457-.038 16.903 0 25.34v.13c0-.01-.01.12-.028.39h9.023c0 .115-.005.225-.014.331-.01.106-.005.216.014.332.038.307.062.61.072.908.01.298.053.6.13.908.192.865.524 1.638.994 2.32a7.983 7.983 0 0 0 1.773 1.831c.615.442 1.26.76 1.932.951a9.442 9.442 0 0 0 2.104.346c.5 0 .98-.057 1.442-.173a7.112 7.112 0 0 0 1.888-.72 7.879 7.879 0 0 0 1.629-1.211c.692-.692 1.192-1.46 1.5-2.306.114-.327.21-.644.287-.952a7.78 7.78 0 0 0 .173-.922c.039-.289.063-.572.072-.85.01-.28.034-.573.072-.88zM1.99 32.029v11.185a9.353 9.353 0 0 0 .058 1.038c.038.27.11.51.216.721.106.211.264.394.476.548.211.173.442.293.692.36.25.067.509.101.778.101 13.011.038 26.032.038 39.063 0h.505c.163 0 .331-.01.504-.029.25-.038.48-.11.692-.216.211-.106.394-.264.548-.476.326-.384.49-.874.49-1.47V32.432c0-.173-.015-.273-.043-.302-.03-.03-.13-.044-.303-.044H33.153a.255.255 0 0 1-.115.073.129.129 0 0 0-.087.072 8.024 8.024 0 0 1-.317 1.138c-.134.375-.278.755-.432 1.14-.423.999-1.019 1.93-1.788 2.796a7.56 7.56 0 0 1-2.68 1.931 8.662 8.662 0 0 1-1.356.461 8.678 8.678 0 0 1-1.441.23c-.461.02-.923.03-1.384.03-.461 0-.932-.048-1.412-.144a21.207 21.207 0 0 1-1.182-.318 6.292 6.292 0 0 1-1.125-.46 7.526 7.526 0 0 1-2.335-1.846c-.25-.307-.48-.615-.692-.922a12.109 12.109 0 0 1-.605-.98 9.81 9.81 0 0 1-.678-1.485c-.182-.51-.35-1.024-.504-1.543-.039-.153-.144-.23-.317-.23H1.989zm43.013-2.105a835.81 835.81 0 0 1-1.427-2.119 120.26 120.26 0 0 0-1.456-2.119v4.238h2.883zm-39.12 0v-4.238a1036.335 1036.335 0 0 0-2.884 4.238h2.883zm17.123-7.61V7.178c0-.173.02-.34.058-.504a.856.856 0 0 1 .288-.447.717.717 0 0 1 .52-.23c.191 0 .384.019.576.057.269.096.432.327.49.692a.808.808 0 0 1 .058.303v.331c.019 2.441.028 4.872.028 7.294v7.64c.154-.173.298-.332.433-.476.134-.144.279-.293.432-.447l.577-.692.85-.908c.279-.298.553-.6.822-.908.307-.327.61-.663.908-1.01.298-.345.6-.681.908-1.008a78.649 78.649 0 0 1 2.335-2.566c.154-.173.317-.274.49-.303a1.023 1.023 0 0 1 .923.317c.115.125.202.274.26.447a.732.732 0 0 1 .014.476c-.048.163-.12.303-.216.418-.193.23-.385.457-.577.678-.192.22-.394.437-.605.648-.327.385-.663.764-1.01 1.139-.345.375-.682.754-1.008 1.139-.154.173-.313.346-.476.519a8.838 8.838 0 0 0-.476.547c-.365.385-.725.779-1.08 1.182-.356.404-.717.808-1.082 1.211l-1.124 1.21c-.27.29-.534.582-.793.88-.26.298-.524.582-.793.85-.211.27-.456.404-.735.404-.279 0-.524-.134-.735-.403a37.82 37.82 0 0 0-1.182-1.298 37.82 37.82 0 0 1-1.182-1.297 15.13 15.13 0 0 1-.548-.577l-.519-.576a37.175 37.175 0 0 0-1.009-1.139 37.176 37.176 0 0 1-1.009-1.139l-.461-.518a11.462 11.462 0 0 0-.461-.49l-2.249-2.509a4.095 4.095 0 0 1-.274-.302 2.622 2.622 0 0 1-.245-.36c-.269-.5-.163-.923.317-1.27a.967.967 0 0 1 .663-.201c.23.02.433.125.606.317.269.27.533.548.793.836.259.288.523.577.792.865l.923 1.038c.365.384.72.778 1.066 1.182.346.403.702.797 1.067 1.182.154.192.317.375.49.548.173.173.337.355.49.547.25.27.5.548.75.836.25.289.51.577.778.865.02 0 .068.039.144.116z"/>
</svg>
