<svg xmlns="http://www.w3.org/2000/svg" xmlns:xlink="http://www.w3.org/1999/xlink" width="91" height="54" viewBox="0 0 91 54">
    <defs>
        <path id="a" d="M31.446.016v3.488H.488V.016h30.958z"/>
    </defs>
    <g fill="none" fill-rule="evenodd">
        <path fill="#999" d="M27.458 18.305c1.219 0 1.221-1.83 0-1.83-1.22 0-1.222 1.83 0 1.83"/>
        <path fill="#FFF" d="M24.372 39.71c-2.227 3.377-4.489 6.855-7.05 9.99-.361.442-.812 1.176-1.293 1.493-1.237.817-.375-.46-.076-1.278.613-1.675 1.556-3.253 2.541-4.738 2.003-3.015 4.493-5.34 7.17-7.475-.425.673-.854 1.344-1.292 2.009m3.646-10.942c.627-.619 1.309-1.246 2.051-1.725.117-.075 3.826-1.983 3.726-.792-1.713.638-2.777 3.111-3.694 4.475-.222.33-.434.666-.652.999-1.581 1.288-3.164 2.038-3.771 1.036-.693-1.14 1.596-3.257 2.34-3.993m-14.696 2.043c.463 2.036-.156 4.33-1.08 6.172-1.076 2.149-2.75 3.94-5.04 4.816-1.727.66-3.86.727-5.077-1.031-.781-1.13-.004-3.696.445-4.804 1.426-3.525 5.675-5.923 9.382-7.69.63.748 1.148 1.564 1.37 2.537m57.502-.438c1.246.043 1.245-1.886 0-1.928-3.826-.132-7.617.434-11.364 1.135-1.94.362-5.394 1.64-7.356 1.276-1.801-.334-1.125-1.509-2.044-2.54-1.493-1.673-4.176-.731-6.774.959.232-.642.346-1.255.278-1.804-.266-2.132-2.5-1.765-4.023-1.295-1.627.502-3.105 1.29-4.519 2.198.12-.32.22-.645.286-.98a.847.847 0 0 0 .352-.547c.698-3.243-2.352-3.406-4.69-2.472-3.006 1.2-6.872 4.741-7.746 7.986-.6 2.224.611 2.916 2.159 2.874a49.32 49.32 0 0 0-2.538 2.122 47.514 47.514 0 0 1-4.237 2.773c-.651.38-1.302.78-1.977 1.112-.495.245-.804.277-.968.399.281-.711.95-1.576 1.23-2.036 2.663-4.347 6.102-8.144 8.899-12.389 1.21-1.836 3.97-6.745-.429-6.145-2.797.382-5.632 1.81-8.23 2.844a76.025 76.025 0 0 0-4.7 2.038c-.585-.57-1.191-1.123-1.752-1.699-3.304-3.395-5.604-7.605-3.073-12.25 3.35-6.15 11.696-9.578 18.372-9.977 1.239-.074 1.247-2.003 0-1.929C17.97.58 6.878 5.3 4.803 13.91c-1.11 4.611 1.386 8.497 4.51 11.71.408.42.853.833 1.293 1.254-.123.065-.249.126-.371.192-3.837 2.087-8.388 4.563-9.771 8.99-.979 3.133-.655 7.762 3.403 8.242 7.162.847 13.107-8.168 11.17-14.583-.26-.864-.707-1.61-1.248-2.292.158-.073.32-.145.471-.216 2.937-1.342 6.007-2.576 9.085-3.567 1.43-.46 2.906-1.286 1.801.862a19.8 19.8 0 0 1-1.508 2.436c-2.79 3.909-5.904 7.592-8.416 11.696-.743 1.213-3.073 4.816-.22 5.184.743.096 1.618-.195 2.497-.638-1.928 2.522-3.969 5.734-4.04 8.689-.056 2.285 1.535 2.728 3.26 1.354 3.589-2.86 6.143-7.81 8.66-11.545 1.457-2.162 2.794-4.394 4.186-6.597.136-.216.277-.43.415-.644.996-.739 1.998-1.485 2.99-2.263.883-.69 7.305-5.6 8.518-4.464.733.685-2.86 5.124-4.282 6.814-.206.23-.382.435-.515.604-.754.952.534 2.316 1.369 1.364.348-.398.82-.916 1.336-1.504 1.748-1.791 3.868-3.329 6.037-4.461 1.76-.92 1.823-1.182 3.408.664.092.106.013.362.132.487.763.798.84.84 1.87 1.084 2.3.546 5.677-.664 7.912-1.085 3.987-.754 7.994-1.442 12.069-1.302"/>
        <g transform="translate(59.492 32.95)">
            <mask id="b" fill="#fff">
                <use xlink:href="#a"/>
            </mask>
            <path fill="#FFF" d="M31.436 3.475a52.305 52.305 0 0 0-7.276-2.2A52.36 52.36 0 0 0 16.582.155 52.313 52.313 0 0 0 1.17 1.324c-.508.147-.795.658-.64 1.142.153.484.69.757 1.198.61a50.695 50.695 0 0 1 7.306-1.54c2.478-.34 4.988-.481 7.503-.454 2.515.04 5.032.259 7.523.664 2.491.404 4.955.997 7.364 1.757.009.002.018-.001.021-.009a.015.015 0 0 0-.009-.02" mask="url(#b)"/>
        </g>
    </g>
</svg>
