<svg xmlns="http://www.w3.org/2000/svg" width="120" height="120" viewBox="0 0 120 120">
    <path fill="#FFF" fill-rule="nonzero" d="M42.906 36.969a1 1 0 0 0-.125.031A1 1 0 0 0 42 38v7h-2c-1.645 0-3 1.355-3 3v2c0 1.645 1.355 3 3 3h6c1.645 0 3-1.355 3-3v-2c0-1.645-1.355-3-3-3h-2v-7a1 1 0 0 0-1.094-1.031zm17 0a1 1 0 0 0-.125.031A1 1 0 0 0 59 38v28h-2c-1.645 0-3 1.355-3 3v2c0 1.645 1.355 3 3 3h6c1.645 0 3-1.355 3-3v-2c0-1.645-1.355-3-3-3h-2V38a1 1 0 0 0-1.094-1.031zm17 0a1 1 0 0 0-.125.031A1 1 0 0 0 76 38v10h-2c-1.645 0-3 1.355-3 3v2c0 1.645 1.355 3 3 3h6c1.645 0 3-1.355 3-3v-2c0-1.645-1.355-3-3-3h-2V38a1 1 0 0 0-1.094-1.031zM40 47h6c.565 0 1 .435 1 1v2c0 .565-.435 1-1 1h-6c-.565 0-1-.435-1-1v-2c0-.565.435-1 1-1zm34 3h6c.565 0 1 .435 1 1v2c0 .565-.435 1-1 1h-6c-.565 0-1-.435-1-1v-2c0-.565.435-1 1-1zm-32 4v6.813A1 1 0 0 0 42 61v21a1 1 0 1 0 2 0V61a1 1 0 0 0 0-.188V54h-2zm34 3v6.813A1 1 0 0 0 76 64v18a1 1 0 1 0 2 0V64a1 1 0 0 0 0-.188V57h-2zM57 68h6c.565 0 1 .435 1 1v2c0 .565-.435 1-1 1h-6c-.565 0-1-.435-1-1v-2c0-.565.435-1 1-1zm2 7v1.813A1 1 0 0 0 59 77v5a1 1 0 1 0 2 0v-5a1 1 0 0 0 0-.188V75h-2z"/>
</svg>
