<svg xmlns="http://www.w3.org/2000/svg" width="58" height="58" viewBox="0 0 58 58">
    <path fill="#5999E5" fill-rule="nonzero" d="M29 0C13.012 0 0 13.008 0 29s13.012 29 29 29 29-13.008 29-29S44.988 0 29 0zm0 2c14.887 0 27 12.113 27 27S43.887 56 29 56 2 43.887 2 29 14.113 2 29 2zm.465 4.012c-1.113-.024-2.211.039-3.297.176-.164.019-.332.039-.496.062-.352.055-.703.11-1.05.18-.142.027-.282.058-.423.09-.62.132-1.234.289-1.84.472-.18.055-.355.106-.53.164-.29.094-.571.2-.856.305-.243.09-.48.184-.723.281-.242.102-.488.2-.727.309-.457.207-.906.426-1.351.66-.129.07-.25.148-.379.219-.367.203-.734.418-1.09.644-.14.09-.281.18-.422.274-.383.254-.761.523-1.129.8-.078.055-.156.11-.23.165-.45.351-.89.718-1.317 1.105-.066.059-.128.121-.195.18-.226.21-.453.418-.672.636-.078.079-.144.168-.222.246-.356.364-.692.743-1.024 1.13-.137.16-.281.316-.414.48-.433.539-.844 1.098-1.23 1.676-.114.175-.211.351-.32.527-.266.422-.524.844-.762 1.285-.133.25-.25.504-.375.754-.125.254-.262.496-.375.754-.09.203-.168.406-.254.605-.032.082-.067.16-.098.243a22.008 22.008 0 0 0-.695 1.976 22.851 22.851 0 0 0-.852 8.781c0 .008.004.016.004.028.066.687.164 1.37.293 2.047l.059.28c.12.599.261 1.184.43 1.77.046.172.1.34.152.512.16.512.34 1.02.53 1.52.087.215.173.425.263.636A22.176 22.176 0 0 0 8.82 40a22.933 22.933 0 0 0 2.207 3.328c.078.102.16.207.243.309.44.531.906 1.047 1.39 1.539.027.027.05.058.078.086.004.004.012.004.016.008a22.99 22.99 0 0 0 6.836 4.714 22.91 22.91 0 0 0 9.379 2.012c6.07 0 11.965-2.422 16.285-6.73.004-.004.008-.004.012-.008.03-.031.062-.07.093-.102.453-.46.887-.945 1.305-1.449.117-.14.234-.281.348-.426.347-.441.683-.894 1.004-1.363.078-.121.168-.238.25-.36.363-.562.703-1.14 1.02-1.738.093-.172.175-.347.26-.523.15-.293.302-.586.438-.89.086-.188.16-.384.239-.575.047-.102.09-.203.132-.305a24.505 24.505 0 0 0 .696-2.015 22.849 22.849 0 0 0-.813-15.317 24.166 24.166 0 0 0-.707-1.558c-.008-.02-.027-.032-.035-.047a22.922 22.922 0 0 0-6.328-7.711 1 1 0 0 0-1.234 1.574 20.731 20.731 0 0 1 1.914 1.7 20.747 20.747 0 0 1 4.543 6.812c.039.09.078.18.113.27a21.157 21.157 0 0 1 .61 13.78c-.18.598-.387 1.188-.618 1.774l-.117.277c-.149.36-.32.711-.488 1.059-.172.352-.344.691-.528 1.027-.16.29-.328.57-.504.852-.187.309-.379.605-.578.902-.207.297-.426.59-.648.88a18.276 18.276 0 0 1-1.39 1.625c-5.97 6.3-15.485 8.495-23.837 4.75a20.867 20.867 0 0 1-6.5-4.583c-.25-.258-.484-.527-.719-.797a23.066 23.066 0 0 1-.699-.828c-.172-.219-.328-.445-.488-.668a17.965 17.965 0 0 1-.738-1.07c-.106-.164-.2-.336-.297-.504-.254-.426-.5-.856-.723-1.3-.066-.138-.125-.278-.191-.415a21.102 21.102 0 0 1-.625-1.43c-.063-.16-.114-.328-.172-.488-.16-.457-.32-.918-.453-1.387-.07-.25-.121-.507-.184-.761a22.748 22.748 0 0 1-.258-1.137c-.066-.379-.113-.758-.16-1.137-.035-.265-.078-.531-.101-.797a19.562 19.562 0 0 1-.067-1.437c-.008-.18-.015-.356-.015-.531.004-.52.035-1.036.074-1.551.012-.156.015-.309.031-.465.05-.488.125-.98.211-1.469.031-.191.063-.386.102-.578.082-.426.195-.84.304-1.262.075-.265.14-.53.223-.796.105-.348.23-.688.355-1.028.125-.332.25-.668.391-.996.148-.351.309-.691.48-1.035.11-.227.22-.457.34-.68.22-.406.457-.804.707-1.203.094-.144.18-.3.278-.45.351-.526.726-1.042 1.133-1.546.109-.133.226-.258.335-.39a21.288 21.288 0 0 1 1.723-1.813c.086-.082.176-.168.266-.25.37-.332.754-.652 1.144-.957.114-.086.227-.164.34-.25a23.405 23.405 0 0 1 1.379-.945c.254-.16.516-.309.777-.461.313-.176.63-.348.95-.508.242-.121.484-.246.73-.36a22.69 22.69 0 0 1 1.285-.527c.313-.121.625-.234.942-.34l.12-.035c.723-.23 1.462-.422 2.208-.574l.097-.02c.36-.074.723-.132 1.086-.183.094-.016.192-.028.285-.04a20.744 20.744 0 0 1 3.157-.167c.218.004.437.008.656.02.258.015.52.03.777.058.36.031.723.074 1.082.129.121.015.239.023.356.043a.996.996 0 0 0 1.144-.828V7.43a1.002 1.002 0 0 0-.828-1.149c-.12-.02-.246-.023-.367-.039a25.92 25.92 0 0 0-1.219-.148c-.27-.024-.539-.04-.808-.055-.27-.016-.532-.023-.797-.027zm7.195 1.375a.998.998 0 0 0-.894.648.999.999 0 0 0 .586 1.29c.714.265 1.418.573 2.101.913.145.075.297.11.45.11.363 0 .714-.2.894-.551a1.005 1.005 0 0 0-.445-1.344c-.743-.375-1.52-.71-2.301-1.004a1.05 1.05 0 0 0-.39-.062zM29 12a1 1 0 0 0-1 1v2a1 1 0 1 0 2 0v-2a1 1 0 0 0-1-1zm-5.98 1.168a.985.985 0 0 0-.391.07c-.512.207-.758.79-.55 1.305l.75 1.852c.155.39.53.625.925.625a1.001 1.001 0 0 0 .93-1.375l-.75-1.852a.996.996 0 0 0-.914-.625zm-5.118 3.32a1.006 1.006 0 0 0-.715.282 1.008 1.008 0 0 0-.023 1.418l1.39 1.437a1.001 1.001 0 1 0 1.438-1.39l-1.387-1.438c-.195-.2-.445-.3-.703-.309zM24 20c-2.207 0-4 1.793-4 4v1a1 1 0 1 0 2 0v-1c0-1.102.898-2 2-2h1c1.102 0 2 .898 2 2v2.3c0 .7-.371 1.356-.969 1.716l-1.008.605a9.01 9.01 0 0 0-3.91 4.871l-.625 1.875a2.01 2.01 0 0 0 .278 1.805c.375.52.98.828 1.625.828H28a1 1 0 1 0 0-2h-5.613l.629-1.875a6.982 6.982 0 0 1 3.035-3.79l1.008-.605A4.023 4.023 0 0 0 29 26.3V24c0-2.207-1.793-4-4-4h-1zm13 0c-.04 0-.074.02-.113.023a.819.819 0 0 0-.2.04c-.062.019-.117.05-.171.078a1.094 1.094 0 0 0-.157.105c-.054.047-.093.098-.14.152-.024.032-.055.051-.078.086l-6 10A1.003 1.003 0 0 0 31 32h4.999v5a1 1 0 1 0 2 0v-5h1a1 1 0 1 0 0-2h-1v-9c0-.04-.02-.074-.023-.113a.819.819 0 0 0-.118-.371 1.026 1.026 0 0 0-.257-.297c-.032-.024-.051-.055-.086-.078-.02-.012-.043-.012-.063-.02a1.125 1.125 0 0 0-.191-.07c-.067-.016-.13-.031-.196-.035-.023-.004-.043-.016-.066-.016zm-22.598 1.492a.999.999 0 0 0-.425 1.914l1.828.813a1 1 0 0 0 .402.09c.387 0 .75-.223.918-.594a1.005 1.005 0 0 0-.512-1.324l-1.824-.813a1.047 1.047 0 0 0-.387-.086zM36 24.61V30h-3.234L36 24.61zM13 28a1 1 0 1 0 0 2h2a1 1 0 1 0 0-2h-2zm30 0a1 1 0 1 0 0 2h2a1 1 0 1 0 0-2h-2zM29 42a1 1 0 0 0-1 1v2a1 1 0 1 0 2 0v-2a1 1 0 0 0-1-1z"/>
</svg>
