<svg xmlns="http://www.w3.org/2000/svg" width="58" height="58" viewBox="0 0 58 58">
    <path fill="#5999E5" fill-rule="nonzero" d="M29 0C13.008 0 0 13.008 0 29s13.008 29 29 29 29-13.008 29-29S44.992 0 29 0zm0 2c14.887 0 27 12.113 27 27S43.887 56 29 56 2 43.887 2 29 14.113 2 29 2zm-.438 4.008a23.1 23.1 0 0 0-15.828 6.726A22.858 22.858 0 0 0 6 29c0 6.145 2.39 11.918 6.734 16.266.196.191.454.293.707.293.258 0 .516-.102.711-.293.391-.395.391-1.024 0-1.418A20.848 20.848 0 0 1 8 29c0-5.61 2.184-10.883 6.152-14.848 4.746-4.75 11.543-6.949 18.188-5.886a.997.997 0 0 0 1.144-.829 1.002 1.002 0 0 0-.828-1.148 23.326 23.326 0 0 0-4.093-.281zm8.098 1.379a.998.998 0 0 0-.894.648.999.999 0 0 0 .586 1.29c.71.265 1.418.573 2.097.913a1.004 1.004 0 0 0 1.348-.441 1.005 1.005 0 0 0-.445-1.344c-.747-.375-1.52-.71-2.301-1.004a1.037 1.037 0 0 0-.39-.062zm5.774 3.289a.998.998 0 0 0-.496 1.777 21.206 21.206 0 0 1 1.91 1.7A20.848 20.848 0 0 1 50 29c0 5.61-2.184 10.883-6.152 14.848a1.004 1.004 0 0 0 0 1.418c.195.191.453.293.71.293.255 0 .512-.102.708-.293A22.858 22.858 0 0 0 52 29c0-6.145-2.39-11.918-6.734-16.266a24.022 24.022 0 0 0-2.094-1.855 1.008 1.008 0 0 0-.738-.203zm-7.532 3.328a.99.99 0 0 0-.59.27l-16.917 16a1 1 0 0 0-.239 1.097.993.993 0 0 0 .926.629h7.426l-4.363 10.621a1.002 1.002 0 1 0 1.59 1.129l18.074-15.988c.308-.278.418-.715.27-1.106a.995.995 0 0 0-.934-.644L32.492 26l3.461-10.691a.995.995 0 0 0-.422-1.153.983.983 0 0 0-.629-.152zm-2.058 4.414l-2.676 8.273a.996.996 0 0 0 .95 1.309l6.394.008-12.883 11.394 3.297-8.023a.991.991 0 0 0-.098-.938A.992.992 0 0 0 27 30h-6.406l12.25-11.582zM19.375 45.395a.992.992 0 0 0-.988.492l-1 1.734a.997.997 0 0 0 .363 1.363.995.995 0 0 0 1.363-.363l1-1.734a.998.998 0 0 0-.738-1.492zm19.25 0a1.002 1.002 0 0 0-.738 1.496l1 1.73a.995.995 0 0 0 1.363.363.993.993 0 0 0 .363-1.363l-1-1.73a1.002 1.002 0 0 0-.988-.496zm-14.813 1.949a1.007 1.007 0 0 0-.828.734l-.515 1.934a1 1 0 0 0 1.933.515l.516-1.933a.996.996 0 0 0-.703-1.223.946.946 0 0 0-.402-.027zm10.375 0a.946.946 0 0 0-.402.027c-.531.14-.847.691-.707 1.223l.52 1.933a1.004 1.004 0 0 0 1.226.707c.531-.144.848-.691.707-1.222l-.515-1.934a1.007 1.007 0 0 0-.828-.734zM29 48c-.55 0-1 .45-1 1v2c0 .55.45 1 1 1s1-.45 1-1v-2c0-.55-.45-1-1-1z"/>
</svg>
