<svg xmlns="http://www.w3.org/2000/svg" width="55" height="65" viewBox="0 0 55 65">
    <g fill="none" fill-rule="evenodd">
        <path fill="#FFF" d="M52.429 13.714c.666.667 1.238 1.572 1.714 2.715.476 1.142.714 2.19.714 3.142v41.143c0 .953-.333 1.762-1 2.429-.667.667-1.476 1-2.428 1h-48c-.953 0-1.762-.333-2.429-1-.667-.667-1-1.476-1-2.429V3.571C0 2.62.333 1.81 1 1.143s1.476-1 2.429-1h32c.952 0 2 .238 3.142.714 1.143.476 2.048 1.048 2.715 1.714l11.143 11.143z"/>
        <path fill="#FD1E1E" fill-opacity=".81" d="M52.429 13.714c.666.667 1.238 1.572 1.714 2.715.476 1.142.714 2.19.714 3.142v41.143c0 .953-.333 1.762-1 2.429-.667.667-1.476 1-2.428 1h-48c-.953 0-1.762-.333-2.429-1-.667-.667-1-1.476-1-2.429V3.571C0 2.62.333 1.81 1 1.143s1.476-1 2.429-1h32c.952 0 2 .238 3.142.714 1.143.476 2.048 1.048 2.715 1.714l11.143 11.143zM36.57 5v13.429H50c-.238-.69-.5-1.179-.786-1.465L38.036 5.786C37.75 5.5 37.262 5.238 36.57 5zm13.715 54.571V23H35.429c-.953 0-1.762-.333-2.429-1-.667-.667-1-1.476-1-2.429V4.714H4.571v54.857h45.715zM31.929 38.393c.785.619 1.785 1.286 3 2a35.44 35.44 0 0 1 4.178-.25c3.5 0 5.607.583 6.322 1.75.38.524.404 1.143.071 1.857 0 .024-.012.048-.036.071l-.071.072v.036c-.143.904-.988 1.357-2.536 1.357-1.143 0-2.512-.238-4.107-.715a26.037 26.037 0 0 1-4.643-1.892c-5.262.571-9.928 1.56-14 2.964C16.464 51.88 13.583 55 11.464 55c-.357 0-.69-.083-1-.25l-.857-.429a3.82 3.82 0 0 0-.214-.178c-.238-.238-.31-.667-.214-1.286.214-.952.88-2.042 2-3.268 1.119-1.226 2.69-2.375 4.714-3.446.333-.214.607-.143.821.214.048.048.072.095.072.143 1.238-2.024 2.512-4.369 3.821-7.036 1.62-3.238 2.857-6.357 3.714-9.357-.571-1.952-.934-3.851-1.089-5.696-.155-1.846-.077-3.363.232-4.554.262-.952.762-1.428 1.5-1.428h.786c.548 0 .964.178 1.25.535.429.5.536 1.31.321 2.429-.047.143-.095.238-.142.286a.929.929 0 0 1 .035.285v1.072c-.047 2.928-.214 5.214-.5 6.857 1.31 3.905 3.048 6.738 5.215 8.5zM11.357 53.07c1.238-.571 2.87-2.452 4.893-5.642-1.214.952-2.256 1.952-3.125 3-.87 1.047-1.458 1.928-1.768 2.642zm14.214-32.857c-.357 1-.38 2.572-.071 4.715.024-.167.107-.69.25-1.572 0-.071.083-.583.25-1.536a.805.805 0 0 1 .143-.285c-.024-.024-.036-.048-.036-.072 0-.024-.006-.041-.018-.053-.012-.012-.018-.03-.018-.054-.023-.524-.178-.952-.464-1.286 0 .024-.012.048-.036.072v.071zm-4.428 23.607a52.383 52.383 0 0 1 10.143-2.892 5.397 5.397 0 0 1-.465-.34 6.384 6.384 0 0 1-.571-.482c-1.81-1.595-3.321-3.69-4.536-6.286-.643 2.048-1.63 4.393-2.964 7.036a242.994 242.994 0 0 1-1.607 2.964zm23.071-.571c-.571-.571-2.238-.857-5-.857 1.81.667 3.286 1 4.429 1 .333 0 .547-.012.643-.036 0-.024-.024-.06-.072-.107z"/>
    </g>
</svg>
