<svg xmlns="http://www.w3.org/2000/svg" width="170" height="51" viewBox="0 0 170 51">
    <g fill="#A0A7AF" fill-rule="evenodd">
        <path d="M133.36 35.648h-2.862v-16h2.862l.018.832c1.564-1.077 2.807-1.29 4.955-1.29 2.656 0 5.163 1.24 5.163 5.416v11.042h-3.018v-10.46c0-1.68.34-4.144-2.489-4.144-5.35 0-4.434 2.24-4.63 2.433v12.17zM123.853 26.032c.06-2.002-1.092-4.88-3.583-4.88-2.673 0-3.95 2.682-3.977 4.88h7.56zm-7.624 2.43c0 4.459 2.151 5.377 4.582 5.377 1.761 0 2.892-.863 3.742-2.216l1.85 1.087c-.912 2.002-3.068 3.057-5.95 3.057-3.738 0-6.713-2.398-6.713-8.238s2.975-8.238 6.713-8.238c4.827 0 6.223 5.368 5.89 9.17H116.23zM87.29 27.624c0-2.675-.587-6.44-3.653-6.44-3.068 0-3.655 3.765-3.655 6.44 0 2.678.587 6.436 3.655 6.436 3.066 0 3.653-3.758 3.653-6.436m-9.985 0c0-5.893 2.808-8.315 6.332-8.315 3.521 0 6.33 2.422 6.33 8.315 0 5.896-2.809 8.318-6.33 8.318-3.524 0-6.332-2.422-6.332-8.318M64.475 32.644c.887.525 2.396 1.121 3.841 1.121 2.067 0 3.053-1.023 3.053-2.373 0-1.388-.82-2.152-2.923-2.941-2.888-1.055-4.233-2.608-4.233-4.526 0-2.576 2.101-4.69 5.48-4.69 1.61 0 3.02.431 3.875.992l-.688 2.08c-.624-.362-1.773-.923-3.254-.923-1.704 0-2.622.992-2.622 2.181 0 1.353.918 1.945 2.985 2.741 2.725 1.023 4.169 2.408 4.169 4.82 0 2.84-2.199 4.82-5.907 4.82-1.74 0-3.349-.463-4.464-1.122l.688-2.18zM167.85 32.608V19.53h-2.89v13.078h-1.762v2.907h6.382v-2.907h-1.73zm-1.51-16.012h.033c1.148 0 1.87-.862 1.87-1.89 0-1.02-.722-1.847-1.836-1.847-1.118 0-1.872.827-1.872 1.847 0 1.028.722 1.89 1.804 1.89zM110.724 33.569c-.176.007-.821.028-.998.028-2.116 0-2.083-1.164-2.083-2.962v-8.872h3.07v-2.384h-3.07v-4.126h-2.58v4.126h-2.534v2.384h2.535v7.708c0 3.359-.233 6.32 4.131 6.32.356 0 1.186-.045 1.529-.108v-2.114zM154.718 30.53c-2.42.312-4.131-1.57-4.427-3.902-.307-2.401 1.002-4.736 3.523-5.058 2.623-.34 4.2 1.556 4.508 3.989.327 2.57-.916 4.623-3.604 4.97zm-.801 5.45c2.62-.335 4.58 1.907 4.612 4.365.034 2.475-1.298 4.504-3.833 4.575-2.436.063-4.006-1.543-4.302-3.88-.307-2.399 1-4.733 3.523-5.06zm7.699-15.01l.099-2.551c-2.487-.004-2.747.336-3.971 1.833-1.325-.719-2.772-.862-4.253-.67-3.73.484-6.217 3.488-5.735 7.274.282 2.198 1.233 2.822 1.575 3.442-.615.968-.902 2.356-.85 3.916.07 1.195.3 2.04.368 2.307-.892 1.339-1.266 3.007-.99 4.746.906 5.682 5.01 5.938 7.32 5.889 3.626-.084 6.26-3.891 5.801-7.512-.178-1.384-1.724-6.678-7.377-6.04a6.535 6.535 0 0 0-2.525.824 2.697 2.697 0 0 1-.147-.691c-.086-.557-.025-1.56.313-1.924 1.023.245 1.061.824 4.162.655 3.624-.203 5.9-3.614 5.437-7.238-.176-1.381-.715-2.654-1.636-3.702.625-.463.999-.585 1.794-.558h.615zM100.938 21.77v-2.426h-3.145v-1.848h-.003v-2.075c0-1.798-.033-2.962 2.083-2.962.177 0 .822.021.998.028v-2.113c-.343-.063-1.173-.109-1.53-.109-4.363 0-3.95 2.962-3.95 6.32v.911h-.003v1.848h-2.59v2.426h2.59v11.582h-1.892v2.527h6.566v-2.527h-2.27V21.77h3.146zM51.74 39.188l-.025.045c-.13.222-.27.438-.42.647-.003.004-.005.008-.009.011l-.022.029c.172-.236.33-.48.476-.732zm.317-.61c-.064.138-.136.271-.208.404.109-.202.211-.406.303-.617-.031.072-.062.143-.095.214zM16.74 49.847l-.013-.005a7.233 7.233 0 0 0 .013.005zm-.432-.15c.09.036.183.066.275.096-.083-.027-.168-.054-.25-.085l-.025-.01zm-.402-.167c.076.035.155.067.233.099-.066-.027-.133-.052-.198-.081l-.035-.018zm-.55-4.258c.022.025.04.05.062.074-.021-.024-.04-.05-.062-.074zm-.908-1.492l.005.01c0-.002-.002-.004-.003-.005 0-.002 0-.004-.002-.005zm-.467-2.461v.015-.015zm14.812-4.212l.002.01c.006.03.008.064.014.095-.016-.084-.035-.166-.054-.25.011.05.028.095.038.145zm-.242-.927l.003.01c.014.045.023.096.037.143-.022-.075-.042-.15-.067-.223.008.024.019.045.027.07zm-.33-.862l.005.012.003.01c-.013-.03-.028-.058-.042-.087.01.023.023.043.034.065zm-3.058-.244c.054.065.104.134.155.202-.051-.068-.101-.137-.155-.202zm-.366-.398c.059.057.114.12.171.18-.057-.06-.112-.123-.171-.18zm-.403-.353c.062.049.12.103.181.155-.06-.052-.119-.106-.181-.155zm-.44-.306c.013.008.026.013.038.02.054.034.103.075.156.111-.064-.044-.127-.09-.193-.131zm-.466-.254c.07.033.135.072.203.108-.068-.036-.133-.075-.203-.108zm-.498-.203c.07.024.134.054.202.08-.068-.026-.133-.056-.202-.08zm-.527-.15c.06.013.115.033.173.049-.058-.016-.114-.036-.173-.049zm-5.958 12.837c-.07-.05-.144-.099-.212-.153-.04-.031-.076-.065-.114-.097a5.19 5.19 0 0 1-.234-.21 4.534 4.534 0 0 1-.435-.477 5.45 5.45 0 0 1-.259-.347 5.748 5.748 0 0 1-.245-.398l-.004-.007a5.852 5.852 0 0 1-.218-.44l-.004-.008a5.695 5.695 0 0 1-.186-.475 6.066 6.066 0 0 1-.141-.473l-.005-.018a6.68 6.68 0 0 1-.103-.485l-.002-.015a6.845 6.845 0 0 1-.096-1.025v-.016a7.138 7.138 0 0 1 .058-1.06l.002-.014a7.71 7.71 0 0 1 .086-.526l.003-.018c.035-.171.075-.344.122-.516l.012-.045c.048-.175.102-.35.163-.526l.038-.097a8.67 8.67 0 0 1 .27-.659c.035-.077.073-.15.11-.227.082-.164.168-.325.258-.48.042-.075.084-.149.129-.22.106-.172.217-.337.333-.499.031-.043.06-.09.093-.133a8.331 8.331 0 0 1 .852-.975l.022-.021c.143-.14.29-.272.44-.399l.014-.01c.154-.13.311-.25.472-.366l.007-.005a7.517 7.517 0 0 1 1.016-.609l.007-.004a7.08 7.08 0 0 1 .535-.236c.178-.07.357-.13.538-.185l.011-.002a6.175 6.175 0 0 1 1.108-.215l.017-.002a5.59 5.59 0 0 1 .558-.024h.005c.19.002.38.013.57.035.368.042.719.122 1.051.235a4.827 4.827 0 0 1 2.403 1.802c.408.642.696 1.393.833 2.22a7.333 7.333 0 0 1-.084 2.752 8.502 8.502 0 0 1-1.132 2.76 8.484 8.484 0 0 1-1.968 2.173 7.204 7.204 0 0 1-2.497 1.267c-.88.24-1.783.282-2.658.095a4.864 4.864 0 0 1-1.539-.622zm-.158-.093l-.109-.077c.037.025.072.052.11.077zm-.455-.348c-.021-.018-.046-.033-.067-.052-.012-.01-.021-.023-.033-.033.032.029.067.056.1.085zm-.857-.943l-.011-.017.011.017zm-.319-.517l-.008-.014.008.014zm-.466-1.134zm-.147-.604l-.003-.012.003.012zm-.09-.627l-.001-.012.001.012zm-.006-1.293l.001-.017-.001.017zm.083-.656l.005-.024-.005.024zm.146-.677v-.002.002zm14.585 1.486h-.001zm14.036-22.61zm.157.457zm.207.451l-.026-.047c-.04-.079-.072-.16-.107-.24.042.097.085.193.133.287zm.256.442zm.302.428a6.134 6.134 0 0 0 0 0zm.346.413zm.395.4c-.036-.033-.075-.065-.11-.1-.04-.04-.077-.082-.117-.123.073.076.149.15.227.223zm-7.093-13.18zm.2.34zm.25.323c-.032-.036-.068-.07-.097-.107-.023-.028-.04-.058-.06-.085.048.065.101.129.157.192zm.308.31zm-25.311 26.87a14.532 14.532 0 0 1-1.35-1.02c-.116-.098-.225-.2-.337-.301a.18.18 0 0 1-.011-.011c.237-.253.463-.515.678-.787l.002-.003.003-.003c.067-.086.125-.178.19-.266.138-.186.28-.37.406-.564l.004-.006a.023.023 0 0 1 .004-.006c.072-.111.131-.227.199-.34.103-.173.213-.344.306-.52a486.495 486.495 0 0 1 .01-.02c.064-.124.114-.25.172-.375.08-.169.165-.335.234-.506l.002-.006.003-.007.003-.007.002-.007a8.248 8.248 0 0 0 .146-.396l.018-.051c.005-.012.01-.024.013-.037a7.29 7.29 0 0 0 .075-.238c.01-.031.018-.063.027-.094l.019-.066.021-.075.048-.19.021-.094.01-.042.012-.052c.013-.063.026-.125.037-.186l.022-.13.004-.018v-.006a6.719 6.719 0 0 0 .075-.654l.005-.103v-.01l.002-.03a5.208 5.208 0 0 0 0-.417c0-.045-.003-.089-.006-.133a8.344 8.344 0 0 0-.009-.13l-.001-.008v-.004l-.012-.117a4.305 4.305 0 0 0-.08-.497l-.01-.044c0-.003-.001-.007-.003-.01l-.015-.066a3.357 3.357 0 0 0-.066-.24l-.037-.118-.04-.115a2.5 2.5 0 0 0-.025-.062l-.002-.006-.003-.006-.017-.045c-.016-.04-.033-.078-.05-.117l-.052-.114a4.536 4.536 0 0 0-.124-.235c-.004-.009-.01-.017-.015-.026l-.006-.01-.05-.084a5.172 5.172 0 0 0-.154-.229l-.032-.043c-.01-.014-.02-.028-.032-.041l-.033-.042c-.01-.014-.022-.027-.033-.04l-.217-.264c.022.027.039.058.06.085a3.557 3.557 0 0 0-.992-.883c-.565-.336-1.25-.538-2.038-.577a5.777 5.777 0 0 0-.729.01c-.245.018-.492.05-.739.096a7.728 7.728 0 0 0-.744.178c-.163.046-.325.107-.487.164.005-.1.007-.202.013-.303l.002-.027c.013-.197.03-.395.052-.593l.01-.095a14.65 14.65 0 0 1 .201-1.262l.05-.013.051-.014.05-.014.051-.014.13-.038.126-.04h.002l.002-.001a7.802 7.802 0 0 0 .388-.136l.06-.023.019-.007.049-.019a10.524 10.524 0 0 0 .396-.165l.008-.005a7.66 7.66 0 0 0 .438-.209l.01-.004a.013.013 0 0 0 .004-.003l.04-.02.131-.068.13-.07a6.55 6.55 0 0 0 .268-.153 7.777 7.777 0 0 0 .272-.168l.03-.018.009-.006a4.997 4.997 0 0 0 .249-.163 10.554 10.554 0 0 0 .445-.32l.121-.094.01-.007.008-.006.044-.034a9.943 9.943 0 0 0 .525-.447c.035-.032.065-.066.098-.098.074-.069.143-.14.214-.21.084-.084.173-.165.253-.25.058-.064.109-.131.166-.196.036-.042.08-.081.117-.124.057-.068.11-.138.164-.207.016-.02.036-.04.052-.062.01-.011.016-.024.025-.036.133-.174.256-.35.371-.53.01-.015.022-.03.031-.045.014-.022.024-.045.037-.066.107-.177.207-.354.295-.533.004-.01.01-.017.014-.026a.02.02 0 0 1 .003-.006l.002-.005.002-.004a5.269 5.269 0 0 0 .196-.466l.005-.011a3.844 3.844 0 0 0 .131-.42l.006-.021.001-.005.002-.007.021-.087a4.469 4.469 0 0 0 .06-.329v-.005c.005-.032.01-.065.013-.097a5.361 5.361 0 0 0 .015-.193l.003-.092v-.02-.002-.004-.065a4.1 4.1 0 0 0-.007-.176l-.007-.084a8.391 8.391 0 0 1-.006-.045v-.009l-.004-.03a3.637 3.637 0 0 0-.012-.082l-.015-.08a2.903 2.903 0 0 0-.038-.158l-.021-.077a2.758 2.758 0 0 0-.026-.077l-.028-.077-.03-.074-.008-.016-.002-.007-.022-.05a2.916 2.916 0 0 0-.099-.185 1.474 1.474 0 0 0-.036-.059l-.176-.277c.012.02.021.042.033.062a2.203 2.203 0 0 0-.427-.525 2.6 2.6 0 0 0-.707-.424c.1-.111.2-.222.303-.331a23.355 23.355 0 0 1 .9-.912c.154-.148.31-.294.468-.438.131.069.273.13.425.183.153.051.317.095.49.129.175.034.36.058.555.072.196.013.402.016.617.007h.042l.043-.003.042-.002.042-.004a4.875 4.875 0 0 0 .346-.032h.01a5.976 5.976 0 0 0 .32-.046l.136-.023.052-.01.019-.004.065-.013c.045-.009.091-.018.136-.029l.137-.03.125-.031.046-.012.016-.004.062-.017.124-.034.124-.037.118-.036c.027-.01.055-.018.083-.027l.005-.002.004-.002a8.418 8.418 0 0 0 .259-.09l.115-.042.113-.044a.339.339 0 0 1 .023-.009l.01-.004.08-.032.113-.047.114-.05.112-.05.078-.035.01-.006.025-.011.111-.053.115-.057.113-.059.113-.06.009-.004a4.687 4.687 0 0 0 .223-.124l.119-.07.117-.071.014-.01h.003l.004-.004a3.89 3.89 0 0 0 .225-.143 8.87 8.87 0 0 0 .225-.154l.027-.02.123-.088.155-.118.094-.075.024-.019.032-.026c.05-.04.098-.081.147-.122.048-.041.095-.082.141-.124.009-.007.016-.016.024-.023.136-.125.268-.251.39-.38l.02-.025c.006-.006.013-.011.018-.018.022-.023.039-.047.06-.07.098-.11.191-.222.278-.334.015-.02.034-.04.05-.06.02-.026.033-.053.052-.08a4.48 4.48 0 0 0 .204-.307c.018-.03.041-.058.058-.089.01-.016.015-.032.024-.048.073-.13.136-.26.192-.391l.02-.043.002-.003.001-.004.002-.005.002-.004a2.717 2.717 0 0 0 .12-.367c.008-.03.014-.058.02-.088l.002-.006v-.004l.006-.02.018-.095.014-.092.01-.092.006-.09.001-.033v-.004-.004l.001-.038a1.6 1.6 0 0 0-.01-.23 2.363 2.363 0 0 0-.016-.124v-.002l-.001-.002-.002-.013a1.185 1.185 0 0 0-.013-.069l-.016-.067a1.724 1.724 0 0 0-.015-.054l-.016-.054-.018-.052-.02-.052-.022-.057c.201-.078.403-.153.607-.227a28.945 28.945 0 0 1 .662-.23l.084-.028a27.837 27.837 0 0 1 1.231-.379c.017.082.04.16.068.238-.003-.008-.01-.016-.012-.024l.104.301c.096.28.26.535.488.76.23.227.522.423.871.58.354.157.765.275 1.223.345.465.07.977.092 1.53.055l.048-.003.048-.004.048-.003.049-.004.185-.019.086-.01.033-.004.065-.008.185-.026.183-.03.024-.005.016-.002.11-.02.15-.03.149-.033.046-.01.021-.005.081-.02.132-.032a9.948 9.948 0 0 0 .239-.066h.005l.018-.006.13-.038a6.97 6.97 0 0 0 .123-.038l.122-.04.122-.042.121-.043.117-.044.118-.045.031-.013.007-.002.078-.031.114-.048.115-.05a6.163 6.163 0 0 0 .227-.104l.112-.054.114-.057.08-.041.004-.002c.002 0 .003-.002.005-.003a.428.428 0 0 0 .025-.013l.111-.06.11-.06a19.203 19.203 0 0 0 .139-.08l.012-.009.08-.048a6.723 6.723 0 0 0 .224-.142c.017-.01.034-.022.05-.033l.022-.015c.017-.012.035-.022.051-.034l.12-.084.117-.085.041-.032.02-.014.053-.041a4.334 4.334 0 0 0 .248-.204l.012-.01a.041.041 0 0 1 .005-.004l.016-.014a6.017 6.017 0 0 0 .258-.239l.007-.007.032-.033c.057-.057.113-.114.165-.173.015-.015.027-.031.041-.047.024-.026.046-.053.069-.08.025-.03.052-.06.076-.09.026-.032.05-.065.075-.099l.06-.079c.01-.014.021-.027.03-.041.052-.074.101-.148.146-.223a23.272 23.272 0 0 1 1.364.215c.226.043.449.09.67.14.13.028.257.06.385.092-.054.063-.116.123-.165.187a3.863 3.863 0 0 0-.32.48c-.093.163-.17.332-.231.503a2.818 2.818 0 0 0-.136.526c-.042.27-.04.533.002.788 0-.006-.003-.012-.004-.018l.05.332c.071.462.272.897.585 1.289.32.398.756.752 1.29 1.045a6.944 6.944 0 0 0 1.905.685c.731.154 1.54.223 2.398.189l.064-.003.064-.003.063-.004a9.399 9.399 0 0 0 .296-.02l.23-.023.198-.023h.007l.004-.001c.007 0 .014-.002.02-.003l.227-.031.186-.03a8.49 8.49 0 0 0 .184-.032c.061-.011.122-.023.182-.036l.082-.017.01-.001a.072.072 0 0 1 .009-.003l.08-.017.164-.037.163-.04.16-.043.159-.044.118-.035.005-.002.003-.001.025-.007a10.151 10.151 0 0 0 .444-.147l.086-.03c.028-.012.057-.022.085-.033.028-.01.056-.02.084-.032l.083-.032a12.382 12.382 0 0 1 .745 1.005c.117.176.23.354.339.536.049.082.094.168.141.25a9.847 9.847 0 0 0-2.002.73c-.66.33-1.25.73-1.744 1.182-.499.457-.904.97-1.195 1.53a4.434 4.434 0 0 0-.503 1.83 4.365 4.365 0 0 0 .005.53l.024.335c.044.611.215 1.208.5 1.776a6.2 6.2 0 0 0 1.207 1.629c.52.512 1.145.974 1.856 1.368.695.385 1.474.701 2.312.935-.072.18-.144.36-.223.538a18.408 18.408 0 0 1-.844 1.666c-.158.277-.323.552-.495.825a11.138 11.138 0 0 0-3.174-1.003 10.953 10.953 0 0 0-1.121-.115 10.259 10.259 0 0 0-3.434.4c-1.058.315-2.031.8-2.878 1.424a8.494 8.494 0 0 0-2.146 2.297 8.093 8.093 0 0 0-1.153 3.088 8.286 8.286 0 0 0-.049 2.181 8.86 8.86 0 0 0 .513 2.156 30.172 30.172 0 0 1-3.47 1.039c-.352.081-.705.154-1.059.222l-.007-.053a10.187 10.187 0 0 0-.11-.667l-.001-.006v-.004a9.474 9.474 0 0 0-.092-.402l-.05-.184a8.484 8.484 0 0 0-.052-.181l-.046-.146c0-.002 0-.004-.002-.006a7.978 7.978 0 0 0-.328-.856l-.002-.004-.013-.03c-.026-.056-.052-.112-.08-.168a6.642 6.642 0 0 0-.167-.328l-.035-.065-.037-.064-.036-.064-.038-.063-.148-.25c.018.029.031.062.048.093a7.355 7.355 0 0 0-1.026-1.393 6.76 6.76 0 0 0-1.944-1.43 6.905 6.905 0 0 0-2.365-.66 7.854 7.854 0 0 0-2.514.168 9.353 9.353 0 0 0-2.391.916c-.767.418-1.5.947-2.171 1.567a11.867 11.867 0 0 0-1.831 2.159 15.222 15.222 0 0 1-.746-.47zm-.807 2.636l-.317-.239c-.091-.068-.18-.138-.27-.207.296.23.6.457.91.683l-.323-.237zm1.323-8.287c-.021.066-.04.132-.063.199a9.509 9.509 0 0 1 .063-.199zm-.23-4.359a.097.097 0 0 0 .006.011c.01.018.016.038.026.056-.032-.058-.068-.112-.103-.167.022.034.05.064.07.1zm.405 3.72a7.328 7.328 0 0 1-.121.468l-.018.055a7.83 7.83 0 0 0 .154-.602l-.015.08zm.073-.37c-.01.06-.024.118-.035.177.024-.123.04-.242.057-.362-.008.055-.009.106-.018.16l-.004.026zm.087-.793v.01c-.003.047-.013.098-.016.145.006-.09.012-.18.014-.27-.001.04.004.076.002.115zm-.012-.725v.005c.004.05 0 .106.003.157-.004-.074-.006-.15-.013-.221.002.02.008.039.01.06zm-.103-.67l.003.011c.007.031.008.066.015.097-.008-.038-.012-.079-.02-.116l.002.008zm-.187-.614a.069.069 0 0 1 .005.013l.007.023c-.02-.053-.046-.102-.068-.153.017.04.04.076.056.117zm-2.673-.19zm-.517-.315c.114.052.223.11.326.175.032.02.06.046.093.069a2.626 2.626 0 0 0-.419-.244zm-.484-.166zm.376 6.934a8.846 8.846 0 0 1-1.761 1.596 7.355 7.355 0 0 1-2.024.986c-.686.205-1.365.275-1.994.185a3.018 3.018 0 0 1-1.156-.405c-.023-.02-.049-.038-.072-.059-.02-.017-.038-.036-.057-.054-.052-.049-.101-.1-.149-.153l-.044-.05a2.56 2.56 0 0 1-.167-.22l-.012-.02a2.87 2.87 0 0 1-.143-.242l-.011-.022a3.048 3.048 0 0 1-.12-.267c0-.004-.003-.01-.004-.014a2.848 2.848 0 0 1-.096-.295 3.17 3.17 0 0 1-.07-.322 3.64 3.64 0 0 1-.037-.318l-.001-.01a3.788 3.788 0 0 1-.01-.33v-.012a4.46 4.46 0 0 1 .062-.7c.002-.004.002-.01.003-.014.02-.118.044-.237.073-.359l.002-.005c.029-.12.062-.243.1-.365.003-.005.004-.01.005-.014.038-.12.081-.243.129-.367l.002-.006c.046-.12.097-.24.152-.36l.015-.033c.056-.123.118-.246.183-.37l.042-.072c.09-.167.188-.329.29-.487.036-.057.074-.112.112-.168a8.45 8.45 0 0 1 .26-.36c.042-.056.083-.111.127-.165.103-.129.21-.254.32-.376.03-.033.058-.068.088-.1a8.733 8.733 0 0 1 1.205-1.078 7.855 7.855 0 0 1 .843-.547c.002 0 .003-.002.005-.003.143-.08.288-.156.433-.225l.008-.004c.144-.069.29-.132.435-.19l.009-.004c.146-.058.292-.109.439-.155a5.591 5.591 0 0 1 .445-.12l.011-.002c.145-.033.29-.06.434-.08l.013-.001c.145-.02.29-.032.432-.038h.004c.146-.006.29-.004.432.005.215.014.418.044.61.091.193.046.374.11.543.186.17.078.327.17.471.276.108.079.2.172.293.266.105.139.202.285.28.447.218.45.327.985.31 1.578-.018.604-.165 1.266-.46 1.962a7.922 7.922 0 0 1-1.232 1.983zm-7.267 4.83c-.037-.01-.072-.024-.109-.035.179.052.363.097.557.129a4.616 4.616 0 0 1-.448-.095zm-.664-.242c.13.06.267.113.409.16-.053-.017-.11-.031-.16-.051-.087-.032-.167-.071-.249-.109zm-.176-3.819a.106.106 0 0 1 .001.003v-.003zm-.12-.82v.007-.008zm.065-.9l-.002.01v-.005l.002-.006zm2.633-9.685c.054.012.106.024.162.034-.022-.003-.049-.003-.07-.008-.033-.006-.06-.018-.092-.026zm-.537-.164c.04.017.085.03.128.046-.029-.01-.063-.016-.09-.026-.015-.006-.025-.014-.038-.02zm-.507-.275c.022.016.041.033.064.048L3.6 21.25c-.018-.012-.03-.027-.048-.04zm.55-2.79v.005-.005zm.034-.3l-.001.007v-.003-.003zm.321-.945zm5.745-3.501c.036.002.07.008.104.012-.035-.004-.068-.01-.104-.012zm.435.063c-.04-.009-.078-.02-.12-.026.042.007.08.017.12.026zm.172.04c.04.011.077.026.115.04-.038-.014-.075-.029-.115-.04zm.37.144l-.106-.052.01.004c.034.015.063.033.095.048zm.595.477c-.024-.03-.045-.062-.071-.09.026.028.047.06.07.09zm-.252-.261c.03.025.057.052.085.079-.028-.027-.055-.054-.085-.08zm-.21-.146c.033.02.063.043.094.064-.031-.021-.061-.044-.094-.064zm-7.161 4.984l-.001-.003v.003zm-.043-.267v-.005.005zm.095-.885l.004-.01-.004.01zm.107-.316l.005-.012-.005.012zm-.08 1.718l-.001-.003v-.002l.001.005zm.117.232l-.003-.007.003.007zm.155.21l-.006-.008.006.007zm7.258-2.837a5.596 5.596 0 0 1-.979 1.352 7.509 7.509 0 0 1-3.012 1.89 4.894 4.894 0 0 1-1.605.253c-.505-.013-.925-.127-1.251-.32a1.735 1.735 0 0 1-.242-.174c-.036-.048-.076-.094-.107-.146l-.004-.006a1.628 1.628 0 0 1-.133-.294l-.002-.006a1.821 1.821 0 0 1-.076-.323v-.004a2.117 2.117 0 0 1-.017-.351v-.005a2.468 2.468 0 0 1 .042-.375 3.172 3.172 0 0 1 .104-.397c.043-.13.096-.265.16-.4 0-.003.003-.006.004-.01.064-.136.137-.274.221-.414l.033-.05c.07-.115.146-.227.227-.338a6.423 6.423 0 0 1 .296-.372l.1-.117a7.29 7.29 0 0 1 .258-.27l.07-.07c.02-.02.042-.038.062-.057.182-.171.372-.335.571-.489l.008-.005c.215-.164.439-.317.67-.456l.002-.002a7.231 7.231 0 0 1 1.436-.669c.002 0 .004 0 .006-.002.119-.039.239-.074.358-.105l.01-.003c.119-.03.237-.057.356-.08l.01-.001c.119-.022.238-.04.355-.052h.004c.12-.014.238-.022.355-.025.232-.005.449.01.648.043.201.034.384.088.55.157.168.071.317.159.447.263.085.067.158.144.226.224.139.26.212.565.202.906-.012.393-.129.832-.363 1.3zm-2.686 8.41zM6.93 23.509v-.014.014zm-5.023 8.292v-.008.008zm.03.86l-.001-.004v.004zm.215.779l-.004-.01.004.01zm.407.668l-.012-.013.012.013zm-.228-.32zm-.27-2.906l.003-.013c-.002.005-.002.01-.004.013zm.143-.472l.007-.018-.007.018zm.195-.49l.001-.002v.002zm.43 4.465l-.012-.009-.012-.013.008.006.017.016zm10.581-18.03c0 .004-.003.009-.004.013l-.013.029c.017-.046.03-.09.047-.133-.011.03-.018.06-.03.091zm.142-.453l-.003.012c-.005.02-.014.042-.02.063.014-.05.026-.099.037-.147-.005.024-.008.048-.014.072zm.084-.421v.002c-.004.028-.013.058-.017.086.007-.045.015-.091.02-.136-.001.017 0 .032-.003.048zm.032-.409v.008c0 .022-.005.045-.006.067.001-.028.005-.058.005-.086v.011zm-.02-.378l.001.009v.01c-.002-.027-.009-.053-.012-.08l.011.06zm-.067-.35c.004.013.005.027.008.04a1.549 1.549 0 0 0-.032-.109c.007.023.018.045.024.069zm-.115-.328l.003.007c.008.017.012.037.02.054a1.882 1.882 0 0 0-.046-.104l.023.043zm.547-5.325v.004-.004zm5.517-3.673zm.795.17a2.519 2.519 0 0 1 0 0zm.342.174zm-.262-.138zm.78.714zm-.133-.223zm1.62.962v.004l-.003.011a2.98 2.98 0 0 1 .004-.015zm-.067-1.17c.021.053.031.113.047.17-.022-.08-.04-.162-.072-.237l.025.066zm.122.745v.007c-.003.087-.021.18-.035.27.015-.098.032-.197.034-.29l.001.013zm-.025-.395v.004c.012.069.01.143.014.214-.004-.081-.006-.163-.02-.24.002.008.005.014.006.022zm-8.674 2.61V8.46v.006zm.05-.24zm.007.898l-.002-.003.002.003zm-.053-.208l-.001-.003v.003zm.43-.966a3.246 3.246 0 0 1 .232-.36 3.57 3.57 0 0 1 .157-.201c.026-.032.051-.063.079-.093.064-.074.133-.147.203-.218.02-.019.037-.039.057-.057l.052-.047c.148-.14.304-.274.473-.4l.007-.005a6.346 6.346 0 0 1 .575-.385c.2-.12.41-.229.625-.328h.002c.215-.1.435-.188.658-.264h.002c.223-.076.45-.139.676-.187l.005-.002c.228-.048.456-.084.682-.102.303-.026.584-.02.84.01.258.033.49.092.693.176.204.084.38.193.523.324.071.066.135.137.19.214.026.037.043.078.065.117.01.038.023.075.03.116.049.291.005.623-.148.984a3.58 3.58 0 0 1-.728 1.056c-.325.338-.72.65-1.16.92-.442.27-.925.496-1.422.661a5.682 5.682 0 0 1-1.495.292c-.488.025-.911-.03-1.257-.15-.338-.117-.602-.295-.783-.52-.035-.078-.073-.155-.093-.24v-.005a1.355 1.355 0 0 1-.028-.187v-.004a1.435 1.435 0 0 1-.002-.202 1.686 1.686 0 0 1 .077-.417c0-.004.002-.008.003-.011.021-.07.047-.14.076-.21l.006-.015c.03-.073.065-.147.105-.22l.023-.04zm-.298.021zm11.375-2.48c-.008-.01-.013-.024-.021-.035.008.011.013.024.021.036zm.314.372c-.009-.008-.02-.014-.029-.023-.01-.01-.016-.022-.026-.032.018.018.035.037.055.055zm.407.316l-.068-.043.068.043zm.404-2.14v.01-.01zM32.044.873c-.07-.003-.136-.011-.207-.012.072 0 .137.009.207.012zm.833.112a4.197 4.197 0 0 0-.413-.076c.027.004.058.003.086.008.113.018.222.042.327.068zm.441.145zm.4.207a2.383 2.383 0 0 0-.348-.186c.094.04.184.085.267.133.028.016.053.035.08.053zm.336.273zm.343.601c-.006-.024-.011-.048-.02-.071.009.023.014.047.02.071zm-.083-.228l-.016-.037.003.004c.006.01.009.022.013.033zm-5.582 4.843l-.108-.001.108.001zm-.746-.059c-.02-.002-.04-.002-.058-.005-.02-.003-.039-.009-.058-.012l.116.017zm-.687-.137l-.072-.023.072.023zm-.58-.204l-.02-.007a.026.026 0 0 1-.005-.003l.026.01zm-.045-2.15l-.001-.007.001.006zm.046.213l-.001-.002v-.002.004zm7.43-2.768c.012.015.026.03.037.045-.011-.015-.025-.03-.037-.045zm.104.374c.08.111.14.23.182.358.009.133.003.271-.028.416-.075.345-.26.688-.533 1.012a4.568 4.568 0 0 1-1.063.9 6.607 6.607 0 0 1-1.434.67 6.752 6.752 0 0 1-1.62.327 4.906 4.906 0 0 1-1.466-.093c-.421-.098-.773-.256-1.041-.462a1.532 1.532 0 0 1-.463-.563c-.005-.023-.012-.045-.016-.069v-.006a1.304 1.304 0 0 1-.012-.224v-.008c.003-.077.012-.155.028-.234v-.004c.016-.08.038-.164.067-.247l.016-.038c.031-.085.07-.17.113-.254l.051-.089c.038-.064.078-.13.122-.193a3.392 3.392 0 0 1 .235-.297c.017-.02.032-.038.05-.057.014-.016.031-.03.046-.046.13-.134.27-.265.426-.389l.007-.005c.168-.133.35-.26.544-.377l.002-.002c.195-.118.401-.228.617-.327l.002-.001a6.743 6.743 0 0 1 1.39-.469l.005-.001a6.55 6.55 0 0 1 .743-.12 5.429 5.429 0 0 1 1.204.001c.37.044.705.132.99.255.29.125.53.288.711.482.046.05.088.1.125.154zm1.733.247v.016c0 .046-.003.093-.006.14l-.003.03a2.154 2.154 0 0 0 .009-.187zm2.577 6.575zm11.177-1.49c-.016.019-.028.039-.044.058l-.025.029c-.042.048-.09.094-.135.142.071-.076.14-.152.204-.23zm.729-1.387l-.004.011c.008-.031.01-.063.017-.094-.006.027-.007.055-.013.083zm-.455 1.015c-.016.025-.037.05-.055.075.023-.032.046-.063.067-.095l-.012.02zm7.53 10.232zm-.027.42l.002-.01-.002.01zm-12.076 3.86zm.522.337zm.57.316c-.085-.043-.171-.083-.253-.129-.028-.014-.054-.032-.082-.047.11.06.222.119.334.176zm.617.291c-.125-.054-.25-.107-.37-.165.12.058.245.111.37.165zm.675.266zm.891.28zm-.015-2.023a7.16 7.16 0 0 1-2.053-1.073c-.564-.432-1.014-.935-1.316-1.48-.25-.45-.394-.93-.43-1.424l.002-.001c.005-.152.022-.3.05-.445.009-.052.022-.103.034-.155a3.194 3.194 0 0 1 .155-.485c.05-.12.107-.237.17-.351.017-.031.03-.064.05-.094a4.05 4.05 0 0 1 .538-.707l.014-.016a4.672 4.672 0 0 1 .689-.592 5.438 5.438 0 0 1 .4-.26 5.864 5.864 0 0 1 .439-.235 6.62 6.62 0 0 1 .954-.376c.004 0 .007-.002.01-.003.166-.052.337-.098.512-.139l.013-.003c.175-.041.354-.076.536-.106l.015-.002c.185-.03.372-.054.563-.071h.006a8.925 8.925 0 0 1 2.936.222c.75.188 1.45.471 2.064.832a5.67 5.67 0 0 1 1.568 1.328c.415.52.696 1.104.798 1.73a3.118 3.118 0 0 1 .014.932c-.005.043-.016.085-.024.128a3.14 3.14 0 0 1-.148.397c-.261.576-.693 1.1-1.261 1.539-.571.441-1.276.795-2.077 1.033a8.452 8.452 0 0 1-2.62.333 8.826 8.826 0 0 1-2.6-.456zM35.528 33.368v-.003.003zm.266 1.898a.081.081 0 0 0-.001-.006l-.002-.008c0 .005.002.01.003.014zm-.152-.617l-.004-.018.004.018zm-.09-.63zm9.409-12.814zm-2.458-11.107zm.901.005zm-2.81-.28zm.589.13c-.063-.012-.129-.02-.19-.033-.058-.013-.112-.029-.168-.041.117.026.236.05.358.073zm.632.093zm-1.762-.385zm-.504-.193zm-.461-.223l-.012-.006a5.125 5.125 0 0 1 .012.006zm9.902-1.074a6.418 6.418 0 0 1-.429.322v.001c.155-.108.303-.22.444-.337l-.015.014zm.376-.335l-.015.015c-.067.065-.143.128-.215.191.09-.08.18-.16.264-.242-.012.012-.021.024-.034.036zm-2.323-4.073c.444.22.81.5 1.073.828.26.325.413.697.436 1.102a2.25 2.25 0 0 1-.34.894c-.253.395-.625.763-1.093 1.083a6.358 6.358 0 0 1-1.653.79c-.621.199-1.3.326-2.005.36a7.058 7.058 0 0 1-1.932-.157 4.727 4.727 0 0 1-1.486-.6c-.402-.257-.711-.568-.906-.917a1.872 1.872 0 0 1-.195-.514v-.06a1.4 1.4 0 0 1 .004-.107c.002-.035.005-.071.01-.108l.009-.044a2.04 2.04 0 0 1 .07-.306c.011-.036.025-.071.038-.107.03-.078.063-.156.1-.233.018-.035.036-.071.056-.106.047-.085.1-.168.157-.25.016-.022.03-.045.045-.067.076-.101.16-.2.252-.297a3.5 3.5 0 0 1 .233-.227c.084-.076.174-.15.267-.221l.008-.007c.097-.073.197-.143.301-.211l.003-.002a5.85 5.85 0 0 1 .69-.382l.002-.002a6.84 6.84 0 0 1 .777-.308l.006-.003c.133-.043.27-.084.41-.12l.01-.003c.139-.037.28-.07.424-.1l.014-.002c.145-.03.293-.055.443-.076l.003-.001c.152-.022.307-.04.463-.053a7.303 7.303 0 0 1 1.794.064 5.344 5.344 0 0 1 1.512.47zm-9.82 3.275c.017.085.037.17.063.253-.004-.014-.011-.026-.015-.04-.021-.07-.034-.142-.048-.213zm12.565 27.82l.002-.022-.002.021zm-6.942 8.705c-.018-.001-.036-.005-.055-.006l.152.012h-.027l-.07-.006zm.96.031h-.049l.152-.004c-.022 0-.044.003-.067.004h-.037zm1.822-.185c-.026.005-.052.007-.08.011.045-.008.09-.015.134-.024l-.046.011c-.002 0-.005 0-.008.002zm.858-.207c-.032.009-.066.014-.099.023.264-.073.522-.158.774-.252a9.426 9.426 0 0 1-.645.22l-.03.009zm1.63-.638a9.177 9.177 0 0 1-.796.355l-.007.002c.3-.116.59-.249.87-.393-.015.008-.03.018-.045.025l-.021.011zm.75-.42c-.141.087-.29.164-.436.245.194-.107.386-.218.57-.339-.042.028-.08.06-.124.087a.096.096 0 0 0-.01.006zm.715-.499a.986.986 0 0 0-.031.024c-.086.065-.18.123-.268.186.164-.116.325-.237.48-.364-.061.05-.118.105-.181.154zm.636-.54c-.012.01-.024.02-.035.032-.05.045-.104.086-.155.13.15-.132.292-.27.43-.41-.08.082-.156.168-.24.247zm.576-.596l-.032.037c-.024.026-.05.05-.075.075.15-.164.29-.335.425-.51-.104.134-.206.27-.318.398zm-1.02-5.84c0 .082-.002.163-.005.245-.002.058-.006.115-.01.172a5.803 5.803 0 0 1-.469 1.739 6.02 6.02 0 0 1-1.65 2.152 6.706 6.706 0 0 1-2.526 1.302 7.533 7.533 0 0 1-3.05.175 7.961 7.961 0 0 1-2.884-1.004 7.752 7.752 0 0 1-2.148-1.85 7.012 7.012 0 0 1-1.116-1.995 6.484 6.484 0 0 1-.147-.516l-.003-.015a6.233 6.233 0 0 1-.149-1.368v-.027c.002-.229.017-.458.045-.688.004-.033.012-.063.017-.095.03-.218.073-.43.126-.638.02-.074.042-.147.064-.22.047-.16.1-.316.161-.469a5.687 5.687 0 0 1 .33-.701c.024-.043.045-.088.07-.13a6.244 6.244 0 0 1 .724-.978 6.07 6.07 0 0 1 .396-.395l.012-.012a6.13 6.13 0 0 1 .438-.362l.009-.007a6.668 6.668 0 0 1 .994-.614l.008-.004c.175-.087.355-.167.54-.24l.008-.003c.185-.072.373-.137.567-.194l.01-.003c.192-.056.388-.104.589-.145l.015-.003a7.184 7.184 0 0 1 1.262-.138h.007a7.874 7.874 0 0 1 5.46 2.056 7.32 7.32 0 0 1 1.606 2.102 6.422 6.422 0 0 1 .698 2.872zm2.424-11.198a12.9 12.9 0 0 1 .145-.007c-.027 0-.053.004-.08.005-.022 0-.043 0-.065.002zm.782-.043c-.119.01-.24.014-.36.02.205-.011.408-.027.608-.049-.075.008-.147.02-.222.027l-.026.002zm.757-.09c-.068.01-.14.016-.209.025.2-.027.396-.06.59-.096-.123.023-.245.05-.37.07h-.01zm.742-.14c-.007.003-.014.004-.022.006l-.085.016c.271-.058.538-.123.796-.198l-.018.005a10.7 10.7 0 0 1-.67.172zm1.342-.392a9.938 9.938 0 0 0 .109-.044l-.087.037-.022.007zm.632-.258c-.094.042-.193.079-.29.119.166-.069.329-.14.487-.216-.062.03-.12.063-.184.091l-.013.006zm.59-.293c-.05.026-.103.05-.153.076.158-.082.31-.17.459-.26-.094.058-.185.117-.284.17l-.022.014zm1.065-.697a7.281 7.281 0 0 1-.5.357l-.013.01-.059.035a7.6 7.6 0 0 0 .584-.412l-.01.01h-.002zm.526-.461c-.023.022-.042.045-.065.067a6.753 6.753 0 0 0 .065-.067zm.455-.493c-.033.04-.063.083-.098.122l-.04.046c-.052.057-.109.111-.163.167a6.13 6.13 0 0 0 .301-.335zm.216-.269c-.023.032-.05.062-.075.093.094-.123.18-.249.261-.377-.05.08-.098.162-.154.24l-.032.044zm.334-.519a3.295 3.295 0 0 1-.048.08c0 .002-.002.003-.003.005.102-.173.193-.35.272-.532l-.014.032c-.062.14-.132.28-.207.415zm.493-3.06c-.178-.875-.608-1.685-1.222-2.4-.598-.695-1.372-1.301-2.263-1.792a11.194 11.194 0 0 0-2.904-1.085 12.744 12.744 0 0 0-3.252-.303 13.713 13.713 0 0 0-1.399-2.065c-.111-.137-.23-.269-.346-.402l.046-.034c.044-.033.087-.067.13-.102l.033-.026.018-.015.075-.062a4.933 4.933 0 0 0 .29-.262l.008-.01a6.234 6.234 0 0 0 .246-.255l.058-.068.025-.028.042-.049c.025-.03.044-.063.068-.094.053-.069.11-.136.158-.206.018-.026.032-.053.049-.08.013-.02.03-.04.043-.06.019-.03.03-.06.048-.09.054-.091.103-.183.146-.275.015-.03.034-.06.048-.09.01-.021.014-.044.023-.067.013-.03.03-.06.041-.09.026-.068.042-.137.061-.205.01-.034.027-.067.036-.101l.006-.036c.035-.144.061-.289.071-.434l.028-.366c-.001.01-.004.019-.006.028.012-.136.015-.273.005-.41-.045-.576-.285-1.1-.675-1.554-.382-.445-.907-.821-1.534-1.115a7.625 7.625 0 0 0-2.106-.613 10.352 10.352 0 0 0-2.458-.06 10.945 10.945 0 0 0-2.364.485c-.365.12-.715.257-1.046.41-.33.152-.643.321-.934.503a21.32 21.32 0 0 0-1.712-.365 23.765 23.765 0 0 0-1.673-.23v-.007-.015l-.001-.066a.875.875 0 0 0-.003-.058V2.52c-.002-.002-.002-.003-.002-.005a1.659 1.659 0 0 0-.018-.146l-.051-.324c.008.048.013.096.017.146v.008a1.803 1.803 0 0 0-.238-.771c-.205-.355-.532-.654-.955-.885-.416-.228-.926-.39-1.503-.474a7.432 7.432 0 0 0-1.894-.017 9.456 9.456 0 0 0-3.727 1.243 6.833 6.833 0 0 0-1.39 1.073c-.387.396-.686.824-.862 1.267a29.728 29.728 0 0 0-1.698.519 32.716 32.716 0 0 0-1.652.607 2.453 2.453 0 0 0-.528-.328 3.35 3.35 0 0 0-.654-.22 4.57 4.57 0 0 0-.766-.103 6.033 6.033 0 0 0-.867.02 8.1 8.1 0 0 0-1.86.407 9.512 9.512 0 0 0-1.756.806 8.473 8.473 0 0 0-1.5 1.114 5.626 5.626 0 0 0-1.074 1.34 3.52 3.52 0 0 0-.3.7 2.474 2.474 0 0 0-.11.657c-.003.212.025.413.082.6.06.19.149.367.268.527l-.025-.035-.025-.036a1.177 1.177 0 0 1-.047-.074l.09.15a30.888 30.888 0 0 0-1.163 1.087 26.582 26.582 0 0 0-1.116 1.166c-.018 0-.037 0-.054-.002h-.168a7.136 7.136 0 0 0-1.98.376 9.88 9.88 0 0 0-1.962.91c-.633.38-1.238.833-1.775 1.338a8.531 8.531 0 0 0-1.402 1.683c-.383.614-.625 1.211-.734 1.767-.11.566-.08 1.09.086 1.54.112.31.294.58.53.812-.015-.015-.036-.027-.05-.042l.244.253c.117.121.25.231.4.33.148.097.314.183.494.254.182.073.379.13.59.172.202.04.419.064.647.075-.043.185-.087.371-.123.557a16.815 16.815 0 0 0-.238 1.644c-.026.277-.044.554-.054.829a12.21 12.21 0 0 0-3.219 2.96c-.305.407-.585.835-.834 1.282-.496.893-.824 1.78-.987 2.622-.167.864-.162 1.682.011 2.41.178.745.532 1.394 1.056 1.895.26.249.565.459.908.627-.012-.006-.025-.01-.037-.017a3.773 3.773 0 0 1-.352-.2l.322.208a3.735 3.735 0 0 0 .732.367 4.172 4.172 0 0 0 .86.227l.058.01.057.008.058.008.058.006a4.657 4.657 0 0 0 .431.033h.027a6.345 6.345 0 0 0 .413-.002c.06-.002.12-.006.182-.01l.089-.008h.012l.011-.002c.024-.002.047-.003.07-.006a8.994 8.994 0 0 0 .37-.047 8.46 8.46 0 0 0 .168-.03l.094-.017a.914.914 0 0 1 .018-.004l.057-.011.17-.037.17-.042c.054-.013.108-.028.162-.043.054-.015.108-.03.163-.047h.002l.16-.05.163-.055a5.447 5.447 0 0 0 .32-.117c.028-.01.055-.022.082-.033a8.494 8.494 0 0 0 .56-.244c.055-.026.109-.051.162-.078a.143.143 0 0 1 .014-.007l.004-.002.004-.002a9.333 9.333 0 0 0 .471-.25l.165-.096.069-.04.018-.011.077-.047c.052-.031.104-.064.155-.096.052-.032.103-.066.154-.1a9.1 9.1 0 0 0 .153-.102l.12-.082c.161.164.32.33.49.49.258.241.525.479.801.713.277.234.564.465.859.694l-.023-.017-.304-.24.028.022a.068.068 0 0 0 .007.006l.058.046.002.002.014.011.027.022.027.021.07.056a.14.14 0 0 0 .01.009l.028.021a23.728 23.728 0 0 0 .611.477l.316.237.053.039a11.145 11.145 0 0 0-.716 3.606 9.308 9.308 0 0 0 .548 3.456c.404 1.095 1.025 2.071 1.844 2.85.489.466 1.049.857 1.67 1.161l-.166-.08.279.145a6.283 6.283 0 0 0 .762.341 6.826 6.826 0 0 0 .824.252l.076.017.075.017.076.016.076.015.11.019.098.016.092.016c.1.015.2.028.302.038l.014.001.054.005c.078.008.157.015.236.02.043.003.087.004.13.006l.107.004c.023 0 .045.003.068.003.08.002.162.002.244.002l.078-.002.076-.002.09-.003c.081-.003.163-.008.245-.014l.065-.006.073-.007.106-.01c.074-.007.148-.016.222-.026l.075-.011.06-.01.087-.012c.074-.012.148-.026.222-.04l.102-.02.054-.012.065-.013a7.655 7.655 0 0 0 .36-.088l.02-.005.011-.003.028-.007a7.125 7.125 0 0 0 .416-.126c.003 0 .005-.001.008-.003l.014-.004.181-.062c.068-.024.135-.05.202-.075l.049-.019.046-.019c.035-.013.071-.026.106-.041.067-.028.133-.055.2-.085l.094-.042.053-.024.053-.024a11.388 11.388 0 0 0 .35-.17l.034-.018.013-.007a8.24 8.24 0 0 0 .398-.219l.009-.005.028-.017a9.242 9.242 0 0 0 .36-.22l.035-.024.043-.028.118-.077.21-.145.048-.036.048-.035.11-.08c.07-.051.137-.103.205-.156l.048-.04.02-.014c.005-.003.008-.008.012-.011l.12-.097a10.682 10.682 0 0 0 .638-.567l.012-.01a12.245 12.245 0 0 0 .698-.734l.027-.03.023-.026a10.038 10.038 0 0 0 .487-.604c.03-.04.057-.081.087-.122.041-.056.08-.113.12-.17.166-.233.324-.472.474-.718.014-.024.031-.046.045-.07l.014-.024.023-.037c.149-.253.285-.513.416-.778.034-.067.066-.135.097-.203.04-.082.08-.162.118-.245.085-.192.165-.389.24-.586l.018-.042c.083-.218.16-.439.23-.663.023-.078.043-.157.065-.235.021-.072.042-.143.061-.216a11.562 11.562 0 0 0 .212-.904c0-.005.001-.01.003-.014l.002-.015c0-.005.002-.01.003-.014a29.483 29.483 0 0 0 1.425-.277l.075-.017.02-.004.028-.007a37.295 37.295 0 0 0 1.04-.25c.12-.031.24-.065.36-.098l.083-.02.063-.02.181-.049c.229-.065.457-.132.683-.203.17-.051.339-.107.508-.162l.06-.018.031-.012.08-.025a35.843 35.843 0 0 0 .683-.237 30.544 30.544 0 0 0 .676-.251c.384.52.82 1.013 1.306 1.467a10.857 10.857 0 0 0 3.535 2.209c.685.263 1.409.46 2.162.584l.092.014.093.014c.03.005.06.01.091.013l.093.012c.121.016.242.03.362.04.058.006.116.01.174.014l.07.006c.04.002.078.006.117.009a11.307 11.307 0 0 0 .716.018h.048l.036-.002a10.318 10.318 0 0 0 .482-.018c.094-.005.187-.012.28-.02l.105-.012c.014 0 .029-.003.044-.004.043-.005.086-.008.129-.014a10.556 10.556 0 0 0 .73-.114h.004l.003-.001.01-.001a9.72 9.72 0 0 0 .702-.165l.13-.037.03-.008a8.939 8.939 0 0 0 .72-.242l.075-.03.03-.012.105-.041a8.483 8.483 0 0 0 .622-.281l.033-.018a12.732 12.732 0 0 0 .742-.417l.006-.003.004-.003a9.083 9.083 0 0 0 .667-.464l.03-.023c.034-.027.069-.052.102-.08a9.365 9.365 0 0 0 .38-.32l.113-.104.035-.032.059-.055a7.192 7.192 0 0 0 .39-.399l.09-.1.032-.037.062-.07a8.583 8.583 0 0 0 .427-.542l.006-.008a9.133 9.133 0 0 0 .398-.606l.02-.04c.028-.046.052-.096.079-.144.068-.121.137-.242.198-.367.023-.045.04-.093.062-.139.035-.072.066-.146.098-.22.03-.07.066-.139.095-.21.035-.09.064-.183.097-.274.025-.07.051-.14.075-.212.011-.035.025-.068.036-.103.062-.199.117-.4.163-.604l.061-.268-.011.04c.19-.81.259-1.663.19-2.54a8.829 8.829 0 0 0-.38-1.963 9.333 9.333 0 0 0-.77-1.777 10.078 10.078 0 0 0-1.083-1.561c-.372-.443-.785-.85-1.226-1.228.174-.284.347-.568.507-.856.2-.359.39-.72.57-1.084.18-.36.35-.723.513-1.087.162-.361.316-.724.466-1.086l.08.002.08.003.082.002.08.001h.315c.037 0 .074-.002.11-.003l.064-.001.14-.004a9.955 9.955 0 0 0 .572-.036l.025-.001.02-.002a14.898 14.898 0 0 0 .484-.054l.223-.031.008-.001.008-.002a13.009 13.009 0 0 0 .66-.12l.037-.01a.206.206 0 0 0 .01-.001c.004 0 .007-.003.012-.003a12.57 12.57 0 0 0 .55-.137c.039-.01.077-.022.116-.034l.025-.006.05-.015a9.196 9.196 0 0 0 .554-.183l.035-.014.022-.007.121-.046a7.086 7.086 0 0 0 .348-.142l.135-.06.016-.007.02-.009a10.268 10.268 0 0 0 .494-.246l.056-.03.011-.006.012-.007.086-.047a6.643 6.643 0 0 0 .32-.19l.12-.078a.087.087 0 0 1 .013-.009l.02-.013c.055-.037.11-.073.163-.111a7.728 7.728 0 0 0 .624-.49 4.953 4.953 0 0 0 .147-.134l.01-.01a5.438 5.438 0 0 0 .294-.296l.074-.083c.007-.008.016-.015.022-.023l.019-.022.06-.07c.057-.066.112-.134.164-.202l.087-.118.031-.043.034-.047c.05-.07.096-.14.14-.211.028-.045.053-.09.08-.136l.046-.08.038-.064c.051-.095.098-.19.142-.286.01-.02.017-.042.026-.062l.034-.081c.02-.05.043-.099.062-.149.037-.098.07-.197.1-.297l.11-.366a4.45 4.45 0 0 1-.14.383 4.308 4.308 0 0 0 .23-2.5z"/>
    </g>
</svg>
