<svg xmlns="http://www.w3.org/2000/svg" xmlns:xlink="http://www.w3.org/1999/xlink" width="122" height="122" viewBox="0 0 122 122">
    <defs>
        <circle id="a" cx="61" cy="61" r="61"/>
        <path id="c" d="M14.44 31.008a24.28 24.28 0 0 0 .063-1.739c0-.083-.005-.164-.006-.246h.006v-6.616c0-6.262-2.407-11.96-6.343-16.226A24.018 24.018 0 0 0 .44.595v30.413h14z"/>
    </defs>
    <g fill="none" fill-rule="evenodd">
        <mask id="b" fill="#fff">
            <use xlink:href="#a"/>
        </mask>
        <use fill="#ECF8FF" xlink:href="#a"/>
        <g mask="url(#b)">
            <path fill="#4D4C4E" d="M73.564 91.55h-24c-7.732 0-14 6.268-14 14v14a4 4 0 0 0 4 4h44a4 4 0 0 0 4-4v-14c0-7.732-6.268-14-14-14"/>
            <path fill="#E9C6A0" d="M61.564 99.55a6 6 0 0 1-6-6v-14h12v14a6 6 0 0 1-6 6"/>
            <path fill="#292929" d="M67.564 88.55s-4.479 1-6 1-6-1-6-1v-2s4.479 1 6 1 6-1 6-1v2z" opacity=".2"/>
            <path fill="#5F5C61" d="M88.564 41.55h-54v12c0 5.523 4.477 10 10 10h34c5.523 0 10-4.477 10-10v-12z"/>
            <path fill="#E9C6A0" d="M88.564 60.6a5 5 0 1 1-10.001 0 5 5 0 0 1 10.001 0M44.564 60.6a5 5 0 1 1-10.001 0 5 5 0 0 1 10.001 0"/>
            <path fill="#5F5C61" d="M88.564 41.55c0 11.046-8.954 20-20 20s-20-8.954-20-20 8.954-20 20-20c13.027 0 20 8.954 20 20"/>
            <path fill="#F7D4AA" d="M61.564 87.55c-12.15 0-22-9.85-22-22v-19c0-12.15 9.85-22 22-22s22 9.85 22 22v19c0 12.15-9.85 22-22 22"/>
            <path fill="#F1F2F1" d="M65.564 91.55l-4.001 9.235-3.999-9.235h-6l10 27 10-27z"/>
            <path fill="#292929" d="M51.235 48.21c-6.092-.03-11.89-2.503-16.15-6.756l-.52.096v2.324c4.542 4.076 10.461 6.425 16.66 6.455A25.174 25.174 0 0 0 73.371 37.33l-1.855-1.025a23.038 23.038 0 0 1-20.28 11.904" opacity=".2"/>
            <path stroke="#E9C6A0" stroke-linecap="round" stroke-width="2" d="M63.971 71.181a8.07 8.07 0 0 1-4.815.003"/>
            <path fill="#5F5C61" d="M46.565 57.066a1 1 0 0 1-.738-1.675c1.408-1.54 3.884-2.057 6.033-1.254a1 1 0 0 1-.7 1.873c-1.56-.583-3.122-.074-3.857.73a.995.995 0 0 1-.738.326M76.563 57.066a.995.995 0 0 1-.738-.325c-.735-.805-2.298-1.314-3.856-.731a1 1 0 0 1-.7-1.873c2.142-.803 4.623-.286 6.032 1.254a1.001 1.001 0 0 1-.738 1.675"/>
            <path fill="#2D2D2D" d="M74.15 59.05a1.5 1.5 0 1 1-3-.001 1.5 1.5 0 0 1 3 .001M51.977 59.05a1.5 1.5 0 1 1-3-.001 1.5 1.5 0 0 1 3 .001"/>
            <path fill="#2878A0" d="M62.835 95.595h-2.542L57.06 97.42l2.407 5.515h4.196l2.407-5.515z"/>
            <path fill="#2878A0" d="M61.564 118.55l-3-8 .902-7.616h4.196l.902 7.616z"/>
            <path fill="#292929" d="M63.78 103.813l-.12-.878h-4.19l-.122.878z"/>
            <path fill="#FEFEFE" d="M55.564 88.55l-4 3 4.325 7.808 5.652-3.763zM67.541 88.55l4 3-4.325 7.808-5.652-3.763z"/>
            <path stroke="#F4876D" stroke-linecap="round" stroke-linejoin="round" stroke-width="2" d="M65.73 78.524c-.79.722-2.79 1-3.957 1M57.814 78.524c.79.722 2.79 1 3.959 1"/>
            <path fill="#5F5C61" d="M73.371 22.785c-9.058-9.068-36.637-7.082-41.37 18.39 5.517 5.735 13.621 8.817 22.092 7.549 9.525-1.427 17.016-7.963 20.116-16.409"/>
            <g transform="translate(71 22.479)">
                <mask id="d" fill="#fff">
                    <use xlink:href="#c"/>
                </mask>
                <path fill="#5F5C61" d="M43.926 9.264c0 12.01-9.735 21.744-21.744 21.744C10.174 31.008.44 21.273.44 9.264S10.174-12.48 22.182-12.48c12.01 0 21.744 9.735 21.744 21.744" mask="url(#d)"/>
            </g>
        </g>
    </g>
</svg>
