<svg xmlns="http://www.w3.org/2000/svg" xmlns:xlink="http://www.w3.org/1999/xlink" width="122" height="122" viewBox="0 0 122 122">
    <defs>
        <circle id="a" cx="61" cy="61" r="61"/>
    </defs>
    <g fill="none" fill-rule="evenodd">
        <mask id="b" fill="#fff">
            <use xlink:href="#a"/>
        </mask>
        <use fill="#ECF8FF" xlink:href="#a"/>
        <g mask="url(#b)">
            <path fill="#F2BA28" d="M60.01 16.666c-.625 0-1.243.028-1.857.068a27.963 27.963 0 0 0-7.263 1.46 28.386 28.386 0 0 0-10.828 6.767 28.381 28.381 0 0 0-6.874 11.13 28.02 28.02 0 0 0-1.428 8.825v18.4c0 56.487 12.712 45.005 28.25 45.005v-7.324c15.537 0 28.25 18.806 28.25-37.682V44.916c0-15.538-12.713-28.25-28.25-28.25"/>
            <path fill="#0EA9A1" d="M41.51 119.472h.7c-.236 0-.468-.016-.7-.035v.035zM45.21 114.122c0-1.186-.671-2.15-1.5-2.15-.83 0-1.5.964-1.5 2.15v8.6h3.31a21.237 21.237 0 0 1-.31-3.551v-5.049zM78.998 119.472v-.04c-.261.025-.526.04-.794.04h.794zM78.204 114.12c0-1.18-.667-2.137-1.49-2.137-.822 0-1.49.958-1.49 2.138v4.903a21.6 21.6 0 0 1-.331 3.71h3.31v-8.613z"/>
            <path fill="#4FC2C3" d="M67.521 106.175c-1.59.996-3.319 1.7-5.008 2.05l-2.136-5.049a.778.778 0 0 0-1.343-.063l-1.85 5.152a13.206 13.206 0 0 1-2.515-.754c-6.607-2.713-9.58-10.259-6.707-16.797-8.35 3.55-14.049 10.642-14.049 18.815v2.647c0 4.346 3.344 7.905 7.598 8.261.23.02.462.035.698.035v-6a1.5 1.5 0 0 1 3 0v3.522c0 .843.114 1.672.311 2.478.47 1.926 1.47 3.7 2.93 5.092 6.553 6.256 16.86 6.281 23.444.057a10.637 10.637 0 0 0 3-5.149c.21-.839.33-1.704.33-2.584v-3.416a1.49 1.49 0 0 1 2.98 0v6a8.128 8.128 0 0 0 8.128-8.128v-2.815c0-8.15-5.666-15.226-13.979-18.786 2.531 5.705.458 12.12-4.832 15.432z"/>
            <path fill="#0EA9A1" d="M54.67 107.511c.82.337 1.665.591 2.514.754l1.85-5.152a.778.778 0 0 1 1.344.063l2.136 5.05c1.689-.35 3.417-1.055 5.008-2.05 5.29-3.313 7.363-9.728 4.832-15.433 0 0-5.44-2.453-12.246-2.453-6.807 0-12.142 2.416-12.142 2.416l-.003.008c-2.874 6.538.099 14.084 6.707 16.797"/>
            <path fill="#231F20" d="M60.123 72.24c-3.338 0-6.07 2.73-6.07 6.069v.483c0-3.338 2.732-6.07 6.07-6.07s6.069 2.732 6.069 6.07v-.483c0-3.338-2.731-6.07-6.07-6.07"/>
            <path fill="#FFE1AD" d="M54.053 87.714v4.332c0 2.152 2.523 5.112 4.315 6.943a2.45 2.45 0 0 0 3.51 0c1.791-1.83 4.314-4.79 4.314-6.943v-4.332c-1.929.554-3.963 1.528-6.07 1.528-2.106 0-4.14-.974-6.069-1.528"/>
            <path fill="#FCCA80" d="M83.45 53.42a4.766 4.766 0 0 0-1.779-3.357v7.454a4.783 4.783 0 0 0 1.779-4.098M35.962 54.15a4.766 4.766 0 0 0 1.778 3.356v-7.454a4.783 4.783 0 0 0-1.778 4.098"/>
            <path fill="#D7B48A" d="M54.053 84.642v3.072c1.928.554 3.963 1.528 6.07 1.528 2.106 0 4.14-.974 6.07-1.528v-3.399c-2.052.872-4.229 1.362-6.487 1.362-1.955 0-3.849-.37-5.653-1.035"/>
            <path fill="#FFE1AD" d="M81.672 42.052c0-12.131-9.834.356-21.966.356-4.484 0-8.654-4.118-12.13-4.18l-.177-.001c-5.36-.023-9.66 4.457-9.66 9.817v11.184h.007c-.001.076-.006.15-.006.226 0 10.176 6.922 21.728 16.313 25.189 1.804.664 3.698 1.035 5.653 1.035 2.258 0 4.436-.49 6.486-1.363 8.965-3.817 15.48-14.988 15.48-24.861 0-.076-.005-.15-.006-.226h.006V42.052z"/>
            <path fill="#BC7455" d="M53.16 48.326a1.27 1.27 0 0 1-.266-.028c-3.345-.72-6.877-.917-8.586-.474a1.25 1.25 0 0 1-.625-2.42c2.567-.666 6.851-.172 9.738.45a1.25 1.25 0 0 1-.262 2.472M66.177 48.326a1.25 1.25 0 0 1-.262-2.472c2.888-.623 7.172-1.116 9.739-.45a1.25 1.25 0 0 1-.625 2.42c-1.711-.443-5.242-.246-8.587.474a1.27 1.27 0 0 1-.265.028"/>
            <path fill="#F05B3D" d="M60.145 76.516c-1.542 0-6.186-.986-6.186-2.442 0-.265.11-.522.298-.709.379-.378 1.053-.36 1.409-.015.469.26 2.447 1.166 4.479 1.166 2.132 0 4.31-.936 4.804-1.189.36-.325 1.013-.332 1.382.037.188.188.298.444.298.71 0 1.456-4.867 2.442-6.484 2.442"/>
            <path fill="#FBC39C" d="M76.247 70.175a3.896 3.896 0 1 1-7.79 0 3.896 3.896 0 0 1 7.79 0M51.89 70.175a3.896 3.896 0 1 1-7.792 0 3.896 3.896 0 0 1 7.792 0"/>
            <path fill="#5B5255" d="M70.76 62.76a5.45 5.45 0 0 1-5.444-5.444 5.45 5.45 0 0 1 5.443-5.444 5.45 5.45 0 0 1 5.443 5.444 5.45 5.45 0 0 1-5.443 5.443m-21.173 0a5.45 5.45 0 0 1-5.444-5.443 5.45 5.45 0 0 1 5.444-5.444 5.45 5.45 0 0 1 5.443 5.444 5.45 5.45 0 0 1-5.443 5.443M70.76 49.872c-3.016 0-5.612 1.806-6.78 4.39l-.689-.199a10.094 10.094 0 0 0-5.594 0l-1.252.361a7.454 7.454 0 0 0-6.858-4.552c-4.105 0-7.444 3.34-7.444 7.444s3.34 7.443 7.444 7.443 7.443-3.339 7.443-7.443c0-.326-.028-.645-.069-.959l1.29-.372a8.07 8.07 0 0 1 4.486 0l.676.195a7.336 7.336 0 0 0-.096 1.136c0 4.104 3.34 7.443 7.443 7.443 4.104 0 7.443-3.339 7.443-7.443 0-4.105-3.339-7.444-7.443-7.444"/>
            <path fill="#404042" d="M72.352 57.446a1.592 1.592 0 1 1-3.185 0 1.592 1.592 0 0 1 3.185 0M51.178 57.446a1.592 1.592 0 1 1-3.185 0 1.592 1.592 0 0 1 3.185 0"/>
            <path fill="#FCCA80" d="M57.643 68.626c-.062.035.882.549 1.854.549 1.008 0 2.035-.55 1.961-.55"/>
            <path fill="#FCCA80" d="M62.333 69.2a.932.932 0 0 0 .222-.597c0-.27-.109-.529-.299-.72a.95.95 0 0 0-.254-.168l.004-.005c-.008-.005-.017-.005-.025-.009-.034-.016-.067-.025-.102-.037a1 1 0 0 0-.969.133c-.227.112-.803.33-1.322.342-.519-.013-1.094-.23-1.322-.342a.998.998 0 0 0-.968-.133c-.035.012-.069.021-.102.037-.008.004-.017.004-.025.01l.004.003a.938.938 0 0 0-.254.17c-.19.19-.3.45-.3.72 0 .23.087.426.222.595l.005.006c.08.098.174.187.284.266l.075.05c.072.046.147.09.226.13.725.381 1.74.524 2.11.524l.045-.002.046.002c.37 0 1.384-.143 2.11-.524.08-.04.154-.084.225-.13l.075-.05c.11-.079.205-.168.284-.266l.005-.006"/>
            <path fill="#D39B29" d="M68.456 40.57s5.96 6.506 19.692 1.838l-.725-5.345H75.34l-6.885 3.508z"/>
            <path fill="#F2BA28" d="M91.16 33.586c0 5.46-4.43 8.822-11.137 8.822-8.83 0-13.186-4.087-13.186-9.548 0-4.715 7.132-11.115 14.589-4.337 6.07 5.519 9.734-.398 9.734 5.063"/>
        </g>
    </g>
</svg>
