<svg xmlns="http://www.w3.org/2000/svg" xmlns:xlink="http://www.w3.org/1999/xlink" width="122" height="122" viewBox="0 0 122 122">
    <defs>
        <circle id="a" cx="61" cy="61" r="61"/>
        <path id="c" d="M54.609 54.391v-54h-54v54h54z"/>
        <path id="e" d="M35.013.488H.4v20.755h34.613V.488z"/>
    </defs>
    <g fill="none" fill-rule="evenodd">
        <mask id="b" fill="#fff">
            <use xlink:href="#a"/>
        </mask>
        <use fill="#ECF8FF" xlink:href="#a"/>
        <g mask="url(#b)">
            <path fill="#F7D4AA" d="M67.61 87.583h-14c-10.494 0-19 8.507-19 19v9a4 4 0 0 0 4 4h44a4 4 0 0 0 4-4v-9c0-10.493-8.508-19-19-19"/>
            <path fill="#3A6275" d="M86.61 115.583v-9c0-9.819-7.45-17.897-17.006-18.894-.058 4.921-4.06 8.894-8.995 8.894s-8.937-3.973-8.995-8.894c-9.555.997-17.005 9.075-17.005 18.894v9h11v4h30v-4h11z"/>
            <path fill="#3A6275" d="M57.073 130.761L45.61 119.5h30l-11.464 11.261c-1.954 1.919-5.119 1.919-7.072 0"/>
            <path fill="#85B9E4" d="M60.61 98.083c5.677 0 10.304-4.532 10.482-10.167a18.718 18.718 0 0 0-1.488-.227c-.058 4.921-4.06 8.894-8.995 8.894s-8.937-3.973-8.995-8.894c-.503.053-.997.135-1.488.227.178 5.635 4.805 10.167 10.483 10.167"/>
            <path fill="#F7D4AA" d="M60.61 96.583a6 6 0 0 1-6-6v-14h12v14a6 6 0 0 1-6 6"/>
            <path fill="#292929" d="M66.61 85.583s-4.48 1-6 1c-1.522 0-6-1-6-1v-2s4.478 1 6 1c1.52 0 6-1 6-1v2z" opacity=".2"/>
            <g transform="translate(33 16.512)">
                <mask id="d" fill="#fff">
                    <use xlink:href="#c"/>
                </mask>
                <path fill="#5F5C61" d="M54.61 27.391c0 14.912-12.089 27-27 27-14.913 0-27-12.088-27-27s12.087-27 27-27c14.911 0 27 12.088 27 27" mask="url(#d)"/>
            </g>
            <path fill="#E9C6A0" d="M87.508 56.633a4.95 4.95 0 1 1-9.899 0 4.95 4.95 0 0 1 9.9 0M43.61 56.633a4.95 4.95 0 1 1-9.9 0 4.95 4.95 0 0 1 9.9 0"/>
            <path fill="#F7D4AA" d="M60.61 83.583c-12.15 0-22-9.85-22-22v-19c0-12.15 9.85-22 22-22s22 9.85 22 22v19c0 12.15-9.85 22-22 22"/>
            <path stroke="#EAB78A" stroke-linecap="round" stroke-width="2" d="M62.985 63.236c-.322.093-.8.24-1.243.379a3.8 3.8 0 0 1-2.266 0 66.938 66.938 0 0 0-1.245-.376"/>
            <path stroke="#4D4C4E" stroke-linecap="round" stroke-width="2" d="M45.806 58.908a3.77 3.77 0 0 1 7.035-1.829M75.412 58.908a3.77 3.77 0 0 0-7.035-1.829"/>
            <path fill="#5F5C61" d="M33.087 17.583s-.986 9.075 3.667 16.75C40.795 41 47.71 43.53 48.837 43.903c1.097.364 8.583 2.055 19.582.921 13.798-1.422 17.243-10.13 17.243-10.13l-10.25-11.099-21.555-5.823s-13.246 8.894-20.77-.189"/>
            <g transform="translate(41 11.512)">
                <mask id="f" fill="#fff">
                    <use xlink:href="#e"/>
                </mask>
                <path fill="#5F5C61" d="M2.013.488s-4.758 12.25 2.07 16.75c6.828 4.5 21.17 3.969 22.57 4 6.65.149 8.36-6.417 8.36-6.417S4.083 8.155 2.013.488" mask="url(#f)"/>
            </g>
            <path fill="#85B9E4" d="M34.609 115.583h11v-2h-11z"/>
            <path fill="#292929" d="M42.609 119.583h3v-6h-3z" opacity=".2"/>
            <path fill="#85B9E4" d="M75.609 115.583h11v-2h-11z"/>
            <path fill="#292929" d="M75.609 119.583h3v-6h-3z" opacity=".2"/>
            <path fill="#5F5C61" d="M82.614 46.723l-.003 10.863c0 5.522-4.478 9.997-10 9.997H48.606c-5.522 0-9.999-4.475-10-9.997l-.003-10.863h-.994v18.924c0 .839.091 1.68.333 2.485 2.38 7.874 8.656 14.027 16.564 16.15.976.263 5.324 1.3 6.103 1.3.778 0 5.126-1.037 6.102-1.3 7.909-2.123 14.186-8.276 16.565-16.15.242-.804.333-1.646.333-2.485V46.723h-.994z"/>
            <path fill="#FEFEFE" d="M71.268 71.012c-1.691 4.23-5.826 7.216-10.66 7.216-4.831 0-8.966-2.987-10.657-7.216h21.317z"/>
            <path fill="#292929" d="M70.482 72.6c.3-.506.565-1.036.786-1.588H49.95c.22.552.485 1.082.786 1.588h19.745z" opacity=".2"/>
        </g>
    </g>
</svg>
