<svg xmlns="http://www.w3.org/2000/svg" xmlns:xlink="http://www.w3.org/1999/xlink" width="122" height="122" viewBox="0 0 122 122">
    <defs>
        <circle id="a" cx="61" cy="61" r="61"/>
        <path id="c" d="M0 13h30V.072H0V13z"/>
        <path id="e" d="M24.737 16.365V.31H.487v16.056h24.25z"/>
    </defs>
    <g fill="none" fill-rule="evenodd">
        <mask id="b" fill="#fff">
            <use xlink:href="#a"/>
        </mask>
        <use fill="#ECF8FF" xlink:href="#a"/>
        <g mask="url(#b)">
            <path fill="#A76A4A" d="M87 43c0 14.912-12.088 27-27 27S33 57.912 33 43s12.088-27 27-27 27 12.088 27 27"/>
            <path fill="#FDCC85" d="M85 55.73a4.5 4.5 0 1 1-9 0 4.5 4.5 0 0 1 9 0M44 55.73a4.5 4.5 0 1 1-9 0 4.5 4.5 0 0 1 9 0"/>
            <path fill="#FFE2AF" d="M67 86.68H53c-10.493 0-19 8.507-19 19v9a4 4 0 0 0 4 4h44a4 4 0 0 0 4-4v-9c0-10.493-8.507-19-19-19"/>
            <path fill="#85BEFC" d="M68 95.68l-5.56-.238L60 101.68l-2.44-6.238-3.56.238v-9h-1c-10.493 0-19 8.507-19 19v11a4 4 0 0 0 4 4s24.771 3 37 1c2.019-.33 7 0 7 0a4 4 0 0 0 4-4v-12c0-10.408-8.373-18.851-18.749-18.987L68 95.68z"/>
            <g transform="translate(45 118.609)">
                <mask id="d" fill="#fff">
                    <use xlink:href="#c"/>
                </mask>
                <path fill="#AAB6BD" d="M11.464 11.536L.002.072h30L18.535 11.534a5 5 0 0 1-7.07 0" mask="url(#d)"/>
            </g>
            <path fill="#FFE2AF" d="M60 95.68a6 6 0 0 1-6-6v-14h12v14a6 6 0 0 1-6 6"/>
            <path fill="#292929" d="M66 83.68s-4.479 1-6 1-6-1-6-1v-2s4.479 1 6 1 6-1 6-1v2zM43.5 111.18c-.829 0-1.5.807-1.5 1.8v7.2h3v-7.2c0-.993-.671-1.8-1.5-1.8M76.5 111.18c-.829 0-1.5.807-1.5 1.8v7.2h3v-7.2c0-.993-.671-1.8-1.5-1.8" opacity=".2"/>
            <path fill="#373535" d="M59.999 70.12c-3.338 0-6.07 2.732-6.07 6.07v.483c0-3.338 2.732-6.07 6.07-6.07s6.069 2.732 6.069 6.07v-.483c0-3.338-2.731-6.07-6.07-6.07"/>
            <path fill="#FFE2AF" d="M60 82.68c-12.15 0-22-9.85-22-22v-19c0-12.15 9.85-22 22-22s22 9.85 22 22v19c0 12.15-9.85 22-22 22"/>
            <path fill="#FDCC85" d="M62.376 61.63a8.582 8.582 0 0 1-2.381.336c-.824 0-1.62-.116-2.373-.332"/>
            <path fill="#FDCC85" d="M59.995 62.966a9.57 9.57 0 0 1-2.65-.372.999.999 0 1 1 .553-1.922 7.65 7.65 0 0 0 4.2-.002 1 1 0 0 1 .555 1.922 9.61 9.61 0 0 1-2.658.374"/>
            <path fill="#524758" d="M65.33 68.12c1.493 0 2.495 1.522 1.94 2.907a7.832 7.832 0 0 1-14.543 0c-.554-1.385.448-2.906 1.94-2.906H65.33z"/>
            <path fill="#FBC5A0" d="M76.053 65.316c0 .73-1.184 1.322-2.644 1.322-1.46 0-2.643-.592-2.643-1.322 0-.73 1.183-1.322 2.643-1.322 1.46 0 2.644.592 2.644 1.322M48.398 65.316c0 .73-1.184 1.322-2.644 1.322-1.46 0-2.643-.592-2.643-1.322 0-.73 1.183-1.322 2.643-1.322 1.46 0 2.644.592 2.644 1.322"/>
            <path fill="#FEFEFE" d="M63.525 70.8h-7.008a2.164 2.164 0 0 1-2.164-2.163v-.516h11.335v.516a2.163 2.163 0 0 1-2.163 2.163"/>
            <path fill="#F37F65" d="M60 73.05a4.376 4.376 0 0 0-3.652 1.982A7.779 7.779 0 0 0 60 75.95c1.322 0 2.56-.34 3.652-.918A4.376 4.376 0 0 0 60 73.05"/>
            <path fill="#2D2D2D" d="M70.595 60.446a5.44 5.44 0 0 1-5.434-5.434 5.44 5.44 0 0 1 5.434-5.435 5.44 5.44 0 0 1 5.434 5.435 5.44 5.44 0 0 1-5.434 5.434m-21.138 0a5.44 5.44 0 0 1-5.434-5.434 5.44 5.44 0 0 1 5.434-5.435 5.44 5.44 0 0 1 5.434 5.435 5.44 5.44 0 0 1-5.434 5.434m21.138-12.865c-3.011 0-5.603 1.802-6.77 4.382l-.687-.198a10.062 10.062 0 0 0-5.585 0l-1.25.36a7.442 7.442 0 0 0-6.846-4.544c-4.098 0-7.431 3.333-7.431 7.431 0 4.097 3.333 7.431 7.43 7.431 4.099 0 7.432-3.334 7.432-7.43 0-.326-.028-.644-.07-.959l1.289-.37a8.06 8.06 0 0 1 4.478 0l.675.194a7.435 7.435 0 0 0-.096 1.134c0 4.097 3.333 7.431 7.43 7.431 4.099 0 7.432-3.334 7.432-7.43 0-4.099-3.333-7.432-7.431-7.432"/>
            <path fill="#2D2D2D" d="M72.026 55.18a1.5 1.5 0 1 1-3.001-.001 1.5 1.5 0 0 1 3 .001M51.026 55.18a1.5 1.5 0 1 1-3.001-.001 1.5 1.5 0 0 1 3 .001"/>
            <g transform="translate(63 20.609)">
                <mask id="f" fill="#fff">
                    <use xlink:href="#e"/>
                </mask>
                <path fill="#A76A4A" d="M24.52 4.806c1.167 5.335-2.442 9.565-8.994 11C6.9 17.691 1.771 14.63.603 9.295-.404 4.69 5.195-3.087 13.93 1.94c7.11 4.094 9.424-2.469 10.591 2.866" mask="url(#f)"/>
            </g>
            <path fill="#292929" d="M67.149 43.68a24.473 24.473 0 0 0 14.663-4.839 21.796 21.796 0 0 0-.404-2.225 22.467 22.467 0 0 1-14.26 5.064c-10.034 0-18.705-6.6-21.62-15.88A22.153 22.153 0 0 0 44 27.498c3.496 9.515 12.63 16.182 23.149 16.182" opacity=".2"/>
            <path fill="#A76A4A" d="M59.747 16.077a26.814 26.814 0 0 0-17.176 6.191C44.027 33.954 53.988 43 66.068 43c7.723 0 14.581-3.698 18.905-9.418-3.819-10.224-13.67-17.505-25.226-17.505"/>
            <path fill="#A76A4A" d="M41.435 24.4C37.1 28.932 34.329 34.97 34 41.656a9.438 9.438 0 0 0 2.902.459c5.212 0 9.437-4.226 9.437-9.438a9.433 9.433 0 0 0-4.904-8.277M42.298 48.017a.999.999 0 0 0 .773-.364c1.081-1.315 2.981-2.669 8.128-1.476a1 1 0 1 0 .453-1.947c-4.787-1.113-8.002-.427-10.125 2.151a1 1 0 0 0 .771 1.636M67.964 46.177c5.145-1.194 7.047.161 8.128 1.476a.999.999 0 0 0 1.408.136c.426-.35.487-.98.137-1.408-2.123-2.58-5.339-3.267-10.126-2.15a1 1 0 1 0 .453 1.946"/>
            <path fill="#BBD4FF" d="M54 89.773V85.68c-.96.557-2.33 1.163-3 2-1.143 1.427-2 2.745-2 5 0 1.866 1.186 4.072 2.267 5.695.815 1.224 2.563 1.351 3.529.242l2.764-3.176S54 93.681 54 89.773M66 89.773V85.68c.96.557 2.33 1.163 3 2 1.143 1.427 2 2.745 2 5 0 1.866-1.186 4.072-2.267 5.695-.815 1.224-2.563 1.351-3.529.242l-2.764-3.176S66 93.681 66 89.773M60 102.825a1 1 0 1 1 0-2 1 1 0 0 1 0 2zM61 106.68a1 1 0 1 1-2 0 1 1 0 0 1 2 0"/>
        </g>
    </g>
</svg>
