<svg xmlns="http://www.w3.org/2000/svg" width="55" height="65" viewBox="0 0 55 65">
    <g fill="none" fill-rule="evenodd">
        <path fill="#FFF" d="M52.429 13.714c.666.667 1.238 1.572 1.714 2.715.476 1.142.714 2.19.714 3.142v41.143c0 .953-.333 1.762-1 2.429-.667.667-1.476 1-2.428 1h-48c-.953 0-1.762-.333-2.429-1-.667-.667-1-1.476-1-2.429V3.571C0 2.62.333 1.81 1 1.143s1.476-1 2.429-1h32c.952 0 2 .238 3.142.714 1.143.476 2.048 1.048 2.715 1.714l11.143 11.143z"/>
        <path fill="#2A5698" fill-opacity=".81" d="M52.429 13.714c.666.667 1.238 1.572 1.714 2.715.476 1.142.714 2.19.714 3.142v41.143c0 .953-.333 1.762-1 2.429-.667.667-1.476 1-2.428 1h-48c-.953 0-1.762-.333-2.429-1-.667-.667-1-1.476-1-2.429V3.571C0 2.62.333 1.81 1 1.143s1.476-1 2.429-1h32c.952 0 2 .238 3.142.714 1.143.476 2.048 1.048 2.715 1.714l11.143 11.143zM36.57 5v13.429H50c-.238-.69-.5-1.179-.786-1.465L38.036 5.786C37.75 5.5 37.262 5.238 36.57 5zm13.715 54.571V23H35.429c-.953 0-1.762-.333-2.429-1-.667-.667-1-1.476-1-2.429V4.714H4.571v54.857h45.715zm-31.25-32v3.822H15.82l3.536 15.643c.12.476.203 1.024.25 1.643l.072.75h.142l.143-.75.125-.768c.06-.37.113-.661.161-.875l5.143-19.465h4.071l5.143 19.465c.048.214.107.512.179.893.071.38.119.63.143.75l.107.75h.143l.071-.75c.048-.62.131-1.167.25-1.643l3.536-15.643H35.82V27.57h10.715v3.822h-2.5L38.179 55H32.5l-4.571-17.321a5.766 5.766 0 0 1-.197-.929c-.06-.405-.101-.643-.125-.714l-.107-.857h-.143c0 .19-.024.476-.071.857a7.636 7.636 0 0 1-.357 1.643L22.357 55H16.68L10.82 31.393h-2.5V27.57h10.715z"/>
    </g>
</svg>
